<?xml version="1.0" encoding="UTF-8" standalone="no"?><svg xmlns="http://www.w3.org/2000/svg" xmlns:xlink="http://www.w3.org/1999/xlink" contentScriptType="application/ecmascript" contentStyleType="text/css" height="1075px" preserveAspectRatio="none" style="width:1077px;height:1075px;" version="1.1" viewBox="0 0 1077 1075" width="1077px" zoomAndPan="magnify"><defs><filter height="300%" id="f7orr5inwpm0m" width="300%" x="-1" y="-1"><feGaussianBlur result="blurOut" stdDeviation="2.0"/><feColorMatrix in="blurOut" result="blurOut2" type="matrix" values="0 0 0 0 0 0 0 0 0 0 0 0 0 0 0 0 0 0 .4 0"/><feOffset dx="4.0" dy="4.0" in="blurOut2" result="blurOut3"/><feBlend in="SourceGraphic" in2="blurOut3" mode="normal"/></filter></defs><g><!--cluster Golem--><polygon fill="#FFFFFF" filter="url(#f7orr5inwpm0m)" points="22,24,63,24,70,44.6919,1055,44.6919,1055,1063,22,1063,22,24" style="stroke: #000000; stroke-width: 1.5;"/><line style="stroke: #000000; stroke-width: 1.5;" x1="22" x2="70" y1="44.6919" y2="44.6919"/><text fill="#000000" font-family="Ricty Diminished" font-size="14" font-weight="bold" lengthAdjust="spacingAndGlyphs" textLength="35" x="26" y="37.6836">Golem</text><!--cluster actuators--><polygon fill="#FFFFFF" filter="url(#f7orr5inwpm0m)" points="46,132,115,132,122,152.6919,1031,152.6919,1031,1039,46,1039,46,132" style="stroke: #000000; stroke-width: 1.5;"/><line style="stroke: #000000; stroke-width: 1.5;" x1="46" x2="122" y1="152.6919" y2="152.6919"/><text fill="#000000" font-family="Ricty Diminished" font-size="14" font-weight="bold" lengthAdjust="spacingAndGlyphs" textLength="63" x="50" y="145.6836">actuators</text><!--cluster motors--><polygon fill="#FFFFFF" filter="url(#f7orr5inwpm0m)" points="248,332,296,332,303,352.6919,751,352.6919,751,1015,248,1015,248,332" style="stroke: #000000; stroke-width: 1.5;"/><line style="stroke: #000000; stroke-width: 1.5;" x1="248" x2="303" y1="352.6919" y2="352.6919"/><text fill="#000000" font-family="Ricty Diminished" font-size="14" font-weight="bold" lengthAdjust="spacingAndGlyphs" textLength="42" x="252" y="345.6836">motors</text><!--cluster pulse_motors--><polygon fill="#FFFFFF" filter="url(#f7orr5inwpm0m)" points="453,578,543,578,550,598.6919,727,598.6919,727,991,453,991,453,578" style="stroke: #000000; stroke-width: 1.5;"/><line style="stroke: #000000; stroke-width: 1.5;" x1="453" x2="550" y1="598.6919" y2="598.6919"/><text fill="#000000" font-family="Ricty Diminished" font-size="14" font-weight="bold" lengthAdjust="spacingAndGlyphs" textLength="84" x="457" y="591.6836">pulse_motors</text><!--cluster solenids--><polygon fill="#FFFFFF" filter="url(#f7orr5inwpm0m)" points="775,355,837,355,844,375.6919,1007,375.6919,1007,779,775,779,775,355" style="stroke: #000000; stroke-width: 1.5;"/><line style="stroke: #000000; stroke-width: 1.5;" x1="775" x2="844" y1="375.6919" y2="375.6919"/><text fill="#000000" font-family="Ricty Diminished" font-size="14" font-weight="bold" lengthAdjust="spacingAndGlyphs" textLength="56" x="779" y="368.6836">solenids</text><!--class Component--><rect fill="#F8F8F8" filter="url(#f7orr5inwpm0m)" height="48" id="Component" style="stroke: #383838; stroke-width: 1.5;" width="86" x="446" y="57"/><ellipse cx="461" cy="73" fill="#B1B1B1" rx="11" ry="11" style="stroke: #383838; stroke-width: 1.0;"/><path d="M461.9844,77.9063 L462.7188,77.9063 L462.7188,79.3594 L458.7188,79.3594 L458.7188,77.9063 L459.4531,77.9063 L459.4531,67.875 L458.7188,67.875 L458.7188,66.4219 L462.7188,66.4219 L462.7188,67.875 L461.9844,67.875 L461.9844,77.9063 Z "/><text fill="#000000" font-family="Ricty Diminished" font-size="12" font-style="italic" lengthAdjust="spacingAndGlyphs" textLength="54" x="475" y="76.718">Component</text><line style="stroke: #383838; stroke-width: 1.5;" x1="447" x2="531" y1="89" y2="89"/><line style="stroke: #383838; stroke-width: 1.5;" x1="447" x2="531" y1="97" y2="97"/><!--class Actuator--><rect fill="#F8F8F8" filter="url(#f7orr5inwpm0m)" height="140.2852" id="Actuator" style="stroke: #383838; stroke-width: 1.5;" width="200" x="389" y="165"/><ellipse cx="460.75" cy="181" fill="#B1B1B1" rx="11" ry="11" style="stroke: #383838; stroke-width: 1.0;"/><path d="M461.7344,185.9063 L462.4688,185.9063 L462.4688,187.3594 L458.4688,187.3594 L458.4688,185.9063 L459.2031,185.9063 L459.2031,175.875 L458.4688,175.875 L458.4688,174.4219 L462.4688,174.4219 L462.4688,175.875 L461.7344,175.875 L461.7344,185.9063 Z "/><text fill="#000000" font-family="Ricty Diminished" font-size="12" font-style="italic" lengthAdjust="spacingAndGlyphs" textLength="48" x="481.25" y="184.718">Actuator</text><line style="stroke: #383838; stroke-width: 1.5;" x1="390" x2="588" y1="197" y2="197"/><line style="stroke: #383838; stroke-width: 1.5;" x1="390" x2="588" y1="205" y2="205"/><ellipse cx="400" cy="216" fill="#A6A6A6" rx="3" ry="3" style="stroke: #545454; stroke-width: 1.0;"/><text fill="#000000" font-family="Ricty Diminished" font-size="11" lengthAdjust="spacingAndGlyphs" textLength="108" x="409" y="218.1736">Delete(Component*)</text><ellipse cx="400" cy="227.5356" fill="#A6A6A6" rx="3" ry="3" style="stroke: #545454; stroke-width: 1.0;"/><text fill="#000000" font-family="Ricty Diminished" font-size="11" lengthAdjust="spacingAndGlyphs" textLength="108" x="409" y="229.7092">Id(Component): int</text><ellipse cx="400" cy="239.0713" fill="#A6A6A6" rx="3" ry="3" style="stroke: #545454; stroke-width: 1.0;"/><text fill="#000000" font-family="Ricty Diminished" font-size="11" lengthAdjust="spacingAndGlyphs" textLength="162" x="409" y="241.2449">Tag(Component): const char*</text><ellipse cx="400" cy="250.6069" fill="#A6A6A6" rx="3" ry="3" style="stroke: #545454; stroke-width: 1.0;"/><text fill="#000000" font-family="Ricty Diminished" font-size="11" lengthAdjust="spacingAndGlyphs" textLength="174" x="409" y="252.7805">State(Component): const char*</text><ellipse cx="400" cy="262.1426" fill="#A6A6A6" rx="3" ry="3" style="stroke: #545454; stroke-width: 1.0;"/><text fill="#000000" font-family="Ricty Diminished" font-size="11" lengthAdjust="spacingAndGlyphs" textLength="132" x="409" y="264.3162">IsOff(Component): bool</text><ellipse cx="400" cy="273.6782" fill="#A6A6A6" rx="3" ry="3" style="stroke: #545454; stroke-width: 1.0;"/><text fill="#000000" font-family="Ricty Diminished" font-size="11" lengthAdjust="spacingAndGlyphs" textLength="102" x="409" y="275.8518">TurnOn(Component)</text><ellipse cx="400" cy="285.2139" fill="#A6A6A6" rx="3" ry="3" style="stroke: #545454; stroke-width: 1.0;"/><text fill="#000000" font-family="Ricty Diminished" font-size="11" lengthAdjust="spacingAndGlyphs" textLength="108" x="409" y="287.3875">TurnOff(Component)</text><ellipse cx="400" cy="296.7495" fill="#A6A6A6" rx="3" ry="3" style="stroke: #545454; stroke-width: 1.0;"/><text fill="#000000" font-family="Ricty Diminished" font-size="11" lengthAdjust="spacingAndGlyphs" textLength="138" x="409" y="298.9231">ForceTurnOff(Component)</text><!--class NullActuator--><rect fill="#F8F8F8" filter="url(#f7orr5inwpm0m)" height="59.5356" id="NullActuator" style="stroke: #383838; stroke-width: 1.5;" width="170" x="62" y="428"/><ellipse cx="106.75" cy="444" fill="#C2C2C2" rx="11" ry="11" style="stroke: #383838; stroke-width: 1.0;"/><path d="M109.4531,449.4375 Q108.5313,450.3594 106.2656,450.3594 Q105,450.3594 104.0781,449.4375 Q102.4219,447.7813 102.4219,444.25 Q102.4219,440.1406 104.2031,438.3438 Q105.1406,437.4219 106.3281,437.4219 Q108.5938,437.4219 109.3281,438.1406 Q110.7188,439.5469 110.6563,441.9375 L108.1875,441.9375 Q108.125,439.8125 107.3906,439.0781 Q107,438.6719 106.3281,438.6719 Q106.3281,438.6719 106.2656,439.1406 Q104.9375,440.4688 104.9375,444.125 Q104.9375,447.3125 106.0781,448.4375 Q106.6094,448.9688 106.6094,448.9688 Q106.8594,448.9688 107.3906,448.4375 Q108.0625,447.7813 108.125,445.3906 L110.7188,445.3906 Q110.5156,448.375 109.4531,449.4375 Z "/><text fill="#000000" font-family="Ricty Diminished" font-size="12" lengthAdjust="spacingAndGlyphs" textLength="72" x="127.25" y="447.718">NullActuator</text><line style="stroke: #383838; stroke-width: 1.5;" x1="63" x2="231" y1="460" y2="460"/><line style="stroke: #383838; stroke-width: 1.5;" x1="63" x2="231" y1="468" y2="468"/><ellipse cx="73" cy="479" fill="#A6A6A6" rx="3" ry="3" style="stroke: #545454; stroke-width: 1.0;"/><text fill="#000000" font-family="Ricty Diminished" font-size="11" lengthAdjust="spacingAndGlyphs" textLength="144" x="82" y="481.1736">GetInstance(): Component</text><!--class Motor--><rect fill="#F8F8F8" filter="url(#f7orr5inwpm0m)" height="186.4277" id="Motor" style="stroke: #383838; stroke-width: 1.5;" width="242" x="368" y="365"/><ellipse cx="469.75" cy="381" fill="#B1B1B1" rx="11" ry="11" style="stroke: #383838; stroke-width: 1.0;"/><path d="M470.7344,385.9063 L471.4688,385.9063 L471.4688,387.3594 L467.4688,387.3594 L467.4688,385.9063 L468.2031,385.9063 L468.2031,375.875 L467.4688,375.875 L467.4688,374.4219 L471.4688,374.4219 L471.4688,375.875 L470.7344,375.875 L470.7344,385.9063 Z "/><text fill="#000000" font-family="Ricty Diminished" font-size="12" font-style="italic" lengthAdjust="spacingAndGlyphs" textLength="30" x="490.25" y="384.718">Motor</text><line style="stroke: #383838; stroke-width: 1.5;" x1="369" x2="609" y1="397" y2="397"/><line style="stroke: #383838; stroke-width: 1.5;" x1="369" x2="609" y1="405" y2="405"/><ellipse cx="379" cy="416" fill="#A6A6A6" rx="3" ry="3" style="stroke: #545454; stroke-width: 1.0;"/><text fill="#000000" font-family="Ricty Diminished" font-size="11" lengthAdjust="spacingAndGlyphs" textLength="108" x="388" y="418.1736">Delete(Component*)</text><ellipse cx="379" cy="427.5356" fill="#A6A6A6" rx="3" ry="3" style="stroke: #545454; stroke-width: 1.0;"/><text fill="#000000" font-family="Ricty Diminished" font-size="11" lengthAdjust="spacingAndGlyphs" textLength="108" x="388" y="429.7092">Id(Component): int</text><ellipse cx="379" cy="439.0713" fill="#A6A6A6" rx="3" ry="3" style="stroke: #545454; stroke-width: 1.0;"/><text fill="#000000" font-family="Ricty Diminished" font-size="11" lengthAdjust="spacingAndGlyphs" textLength="162" x="388" y="441.2449">Tag(Component): const char*</text><ellipse cx="379" cy="450.6069" fill="#A6A6A6" rx="3" ry="3" style="stroke: #545454; stroke-width: 1.0;"/><text fill="#000000" font-family="Ricty Diminished" font-size="11" lengthAdjust="spacingAndGlyphs" textLength="174" x="388" y="452.7805">State(Component): const char*</text><ellipse cx="379" cy="462.1426" fill="#A6A6A6" rx="3" ry="3" style="stroke: #545454; stroke-width: 1.0;"/><text fill="#000000" font-family="Ricty Diminished" font-size="11" lengthAdjust="spacingAndGlyphs" textLength="156" x="388" y="464.3162">IsStopped(Component): bool</text><ellipse cx="379" cy="473.6782" fill="#A6A6A6" rx="3" ry="3" style="stroke: #545454; stroke-width: 1.0;"/><text fill="#000000" font-family="Ricty Diminished" font-size="11" lengthAdjust="spacingAndGlyphs" textLength="84" x="388" y="475.8518">Run(Component)</text><ellipse cx="379" cy="485.2139" fill="#A6A6A6" rx="3" ry="3" style="stroke: #545454; stroke-width: 1.0;"/><text fill="#000000" font-family="Ricty Diminished" font-size="11" lengthAdjust="spacingAndGlyphs" textLength="90" x="388" y="487.3875">Stop(Component)</text><ellipse cx="379" cy="496.7495" fill="#A6A6A6" rx="3" ry="3" style="stroke: #545454; stroke-width: 1.0;"/><text fill="#000000" font-family="Ricty Diminished" font-size="11" lengthAdjust="spacingAndGlyphs" textLength="120" x="388" y="498.9231">ForceStop(Component)</text><ellipse cx="379" cy="508.2852" fill="#A6A6A6" rx="3" ry="3" style="stroke: #545454; stroke-width: 1.0;"/><text fill="#000000" font-family="Ricty Diminished" font-size="11" lengthAdjust="spacingAndGlyphs" textLength="216" x="388" y="510.4587">GetDirection(Component): const char*</text><ellipse cx="379" cy="519.8208" fill="#A6A6A6" rx="3" ry="3" style="stroke: #545454; stroke-width: 1.0;"/><text fill="#000000" font-family="Ricty Diminished" font-size="11" lengthAdjust="spacingAndGlyphs" textLength="216" x="388" y="521.9944">SetDirection(Component, const char*)</text><ellipse cx="379" cy="531.3564" fill="#A6A6A6" rx="3" ry="3" style="stroke: #545454; stroke-width: 1.0;"/><text fill="#000000" font-family="Ricty Diminished" font-size="11" lengthAdjust="spacingAndGlyphs" textLength="144" x="388" y="533.53">GetSpeed(Component): int</text><ellipse cx="379" cy="542.8921" fill="#A6A6A6" rx="3" ry="3" style="stroke: #545454; stroke-width: 1.0;"/><text fill="#000000" font-family="Ricty Diminished" font-size="11" lengthAdjust="spacingAndGlyphs" textLength="144" x="388" y="545.0657">SetSpeed(Component, int)</text><!--class NullMotor--><rect fill="#F8F8F8" filter="url(#f7orr5inwpm0m)" height="59.5356" id="NullMotor" style="stroke: #383838; stroke-width: 1.5;" width="170" x="264" y="703"/><ellipse cx="317.75" cy="719" fill="#C2C2C2" rx="11" ry="11" style="stroke: #383838; stroke-width: 1.0;"/><path d="M320.4531,724.4375 Q319.5313,725.3594 317.2656,725.3594 Q316,725.3594 315.0781,724.4375 Q313.4219,722.7813 313.4219,719.25 Q313.4219,715.1406 315.2031,713.3438 Q316.1406,712.4219 317.3281,712.4219 Q319.5938,712.4219 320.3281,713.1406 Q321.7188,714.5469 321.6563,716.9375 L319.1875,716.9375 Q319.125,714.8125 318.3906,714.0781 Q318,713.6719 317.3281,713.6719 Q317.3281,713.6719 317.2656,714.1406 Q315.9375,715.4688 315.9375,719.125 Q315.9375,722.3125 317.0781,723.4375 Q317.6094,723.9688 317.6094,723.9688 Q317.8594,723.9688 318.3906,723.4375 Q319.0625,722.7813 319.125,720.3906 L321.7188,720.3906 Q321.5156,723.375 320.4531,724.4375 Z "/><text fill="#000000" font-family="Ricty Diminished" font-size="12" lengthAdjust="spacingAndGlyphs" textLength="54" x="338.25" y="722.718">NullMotor</text><line style="stroke: #383838; stroke-width: 1.5;" x1="265" x2="433" y1="735" y2="735"/><line style="stroke: #383838; stroke-width: 1.5;" x1="265" x2="433" y1="743" y2="743"/><ellipse cx="275" cy="754" fill="#A6A6A6" rx="3" ry="3" style="stroke: #545454; stroke-width: 1.0;"/><text fill="#000000" font-family="Ricty Diminished" font-size="11" lengthAdjust="spacingAndGlyphs" textLength="144" x="284" y="756.1736">GetInstance(): Component</text><!--class PulseMotor--><rect fill="#F8F8F8" filter="url(#f7orr5inwpm0m)" height="244.106" id="PulseMotor" style="stroke: #383838; stroke-width: 1.5;" width="242" x="469" y="611"/><ellipse cx="555.75" cy="627" fill="#B1B1B1" rx="11" ry="11" style="stroke: #383838; stroke-width: 1.0;"/><path d="M556.7344,631.9063 L557.4688,631.9063 L557.4688,633.3594 L553.4688,633.3594 L553.4688,631.9063 L554.2031,631.9063 L554.2031,621.875 L553.4688,621.875 L553.4688,620.4219 L557.4688,620.4219 L557.4688,621.875 L556.7344,621.875 L556.7344,631.9063 Z "/><text fill="#000000" font-family="Ricty Diminished" font-size="12" font-style="italic" lengthAdjust="spacingAndGlyphs" textLength="60" x="576.25" y="630.718">PulseMotor</text><line style="stroke: #383838; stroke-width: 1.5;" x1="470" x2="710" y1="643" y2="643"/><line style="stroke: #383838; stroke-width: 1.5;" x1="470" x2="710" y1="651" y2="651"/><ellipse cx="480" cy="662" fill="#A6A6A6" rx="3" ry="3" style="stroke: #545454; stroke-width: 1.0;"/><text fill="#000000" font-family="Ricty Diminished" font-size="11" lengthAdjust="spacingAndGlyphs" textLength="108" x="489" y="664.1736">Delete(Component*)</text><ellipse cx="480" cy="673.5356" fill="#A6A6A6" rx="3" ry="3" style="stroke: #545454; stroke-width: 1.0;"/><text fill="#000000" font-family="Ricty Diminished" font-size="11" lengthAdjust="spacingAndGlyphs" textLength="108" x="489" y="675.7092">Id(Component): int</text><ellipse cx="480" cy="685.0713" fill="#A6A6A6" rx="3" ry="3" style="stroke: #545454; stroke-width: 1.0;"/><text fill="#000000" font-family="Ricty Diminished" font-size="11" lengthAdjust="spacingAndGlyphs" textLength="162" x="489" y="687.2449">Tag(Component): const char*</text><ellipse cx="480" cy="696.6069" fill="#A6A6A6" rx="3" ry="3" style="stroke: #545454; stroke-width: 1.0;"/><text fill="#000000" font-family="Ricty Diminished" font-size="11" lengthAdjust="spacingAndGlyphs" textLength="174" x="489" y="698.7805">State(Component): const char*</text><ellipse cx="480" cy="708.1426" fill="#A6A6A6" rx="3" ry="3" style="stroke: #545454; stroke-width: 1.0;"/><text fill="#000000" font-family="Ricty Diminished" font-size="11" lengthAdjust="spacingAndGlyphs" textLength="156" x="489" y="710.3162">IsStopped(Component): bool</text><ellipse cx="480" cy="719.6782" fill="#A6A6A6" rx="3" ry="3" style="stroke: #545454; stroke-width: 1.0;"/><text fill="#000000" font-family="Ricty Diminished" font-size="11" lengthAdjust="spacingAndGlyphs" textLength="84" x="489" y="721.8518">Run(Component)</text><ellipse cx="480" cy="731.2139" fill="#A6A6A6" rx="3" ry="3" style="stroke: #545454; stroke-width: 1.0;"/><text fill="#000000" font-family="Ricty Diminished" font-size="11" lengthAdjust="spacingAndGlyphs" textLength="90" x="489" y="733.3875">Stop(Component)</text><ellipse cx="480" cy="742.7495" fill="#A6A6A6" rx="3" ry="3" style="stroke: #545454; stroke-width: 1.0;"/><text fill="#000000" font-family="Ricty Diminished" font-size="11" lengthAdjust="spacingAndGlyphs" textLength="120" x="489" y="744.9231">ForceStop(Component)</text><ellipse cx="480" cy="754.2852" fill="#A6A6A6" rx="3" ry="3" style="stroke: #545454; stroke-width: 1.0;"/><text fill="#000000" font-family="Ricty Diminished" font-size="11" lengthAdjust="spacingAndGlyphs" textLength="216" x="489" y="756.4587">GetDirection(Component): const char*</text><ellipse cx="480" cy="765.8208" fill="#A6A6A6" rx="3" ry="3" style="stroke: #545454; stroke-width: 1.0;"/><text fill="#000000" font-family="Ricty Diminished" font-size="11" lengthAdjust="spacingAndGlyphs" textLength="216" x="489" y="767.9944">SetDirection(Component, const char*)</text><ellipse cx="480" cy="777.3564" fill="#A6A6A6" rx="3" ry="3" style="stroke: #545454; stroke-width: 1.0;"/><text fill="#000000" font-family="Ricty Diminished" font-size="11" lengthAdjust="spacingAndGlyphs" textLength="144" x="489" y="779.53">GetSpeed(Component): int</text><ellipse cx="480" cy="788.8921" fill="#A6A6A6" rx="3" ry="3" style="stroke: #545454; stroke-width: 1.0;"/><text fill="#000000" font-family="Ricty Diminished" font-size="11" lengthAdjust="spacingAndGlyphs" textLength="144" x="489" y="791.0657">SetSpeed(Component, int)</text><ellipse cx="480" cy="800.4277" fill="#A6A6A6" rx="3" ry="3" style="stroke: #545454; stroke-width: 1.0;"/><text fill="#000000" font-family="Ricty Diminished" font-size="11" lengthAdjust="spacingAndGlyphs" textLength="186" x="489" y="802.6013">GetMode(Component): const char*</text><ellipse cx="480" cy="811.9634" fill="#A6A6A6" rx="3" ry="3" style="stroke: #545454; stroke-width: 1.0;"/><text fill="#000000" font-family="Ricty Diminished" font-size="11" lengthAdjust="spacingAndGlyphs" textLength="204" x="489" y="814.137">SelectMode(Component, const char*)</text><ellipse cx="480" cy="823.499" fill="#A6A6A6" rx="3" ry="3" style="stroke: #545454; stroke-width: 1.0;"/><text fill="#000000" font-family="Ricty Diminished" font-size="11" lengthAdjust="spacingAndGlyphs" textLength="168" x="489" y="825.6726">GetPulseRate(Component): int</text><ellipse cx="480" cy="835.0347" fill="#A6A6A6" rx="3" ry="3" style="stroke: #545454; stroke-width: 1.0;"/><text fill="#000000" font-family="Ricty Diminished" font-size="11" lengthAdjust="spacingAndGlyphs" textLength="168" x="489" y="837.2083">SetPulseRate(Component, int)</text><ellipse cx="480" cy="846.5703" fill="#A6A6A6" rx="3" ry="3" style="stroke: #545454; stroke-width: 1.0;"/><text fill="#000000" font-family="Ricty Diminished" font-size="11" lengthAdjust="spacingAndGlyphs" textLength="162" x="489" y="848.7439">GetPosition(Component): int</text><!--class NullPulseMotor--><rect fill="#F8F8F8" filter="url(#f7orr5inwpm0m)" height="59.5356" id="NullPulseMotor" style="stroke: #383838; stroke-width: 1.5;" width="170" x="505" y="915"/><ellipse cx="544.3" cy="931" fill="#C2C2C2" rx="11" ry="11" style="stroke: #383838; stroke-width: 1.0;"/><path d="M547.0031,936.4375 Q546.0813,937.3594 543.8156,937.3594 Q542.55,937.3594 541.6281,936.4375 Q539.9719,934.7813 539.9719,931.25 Q539.9719,927.1406 541.7531,925.3438 Q542.6906,924.4219 543.8781,924.4219 Q546.1438,924.4219 546.8781,925.1406 Q548.2688,926.5469 548.2063,928.9375 L545.7375,928.9375 Q545.675,926.8125 544.9406,926.0781 Q544.55,925.6719 543.8781,925.6719 Q543.8781,925.6719 543.8156,926.1406 Q542.4875,927.4688 542.4875,931.125 Q542.4875,934.3125 543.6281,935.4375 Q544.1594,935.9688 544.1594,935.9688 Q544.4094,935.9688 544.9406,935.4375 Q545.6125,934.7813 545.675,932.3906 L548.2688,932.3906 Q548.0656,935.375 547.0031,936.4375 Z "/><text fill="#000000" font-family="Ricty Diminished" font-size="12" lengthAdjust="spacingAndGlyphs" textLength="84" x="563.7" y="934.718">NullPulseMotor</text><line style="stroke: #383838; stroke-width: 1.5;" x1="506" x2="674" y1="947" y2="947"/><line style="stroke: #383838; stroke-width: 1.5;" x1="506" x2="674" y1="955" y2="955"/><ellipse cx="516" cy="966" fill="#A6A6A6" rx="3" ry="3" style="stroke: #545454; stroke-width: 1.0;"/><text fill="#000000" font-family="Ricty Diminished" font-size="11" lengthAdjust="spacingAndGlyphs" textLength="144" x="525" y="968.1736">GetInstance(): Component</text><!--class Solenoid--><rect fill="#F8F8F8" filter="url(#f7orr5inwpm0m)" height="140.2852" id="Solenoid" style="stroke: #383838; stroke-width: 1.5;" width="200" x="791" y="388"/><ellipse cx="862.75" cy="404" fill="#B1B1B1" rx="11" ry="11" style="stroke: #383838; stroke-width: 1.0;"/><path d="M863.7344,408.9063 L864.4688,408.9063 L864.4688,410.3594 L860.4688,410.3594 L860.4688,408.9063 L861.2031,408.9063 L861.2031,398.875 L860.4688,398.875 L860.4688,397.4219 L864.4688,397.4219 L864.4688,398.875 L863.7344,398.875 L863.7344,408.9063 Z "/><text fill="#000000" font-family="Ricty Diminished" font-size="12" font-style="italic" lengthAdjust="spacingAndGlyphs" textLength="48" x="883.25" y="407.718">Solenoid</text><line style="stroke: #383838; stroke-width: 1.5;" x1="792" x2="990" y1="420" y2="420"/><line style="stroke: #383838; stroke-width: 1.5;" x1="792" x2="990" y1="428" y2="428"/><ellipse cx="802" cy="439" fill="#A6A6A6" rx="3" ry="3" style="stroke: #545454; stroke-width: 1.0;"/><text fill="#000000" font-family="Ricty Diminished" font-size="11" lengthAdjust="spacingAndGlyphs" textLength="108" x="811" y="441.1736">Delete(Component*)</text><ellipse cx="802" cy="450.5356" fill="#A6A6A6" rx="3" ry="3" style="stroke: #545454; stroke-width: 1.0;"/><text fill="#000000" font-family="Ricty Diminished" font-size="11" lengthAdjust="spacingAndGlyphs" textLength="108" x="811" y="452.7092">Id(Component): int</text><ellipse cx="802" cy="462.0713" fill="#A6A6A6" rx="3" ry="3" style="stroke: #545454; stroke-width: 1.0;"/><text fill="#000000" font-family="Ricty Diminished" font-size="11" lengthAdjust="spacingAndGlyphs" textLength="162" x="811" y="464.2449">Tag(Component): const char*</text><ellipse cx="802" cy="473.6069" fill="#A6A6A6" rx="3" ry="3" style="stroke: #545454; stroke-width: 1.0;"/><text fill="#000000" font-family="Ricty Diminished" font-size="11" lengthAdjust="spacingAndGlyphs" textLength="174" x="811" y="475.7805">State(Component): const char*</text><ellipse cx="802" cy="485.1426" fill="#A6A6A6" rx="3" ry="3" style="stroke: #545454; stroke-width: 1.0;"/><text fill="#000000" font-family="Ricty Diminished" font-size="11" lengthAdjust="spacingAndGlyphs" textLength="162" x="811" y="487.3162">IsUnlocked(Component): bool</text><ellipse cx="802" cy="496.6782" fill="#A6A6A6" rx="3" ry="3" style="stroke: #545454; stroke-width: 1.0;"/><text fill="#000000" font-family="Ricty Diminished" font-size="11" lengthAdjust="spacingAndGlyphs" textLength="90" x="811" y="498.8518">Lock(Component)</text><ellipse cx="802" cy="508.2139" fill="#A6A6A6" rx="3" ry="3" style="stroke: #545454; stroke-width: 1.0;"/><text fill="#000000" font-family="Ricty Diminished" font-size="11" lengthAdjust="spacingAndGlyphs" textLength="102" x="811" y="510.3875">Unlock(Component)</text><ellipse cx="802" cy="519.7495" fill="#A6A6A6" rx="3" ry="3" style="stroke: #545454; stroke-width: 1.0;"/><text fill="#000000" font-family="Ricty Diminished" font-size="11" lengthAdjust="spacingAndGlyphs" textLength="132" x="811" y="521.9231">ForceUnlock(Component)</text><!--class NullSolenoid--><rect fill="#F8F8F8" filter="url(#f7orr5inwpm0m)" height="59.5356" id="NullSolenoid" style="stroke: #383838; stroke-width: 1.5;" width="170" x="806" y="703"/><ellipse cx="850.75" cy="719" fill="#C2C2C2" rx="11" ry="11" style="stroke: #383838; stroke-width: 1.0;"/><path d="M853.4531,724.4375 Q852.5313,725.3594 850.2656,725.3594 Q849,725.3594 848.0781,724.4375 Q846.4219,722.7813 846.4219,719.25 Q846.4219,715.1406 848.2031,713.3438 Q849.1406,712.4219 850.3281,712.4219 Q852.5938,712.4219 853.3281,713.1406 Q854.7188,714.5469 854.6563,716.9375 L852.1875,716.9375 Q852.125,714.8125 851.3906,714.0781 Q851,713.6719 850.3281,713.6719 Q850.3281,713.6719 850.2656,714.1406 Q848.9375,715.4688 848.9375,719.125 Q848.9375,722.3125 850.0781,723.4375 Q850.6094,723.9688 850.6094,723.9688 Q850.8594,723.9688 851.3906,723.4375 Q852.0625,722.7813 852.125,720.3906 L854.7188,720.3906 Q854.5156,723.375 853.4531,724.4375 Z "/><text fill="#000000" font-family="Ricty Diminished" font-size="12" lengthAdjust="spacingAndGlyphs" textLength="72" x="871.25" y="722.718">NullSolenoid</text><line style="stroke: #383838; stroke-width: 1.5;" x1="807" x2="975" y1="735" y2="735"/><line style="stroke: #383838; stroke-width: 1.5;" x1="807" x2="975" y1="743" y2="743"/><ellipse cx="817" cy="754" fill="#A6A6A6" rx="3" ry="3" style="stroke: #545454; stroke-width: 1.0;"/><text fill="#000000" font-family="Ricty Diminished" font-size="11" lengthAdjust="spacingAndGlyphs" textLength="144" x="826" y="756.1736">GetInstance(): Component</text><!--reverse link PulseMotor to NullPulseMotor--><path d="M590,875.632 C590,890.186 590,903.667 590,914.743 " fill="none" id="PulseMotor&lt;-NullPulseMotor" style="stroke: #383838; stroke-width: 1.0;"/><polygon fill="none" points="583,875.246,590,855.245,597,875.245,583,875.246" style="stroke: #383838; stroke-width: 1.0;"/><!--reverse link Motor to NullMotor--><path d="M432.566,569.047 C407.632,617.667 380.311,670.943 363.919,702.909 " fill="none" id="Motor&lt;-NullMotor" style="stroke: #383838; stroke-width: 1.0;"/><polygon fill="none" points="426.442,565.647,441.798,551.045,438.9,572.035,426.442,565.647" style="stroke: #383838; stroke-width: 1.0;"/><!--reverse link Motor to PulseMotor--><path d="M530.006,569.837 C534.999,583.333 540.12,597.177 545.166,610.814 " fill="none" id="Motor&lt;-PulseMotor" style="stroke: #383838; stroke-width: 1.0; stroke-dasharray: 7.0,7.0;"/><polygon fill="none" points="523.428,572.231,523.053,551.045,536.558,567.373,523.428,572.231" style="stroke: #383838; stroke-width: 1.0;"/><!--reverse link Solenoid to NullSolenoid--><path d="M891,548.466 C891,601.869 891,666.214 891,702.79 " fill="none" id="Solenoid&lt;-NullSolenoid" style="stroke: #383838; stroke-width: 1.0;"/><polygon fill="none" points="884,548.242,891,528.242,898,548.242,884,548.242" style="stroke: #383838; stroke-width: 1.0;"/><!--reverse link Actuator to NullActuator--><path d="M369.692,264.688 C328.581,278.286 283.892,297.516 248,324 C210.089,351.974 179.612,398.024 162.406,427.93 " fill="none" id="Actuator&lt;-NullActuator" style="stroke: #383838; stroke-width: 1.0;"/><polygon fill="none" points="367.728,257.968,388.907,258.644,371.929,271.323,367.728,257.968" style="stroke: #383838; stroke-width: 1.0;"/><!--reverse link Actuator to Motor--><path d="M489,325.174 C489,338.291 489,351.825 489,364.998 " fill="none" id="Actuator&lt;-Motor" style="stroke: #383838; stroke-width: 1.0; stroke-dasharray: 7.0,7.0;"/><polygon fill="none" points="482,325.017,489,305.017,496,325.017,482,325.017" style="stroke: #383838; stroke-width: 1.0;"/><!--reverse link Actuator to Solenoid--><path d="M608.724,264.262 C655.14,278.217 707.476,297.798 751,324 C779.578,341.205 807.091,365.127 830.048,387.946 " fill="none" id="Actuator&lt;-Solenoid" style="stroke: #383838; stroke-width: 1.0; stroke-dasharray: 7.0,7.0;"/><polygon fill="none" points="606.503,270.907,589.237,258.623,610.395,257.459,606.503,270.907" style="stroke: #383838; stroke-width: 1.0;"/><!--reverse link Component to Actuator--><path d="M489,125.38 C489,137.706 489,151.446 489,164.896 " fill="none" id="Component&lt;-Actuator" style="stroke: #383838; stroke-width: 1.0; stroke-dasharray: 7.0,7.0;"/><polygon fill="none" points="482,125.086,489,105.086,496,125.085,482,125.086" style="stroke: #383838; stroke-width: 1.0;"/><!--
@startuml actuator_class_diagram
skinparam {
    defaultFontName Ricty Diminished
    monochrome true
}

package Golem {
    interface Component

    folder actuators {
        interface Actuator {
            + Delete(Component*)
            + Id(Component): int
            + Tag(Component): const char*
            + State(Component): const char*
            + IsOff(Component): bool
            + TurnOn(Component)
            + TurnOff(Component)
            + ForceTurnOff(Component)
        }

        class NullActuator {
            + GetInstance(): Component
        }

        folder motors {
            interface Motor {
                + Delete(Component*)
                + Id(Component): int
                + Tag(Component): const char*
                + State(Component): const char*
                + IsStopped(Component): bool
                + Run(Component)
                + Stop(Component)
                + ForceStop(Component)
                + GetDirection(Component): const char*
                + SetDirection(Component, const char*)
                + GetSpeed(Component): int
                + SetSpeed(Component, int)
            }

            class NullMotor {
                + GetInstance(): Component
            }

            folder pulse_motors {
                interface PulseMotor {
                    + Delete(Component*)
                    + Id(Component): int
                    + Tag(Component): const char*
                    + State(Component): const char*
                    + IsStopped(Component): bool
                    + Run(Component)
                    + Stop(Component)
                    + ForceStop(Component)
                    + GetDirection(Component): const char*
                    + SetDirection(Component, const char*)
                    + GetSpeed(Component): int
                    + SetSpeed(Component, int)
                    + GetMode(Component): const char*
                    + SelectMode(Component, const char*)
                    + GetPulseRate(Component): int
                    + SetPulseRate(Component, int)
                    + GetPosition(Component): int
                }

                class NullPulseMotor {
                    + GetInstance(): Component
                }

                PulseMotor <|- - NullPulseMotor
            }

            Motor <|- - NullMotor
            Motor <|.. PulseMotor
        }

        folder solenids {
            interface Solenoid {
                + Delete(Component*)
                + Id(Component): int
                + Tag(Component): const char*
                + State(Component): const char*
                + IsUnlocked(Component): bool
                + Lock(Component)
                + Unlock(Component)
                + ForceUnlock(Component)
            }

            class NullSolenoid {
                + GetInstance(): Component
            }

            Solenoid <|- - NullSolenoid
        }

        Actuator <|- - NullActuator
        Actuator <|.. Motor
        Actuator <|.. Solenoid
    }

    Component <|.. Actuator
}

@enduml

PlantUML version 1.2019.09(Tue Aug 27 01:19:51 JST 2019)
(GPL source distribution)
Java Runtime: Java(TM) SE Runtime Environment
JVM: Java HotSpot(TM) 64-Bit Server VM
Java Version: 1.8.0_221-b11
Operating System: Windows 10
OS Version: 10.0
Default Encoding: MS932
Language: en
Country: GB
--></g></svg>