<?xml version="1.0" encoding="UTF-8" standalone="no"?><svg xmlns="http://www.w3.org/2000/svg" xmlns:xlink="http://www.w3.org/1999/xlink" contentScriptType="application/ecmascript" contentStyleType="text/css" height="1001px" preserveAspectRatio="none" style="width:1500px;height:1001px;" version="1.1" viewBox="0 0 1500 1001" width="1500px" zoomAndPan="magnify"><defs><filter height="300%" id="fkxrfz7jwt6b5" width="300%" x="-1" y="-1"><feGaussianBlur result="blurOut" stdDeviation="2.0"/><feColorMatrix in="blurOut" result="blurOut2" type="matrix" values="0 0 0 0 0 0 0 0 0 0 0 0 0 0 0 0 0 0 .4 0"/><feOffset dx="4.0" dy="4.0" in="blurOut2" result="blurOut3"/><feBlend in="SourceGraphic" in2="blurOut3" mode="normal"/></filter></defs><g><!--cluster Golem--><polygon fill="#FFFFFF" filter="url(#fkxrfz7jwt6b5)" points="22,24,63,24,70,44.6919,1478,44.6919,1478,989,22,989,22,24" style="stroke: #000000; stroke-width: 1.5;"/><line style="stroke: #000000; stroke-width: 1.5;" x1="22" x2="70" y1="44.6919" y2="44.6919"/><text fill="#000000" font-family="Ricty Diminished" font-size="14" font-weight="bold" lengthAdjust="spacingAndGlyphs" textLength="35" x="26" y="37.6836">Golem</text><!--cluster actuators--><polygon fill="#FFFFFF" filter="url(#fkxrfz7jwt6b5)" points="46,155,115,155,122,175.6919,1454,175.6919,1454,965,46,965,46,155" style="stroke: #000000; stroke-width: 1.5;"/><line style="stroke: #000000; stroke-width: 1.5;" x1="46" x2="122" y1="175.6919" y2="175.6919"/><text fill="#000000" font-family="Ricty Diminished" font-size="14" font-weight="bold" lengthAdjust="spacingAndGlyphs" textLength="63" x="50" y="168.6836">actuators</text><!--cluster motors--><polygon fill="#FFFFFF" filter="url(#fkxrfz7jwt6b5)" points="70,355,118,355,125,375.6919,819,375.6919,819,941,70,941,70,355" style="stroke: #000000; stroke-width: 1.5;"/><line style="stroke: #000000; stroke-width: 1.5;" x1="70" x2="125" y1="375.6919" y2="375.6919"/><text fill="#000000" font-family="Ricty Diminished" font-size="14" font-weight="bold" lengthAdjust="spacingAndGlyphs" textLength="42" x="74" y="368.6836">motors</text><!--cluster pulse_motors--><polygon fill="#FFFFFF" filter="url(#fkxrfz7jwt6b5)" points="94,601,184,601,191,621.6919,795,621.6919,795,917,94,917,94,601" style="stroke: #000000; stroke-width: 1.5;"/><line style="stroke: #000000; stroke-width: 1.5;" x1="94" x2="191" y1="621.6919" y2="621.6919"/><text fill="#000000" font-family="Ricty Diminished" font-size="14" font-weight="bold" lengthAdjust="spacingAndGlyphs" textLength="84" x="98" y="614.6836">pulse_motors</text><!--cluster solenids--><polygon fill="#FFFFFF" filter="url(#fkxrfz7jwt6b5)" points="843,378,905,378,912,398.6919,1430,398.6919,1430,567,843,567,843,378" style="stroke: #000000; stroke-width: 1.5;"/><line style="stroke: #000000; stroke-width: 1.5;" x1="843" x2="912" y1="398.6919" y2="398.6919"/><text fill="#000000" font-family="Ricty Diminished" font-size="14" font-weight="bold" lengthAdjust="spacingAndGlyphs" textLength="56" x="847" y="391.6836">solenids</text><!--class Command--><rect fill="#F8F8F8" filter="url(#fkxrfz7jwt6b5)" height="71.0713" id="Command" style="stroke: #383838; stroke-width: 1.5;" width="122" x="621" y="57"/><ellipse cx="657.6" cy="73" fill="#B1B1B1" rx="11" ry="11" style="stroke: #383838; stroke-width: 1.0;"/><path d="M658.5844,77.9063 L659.3188,77.9063 L659.3188,79.3594 L655.3188,79.3594 L655.3188,77.9063 L656.0531,77.9063 L656.0531,67.875 L655.3188,67.875 L655.3188,66.4219 L659.3188,66.4219 L659.3188,67.875 L658.5844,67.875 L658.5844,77.9063 Z "/><text fill="#000000" font-family="Ricty Diminished" font-size="12" font-style="italic" lengthAdjust="spacingAndGlyphs" textLength="42" x="676.4" y="76.718">Command</text><line style="stroke: #383838; stroke-width: 1.5;" x1="622" x2="742" y1="89" y2="89"/><line style="stroke: #383838; stroke-width: 1.5;" x1="622" x2="742" y1="97" y2="97"/><ellipse cx="632" cy="108" fill="#A6A6A6" rx="3" ry="3" style="stroke: #545454; stroke-width: 1.0;"/><text fill="#000000" font-family="Ricty Diminished" font-size="11" lengthAdjust="spacingAndGlyphs" textLength="96" x="641" y="110.1736">Delete(Command*)</text><ellipse cx="632" cy="119.5356" fill="#A6A6A6" rx="3" ry="3" style="stroke: #545454; stroke-width: 1.0;"/><text fill="#000000" font-family="Ricty Diminished" font-size="11" lengthAdjust="spacingAndGlyphs" textLength="24" x="641" y="121.7092">Do()</text><!--class Actuator--><rect fill="#F8F8F8" filter="url(#fkxrfz7jwt6b5)" height="140.2852" id="Actuator" style="stroke: #383838; stroke-width: 1.5;" width="278" x="543" y="188"/><ellipse cx="653.75" cy="204" fill="#B1B1B1" rx="11" ry="11" style="stroke: #383838; stroke-width: 1.0;"/><path d="M654.7344,208.9063 L655.4688,208.9063 L655.4688,210.3594 L651.4688,210.3594 L651.4688,208.9063 L652.2031,208.9063 L652.2031,198.875 L651.4688,198.875 L651.4688,197.4219 L655.4688,197.4219 L655.4688,198.875 L654.7344,198.875 L654.7344,208.9063 Z "/><text fill="#000000" font-family="Ricty Diminished" font-size="12" font-style="italic" lengthAdjust="spacingAndGlyphs" textLength="48" x="674.25" y="207.718">Actuator</text><line style="stroke: #383838; stroke-width: 1.5;" x1="544" x2="820" y1="220" y2="220"/><line style="stroke: #383838; stroke-width: 1.5;" x1="544" x2="820" y1="228" y2="228"/><ellipse cx="554" cy="239" fill="#A6A6A6" rx="3" ry="3" style="stroke: #545454; stroke-width: 1.0;"/><text fill="#000000" font-family="Ricty Diminished" font-size="11" lengthAdjust="spacingAndGlyphs" textLength="102" x="563" y="241.1736">Delete(Actuator*)</text><ellipse cx="554" cy="250.5356" fill="#A6A6A6" rx="3" ry="3" style="stroke: #545454; stroke-width: 1.0;"/><text fill="#000000" font-family="Ricty Diminished" font-size="11" lengthAdjust="spacingAndGlyphs" textLength="216" x="563" y="252.7092">ActuatorOnCommand(Actuator): Command</text><ellipse cx="554" cy="262.0713" fill="#A6A6A6" rx="3" ry="3" style="stroke: #545454; stroke-width: 1.0;"/><text fill="#000000" font-family="Ricty Diminished" font-size="11" lengthAdjust="spacingAndGlyphs" textLength="222" x="563" y="264.2449">ActuatorOffCommand(Actuator): Command</text><ellipse cx="554" cy="273.6069" fill="#A6A6A6" rx="3" ry="3" style="stroke: #545454; stroke-width: 1.0;"/><text fill="#000000" font-family="Ricty Diminished" font-size="11" lengthAdjust="spacingAndGlyphs" textLength="252" x="563" y="275.7805">ActuatorForceOffCommand(Actuator): Command</text><ellipse cx="554" cy="285.1426" fill="#A6A6A6" rx="3" ry="3" style="stroke: #545454; stroke-width: 1.0;"/><text fill="#000000" font-family="Ricty Diminished" font-size="11" lengthAdjust="spacingAndGlyphs" textLength="120" x="563" y="287.3162">GetId(Actuator): int</text><ellipse cx="554" cy="296.6782" fill="#A6A6A6" rx="3" ry="3" style="stroke: #545454; stroke-width: 1.0;"/><text fill="#000000" font-family="Ricty Diminished" font-size="11" lengthAdjust="spacingAndGlyphs" textLength="174" x="563" y="298.8518">GetTag(Actuator): const char*</text><ellipse cx="554" cy="308.2139" fill="#A6A6A6" rx="3" ry="3" style="stroke: #545454; stroke-width: 1.0;"/><text fill="#000000" font-family="Ricty Diminished" font-size="11" lengthAdjust="spacingAndGlyphs" textLength="186" x="563" y="310.3875">GetState(Actuator): const char*</text><ellipse cx="554" cy="319.7495" fill="#A6A6A6" rx="3" ry="3" style="stroke: #545454; stroke-width: 1.0;"/><text fill="#000000" font-family="Ricty Diminished" font-size="11" lengthAdjust="spacingAndGlyphs" textLength="120" x="563" y="321.9231">IsOn(Actuator): bool</text><!--class ActuatorFactory--><rect fill="#F8F8F8" filter="url(#fkxrfz7jwt6b5)" height="71.0713" id="ActuatorFactory" style="stroke: #383838; stroke-width: 1.5;" width="242" x="856" y="222.5"/><ellipse cx="927.75" cy="238.5" fill="#B1B1B1" rx="11" ry="11" style="stroke: #383838; stroke-width: 1.0;"/><path d="M928.7344,243.4063 L929.4688,243.4063 L929.4688,244.8594 L925.4688,244.8594 L925.4688,243.4063 L926.2031,243.4063 L926.2031,233.375 L925.4688,233.375 L925.4688,231.9219 L929.4688,231.9219 L929.4688,233.375 L928.7344,233.375 L928.7344,243.4063 Z "/><text fill="#000000" font-family="Ricty Diminished" font-size="12" font-style="italic" lengthAdjust="spacingAndGlyphs" textLength="90" x="948.25" y="242.218">ActuatorFactory</text><line style="stroke: #383838; stroke-width: 1.5;" x1="857" x2="1097" y1="254.5" y2="254.5"/><line style="stroke: #383838; stroke-width: 1.5;" x1="857" x2="1097" y1="262.5" y2="262.5"/><ellipse cx="867" cy="273.5" fill="#A6A6A6" rx="3" ry="3" style="stroke: #545454; stroke-width: 1.0;"/><text fill="#000000" font-family="Ricty Diminished" font-size="11" lengthAdjust="spacingAndGlyphs" textLength="144" x="876" y="275.6736">Delete(ActuatorFactory*)</text><ellipse cx="867" cy="285.0356" fill="#A6A6A6" rx="3" ry="3" style="stroke: #545454; stroke-width: 1.0;"/><text fill="#000000" font-family="Ricty Diminished" font-size="11" lengthAdjust="spacingAndGlyphs" textLength="216" x="876" y="287.2092">Make(ActuatorFactory, int): Actuator</text><!--class Motor--><rect fill="#F8F8F8" filter="url(#fkxrfz7jwt6b5)" height="186.4277" id="Motor" style="stroke: #383838; stroke-width: 1.5;" width="242" x="246" y="388"/><ellipse cx="347.75" cy="404" fill="#B1B1B1" rx="11" ry="11" style="stroke: #383838; stroke-width: 1.0;"/><path d="M348.7344,408.9063 L349.4688,408.9063 L349.4688,410.3594 L345.4688,410.3594 L345.4688,408.9063 L346.2031,408.9063 L346.2031,398.875 L345.4688,398.875 L345.4688,397.4219 L349.4688,397.4219 L349.4688,398.875 L348.7344,398.875 L348.7344,408.9063 Z "/><text fill="#000000" font-family="Ricty Diminished" font-size="12" font-style="italic" lengthAdjust="spacingAndGlyphs" textLength="30" x="368.25" y="407.718">Motor</text><line style="stroke: #383838; stroke-width: 1.5;" x1="247" x2="487" y1="420" y2="420"/><line style="stroke: #383838; stroke-width: 1.5;" x1="247" x2="487" y1="428" y2="428"/><ellipse cx="257" cy="439" fill="#A6A6A6" rx="3" ry="3" style="stroke: #545454; stroke-width: 1.0;"/><text fill="#000000" font-family="Ricty Diminished" font-size="11" lengthAdjust="spacingAndGlyphs" textLength="84" x="266" y="441.1736">Delete(Motor*)</text><ellipse cx="257" cy="450.5356" fill="#A6A6A6" rx="3" ry="3" style="stroke: #545454; stroke-width: 1.0;"/><text fill="#000000" font-family="Ricty Diminished" font-size="11" lengthAdjust="spacingAndGlyphs" textLength="180" x="266" y="452.7092">MotorOnCommand(Motor): Command</text><ellipse cx="257" cy="462.0713" fill="#A6A6A6" rx="3" ry="3" style="stroke: #545454; stroke-width: 1.0;"/><text fill="#000000" font-family="Ricty Diminished" font-size="11" lengthAdjust="spacingAndGlyphs" textLength="186" x="266" y="464.2449">MotorOffCommand(Motor): Command</text><ellipse cx="257" cy="473.6069" fill="#A6A6A6" rx="3" ry="3" style="stroke: #545454; stroke-width: 1.0;"/><text fill="#000000" font-family="Ricty Diminished" font-size="11" lengthAdjust="spacingAndGlyphs" textLength="216" x="266" y="475.7805">MotorForceOffCommand(Motor): Command</text><ellipse cx="257" cy="485.1426" fill="#A6A6A6" rx="3" ry="3" style="stroke: #545454; stroke-width: 1.0;"/><text fill="#000000" font-family="Ricty Diminished" font-size="11" lengthAdjust="spacingAndGlyphs" textLength="102" x="266" y="487.3162">GetId(Motor): int</text><ellipse cx="257" cy="496.6782" fill="#A6A6A6" rx="3" ry="3" style="stroke: #545454; stroke-width: 1.0;"/><text fill="#000000" font-family="Ricty Diminished" font-size="11" lengthAdjust="spacingAndGlyphs" textLength="156" x="266" y="498.8518">GetTag(Motor): const char*</text><ellipse cx="257" cy="508.2139" fill="#A6A6A6" rx="3" ry="3" style="stroke: #545454; stroke-width: 1.0;"/><text fill="#000000" font-family="Ricty Diminished" font-size="11" lengthAdjust="spacingAndGlyphs" textLength="168" x="266" y="510.3875">GetState(Motor): const char*</text><ellipse cx="257" cy="519.7495" fill="#A6A6A6" rx="3" ry="3" style="stroke: #545454; stroke-width: 1.0;"/><text fill="#000000" font-family="Ricty Diminished" font-size="11" lengthAdjust="spacingAndGlyphs" textLength="102" x="266" y="521.9231">IsOn(Motor): bool</text><ellipse cx="257" cy="531.2852" fill="#A6A6A6" rx="3" ry="3" style="stroke: #545454; stroke-width: 1.0;"/><text fill="#000000" font-family="Ricty Diminished" font-size="11" lengthAdjust="spacingAndGlyphs" textLength="192" x="266" y="533.4587">GetDirection(Motor): const char*</text><ellipse cx="257" cy="542.8208" fill="#A6A6A6" rx="3" ry="3" style="stroke: #545454; stroke-width: 1.0;"/><text fill="#000000" font-family="Ricty Diminished" font-size="11" lengthAdjust="spacingAndGlyphs" textLength="192" x="266" y="544.9944">SetDirection(Motor, const char*)</text><ellipse cx="257" cy="554.3564" fill="#A6A6A6" rx="3" ry="3" style="stroke: #545454; stroke-width: 1.0;"/><text fill="#000000" font-family="Ricty Diminished" font-size="11" lengthAdjust="spacingAndGlyphs" textLength="120" x="266" y="556.53">GetSpeed(Motor): int</text><ellipse cx="257" cy="565.8921" fill="#A6A6A6" rx="3" ry="3" style="stroke: #545454; stroke-width: 1.0;"/><text fill="#000000" font-family="Ricty Diminished" font-size="11" lengthAdjust="spacingAndGlyphs" textLength="120" x="266" y="568.0657">SetSpeed(Motor, int)</text><!--class MotorFactory--><rect fill="#F8F8F8" filter="url(#fkxrfz7jwt6b5)" height="71.0713" id="MotorFactory" style="stroke: #383838; stroke-width: 1.5;" width="206" x="523" y="445.5"/><ellipse cx="585.75" cy="461.5" fill="#B1B1B1" rx="11" ry="11" style="stroke: #383838; stroke-width: 1.0;"/><path d="M586.7344,466.4063 L587.4688,466.4063 L587.4688,467.8594 L583.4688,467.8594 L583.4688,466.4063 L584.2031,466.4063 L584.2031,456.375 L583.4688,456.375 L583.4688,454.9219 L587.4688,454.9219 L587.4688,456.375 L586.7344,456.375 L586.7344,466.4063 Z "/><text fill="#000000" font-family="Ricty Diminished" font-size="12" font-style="italic" lengthAdjust="spacingAndGlyphs" textLength="72" x="606.25" y="465.218">MotorFactory</text><line style="stroke: #383838; stroke-width: 1.5;" x1="524" x2="728" y1="477.5" y2="477.5"/><line style="stroke: #383838; stroke-width: 1.5;" x1="524" x2="728" y1="485.5" y2="485.5"/><ellipse cx="534" cy="496.5" fill="#A6A6A6" rx="3" ry="3" style="stroke: #545454; stroke-width: 1.0;"/><text fill="#000000" font-family="Ricty Diminished" font-size="11" lengthAdjust="spacingAndGlyphs" textLength="126" x="543" y="498.6736">Delete(MotorFactory*)</text><ellipse cx="534" cy="508.0356" fill="#A6A6A6" rx="3" ry="3" style="stroke: #545454; stroke-width: 1.0;"/><text fill="#000000" font-family="Ricty Diminished" font-size="11" lengthAdjust="spacingAndGlyphs" textLength="180" x="543" y="510.2092">Make(MotorFactory, int): Motor</text><!--class PulseMotor--><rect fill="#F8F8F8" filter="url(#fkxrfz7jwt6b5)" height="267.1772" id="PulseMotor" style="stroke: #383838; stroke-width: 1.5;" width="368" x="110" y="634"/><ellipse cx="259.75" cy="650" fill="#B1B1B1" rx="11" ry="11" style="stroke: #383838; stroke-width: 1.0;"/><path d="M260.7344,654.9063 L261.4688,654.9063 L261.4688,656.3594 L257.4688,656.3594 L257.4688,654.9063 L258.2031,654.9063 L258.2031,644.875 L257.4688,644.875 L257.4688,643.4219 L261.4688,643.4219 L261.4688,644.875 L260.7344,644.875 L260.7344,654.9063 Z "/><text fill="#000000" font-family="Ricty Diminished" font-size="12" font-style="italic" lengthAdjust="spacingAndGlyphs" textLength="60" x="280.25" y="653.718">PulseMotor</text><line style="stroke: #383838; stroke-width: 1.5;" x1="111" x2="477" y1="666" y2="666"/><line style="stroke: #383838; stroke-width: 1.5;" x1="111" x2="477" y1="674" y2="674"/><ellipse cx="121" cy="685" fill="#A6A6A6" rx="3" ry="3" style="stroke: #545454; stroke-width: 1.0;"/><text fill="#000000" font-family="Ricty Diminished" font-size="11" lengthAdjust="spacingAndGlyphs" textLength="114" x="130" y="687.1736">Delete(PulseMotor*)</text><ellipse cx="121" cy="696.5356" fill="#A6A6A6" rx="3" ry="3" style="stroke: #545454; stroke-width: 1.0;"/><text fill="#000000" font-family="Ricty Diminished" font-size="11" lengthAdjust="spacingAndGlyphs" textLength="240" x="130" y="698.7092">PulseMotorOnCommand(PulseMotor): Command</text><ellipse cx="121" cy="708.0713" fill="#A6A6A6" rx="3" ry="3" style="stroke: #545454; stroke-width: 1.0;"/><text fill="#000000" font-family="Ricty Diminished" font-size="11" lengthAdjust="spacingAndGlyphs" textLength="246" x="130" y="710.2449">PulseMotorOffCommand(PulseMotor): Command</text><ellipse cx="121" cy="719.6069" fill="#A6A6A6" rx="3" ry="3" style="stroke: #545454; stroke-width: 1.0;"/><text fill="#000000" font-family="Ricty Diminished" font-size="11" lengthAdjust="spacingAndGlyphs" textLength="276" x="130" y="721.7805">PulseMotorForceOffCommand(PulseMotor): Command</text><ellipse cx="121" cy="731.1426" fill="#A6A6A6" rx="3" ry="3" style="stroke: #545454; stroke-width: 1.0;"/><text fill="#000000" font-family="Ricty Diminished" font-size="11" lengthAdjust="spacingAndGlyphs" textLength="132" x="130" y="733.3162">GetId(PulseMotor): int</text><ellipse cx="121" cy="742.6782" fill="#A6A6A6" rx="3" ry="3" style="stroke: #545454; stroke-width: 1.0;"/><text fill="#000000" font-family="Ricty Diminished" font-size="11" lengthAdjust="spacingAndGlyphs" textLength="186" x="130" y="744.8518">GetTag(PulseMotor): const char*</text><ellipse cx="121" cy="754.2139" fill="#A6A6A6" rx="3" ry="3" style="stroke: #545454; stroke-width: 1.0;"/><text fill="#000000" font-family="Ricty Diminished" font-size="11" lengthAdjust="spacingAndGlyphs" textLength="198" x="130" y="756.3875">GetState(PulseMotor): const char*</text><ellipse cx="121" cy="765.7495" fill="#A6A6A6" rx="3" ry="3" style="stroke: #545454; stroke-width: 1.0;"/><text fill="#000000" font-family="Ricty Diminished" font-size="11" lengthAdjust="spacingAndGlyphs" textLength="132" x="130" y="767.9231">IsOn(PulseMotor): bool</text><ellipse cx="121" cy="777.2852" fill="#A6A6A6" rx="3" ry="3" style="stroke: #545454; stroke-width: 1.0;"/><text fill="#000000" font-family="Ricty Diminished" font-size="11" lengthAdjust="spacingAndGlyphs" textLength="222" x="130" y="779.4587">GetDirection(PulseMotor): const char*</text><ellipse cx="121" cy="788.8208" fill="#A6A6A6" rx="3" ry="3" style="stroke: #545454; stroke-width: 1.0;"/><text fill="#000000" font-family="Ricty Diminished" font-size="11" lengthAdjust="spacingAndGlyphs" textLength="222" x="130" y="790.9944">SetDirection(PulseMotor, const char*)</text><ellipse cx="121" cy="800.3564" fill="#A6A6A6" rx="3" ry="3" style="stroke: #545454; stroke-width: 1.0;"/><text fill="#000000" font-family="Ricty Diminished" font-size="11" lengthAdjust="spacingAndGlyphs" textLength="150" x="130" y="802.53">GetSpeed(PulseMotor): int</text><ellipse cx="121" cy="811.8921" fill="#A6A6A6" rx="3" ry="3" style="stroke: #545454; stroke-width: 1.0;"/><text fill="#000000" font-family="Ricty Diminished" font-size="11" lengthAdjust="spacingAndGlyphs" textLength="150" x="130" y="814.0657">SetSpeed(PulseMotor, int)</text><ellipse cx="121" cy="823.4277" fill="#A6A6A6" rx="3" ry="3" style="stroke: #545454; stroke-width: 1.0;"/><text fill="#000000" font-family="Ricty Diminished" font-size="11" lengthAdjust="spacingAndGlyphs" textLength="192" x="130" y="825.6013">GetMode(PulseMotor): const char*</text><ellipse cx="121" cy="834.9634" fill="#A6A6A6" rx="3" ry="3" style="stroke: #545454; stroke-width: 1.0;"/><text fill="#000000" font-family="Ricty Diminished" font-size="11" lengthAdjust="spacingAndGlyphs" textLength="210" x="130" y="837.137">SelectMode(PulseMotor, const char*)</text><ellipse cx="121" cy="846.499" fill="#A6A6A6" rx="3" ry="3" style="stroke: #545454; stroke-width: 1.0;"/><text fill="#000000" font-family="Ricty Diminished" font-size="11" lengthAdjust="spacingAndGlyphs" textLength="174" x="130" y="848.6726">GetPulseRate(PulseMotor): int</text><ellipse cx="121" cy="858.0347" fill="#A6A6A6" rx="3" ry="3" style="stroke: #545454; stroke-width: 1.0;"/><text fill="#000000" font-family="Ricty Diminished" font-size="11" lengthAdjust="spacingAndGlyphs" textLength="174" x="130" y="860.2083">SetPulseRate(PulseMotor, int)</text><ellipse cx="121" cy="869.5703" fill="#A6A6A6" rx="3" ry="3" style="stroke: #545454; stroke-width: 1.0;"/><text fill="#000000" font-family="Ricty Diminished" font-size="11" lengthAdjust="spacingAndGlyphs" textLength="168" x="130" y="871.7439">GetPosition(PulseMotor): int</text><ellipse cx="121" cy="881.106" fill="#A6A6A6" rx="3" ry="3" style="stroke: #545454; stroke-width: 1.0;"/><text fill="#000000" font-family="Ricty Diminished" font-size="11" lengthAdjust="spacingAndGlyphs" textLength="282" x="130" y="883.2795">PulseMotorStopCommand(PulseMotor, int): Command</text><ellipse cx="121" cy="892.6416" fill="#A6A6A6" rx="3" ry="3" style="stroke: #545454; stroke-width: 1.0;"/><text fill="#000000" font-family="Ricty Diminished" font-size="11" lengthAdjust="spacingAndGlyphs" textLength="342" x="130" y="894.8152">PulseMotorWatchCommand(PulseMotor, int, Command): Command</text><!--class PulseMotorFactory--><rect fill="#F8F8F8" filter="url(#fkxrfz7jwt6b5)" height="71.0713" id="PulseMotorFactory" style="stroke: #383838; stroke-width: 1.5;" width="266" x="513" y="732"/><ellipse cx="590.75" cy="748" fill="#B1B1B1" rx="11" ry="11" style="stroke: #383838; stroke-width: 1.0;"/><path d="M591.7344,752.9063 L592.4688,752.9063 L592.4688,754.3594 L588.4688,754.3594 L588.4688,752.9063 L589.2031,752.9063 L589.2031,742.875 L588.4688,742.875 L588.4688,741.4219 L592.4688,741.4219 L592.4688,742.875 L591.7344,742.875 L591.7344,752.9063 Z "/><text fill="#000000" font-family="Ricty Diminished" font-size="12" font-style="italic" lengthAdjust="spacingAndGlyphs" textLength="102" x="611.25" y="751.718">PulseMotorFactory</text><line style="stroke: #383838; stroke-width: 1.5;" x1="514" x2="778" y1="764" y2="764"/><line style="stroke: #383838; stroke-width: 1.5;" x1="514" x2="778" y1="772" y2="772"/><ellipse cx="524" cy="783" fill="#A6A6A6" rx="3" ry="3" style="stroke: #545454; stroke-width: 1.0;"/><text fill="#000000" font-family="Ricty Diminished" font-size="11" lengthAdjust="spacingAndGlyphs" textLength="156" x="533" y="785.1736">Delete(PulseMotorFactory*)</text><ellipse cx="524" cy="794.5356" fill="#A6A6A6" rx="3" ry="3" style="stroke: #545454; stroke-width: 1.0;"/><text fill="#000000" font-family="Ricty Diminished" font-size="11" lengthAdjust="spacingAndGlyphs" textLength="240" x="533" y="796.7092">Make(PulseMotorFactory, int): PulseMotor</text><!--class Solenoid--><rect fill="#F8F8F8" filter="url(#fkxrfz7jwt6b5)" height="140.2852" id="Solenoid" style="stroke: #383838; stroke-width: 1.5;" width="278" x="859" y="411"/><ellipse cx="969.75" cy="427" fill="#B1B1B1" rx="11" ry="11" style="stroke: #383838; stroke-width: 1.0;"/><path d="M970.7344,431.9063 L971.4688,431.9063 L971.4688,433.3594 L967.4688,433.3594 L967.4688,431.9063 L968.2031,431.9063 L968.2031,421.875 L967.4688,421.875 L967.4688,420.4219 L971.4688,420.4219 L971.4688,421.875 L970.7344,421.875 L970.7344,431.9063 Z "/><text fill="#000000" font-family="Ricty Diminished" font-size="12" font-style="italic" lengthAdjust="spacingAndGlyphs" textLength="48" x="990.25" y="430.718">Solenoid</text><line style="stroke: #383838; stroke-width: 1.5;" x1="860" x2="1136" y1="443" y2="443"/><line style="stroke: #383838; stroke-width: 1.5;" x1="860" x2="1136" y1="451" y2="451"/><ellipse cx="870" cy="462" fill="#A6A6A6" rx="3" ry="3" style="stroke: #545454; stroke-width: 1.0;"/><text fill="#000000" font-family="Ricty Diminished" font-size="11" lengthAdjust="spacingAndGlyphs" textLength="102" x="879" y="464.1736">Delete(Solenoid*)</text><ellipse cx="870" cy="473.5356" fill="#A6A6A6" rx="3" ry="3" style="stroke: #545454; stroke-width: 1.0;"/><text fill="#000000" font-family="Ricty Diminished" font-size="11" lengthAdjust="spacingAndGlyphs" textLength="216" x="879" y="475.7092">SolenoidOnCommand(Solenoid): Command</text><ellipse cx="870" cy="485.0713" fill="#A6A6A6" rx="3" ry="3" style="stroke: #545454; stroke-width: 1.0;"/><text fill="#000000" font-family="Ricty Diminished" font-size="11" lengthAdjust="spacingAndGlyphs" textLength="222" x="879" y="487.2449">SolenoidOffCommand(Solenoid): Command</text><ellipse cx="870" cy="496.6069" fill="#A6A6A6" rx="3" ry="3" style="stroke: #545454; stroke-width: 1.0;"/><text fill="#000000" font-family="Ricty Diminished" font-size="11" lengthAdjust="spacingAndGlyphs" textLength="252" x="879" y="498.7805">SolenoidForceOffCommand(Solenoid): Command</text><ellipse cx="870" cy="508.1426" fill="#A6A6A6" rx="3" ry="3" style="stroke: #545454; stroke-width: 1.0;"/><text fill="#000000" font-family="Ricty Diminished" font-size="11" lengthAdjust="spacingAndGlyphs" textLength="120" x="879" y="510.3162">GetId(Solenoid): int</text><ellipse cx="870" cy="519.6782" fill="#A6A6A6" rx="3" ry="3" style="stroke: #545454; stroke-width: 1.0;"/><text fill="#000000" font-family="Ricty Diminished" font-size="11" lengthAdjust="spacingAndGlyphs" textLength="174" x="879" y="521.8518">GetTag(Solenoid): const char*</text><ellipse cx="870" cy="531.2139" fill="#A6A6A6" rx="3" ry="3" style="stroke: #545454; stroke-width: 1.0;"/><text fill="#000000" font-family="Ricty Diminished" font-size="11" lengthAdjust="spacingAndGlyphs" textLength="186" x="879" y="533.3875">GetState(Solenoid): const char*</text><ellipse cx="870" cy="542.7495" fill="#A6A6A6" rx="3" ry="3" style="stroke: #545454; stroke-width: 1.0;"/><text fill="#000000" font-family="Ricty Diminished" font-size="11" lengthAdjust="spacingAndGlyphs" textLength="120" x="879" y="544.9231">IsOn(Solenoid): bool</text><!--class SolenoidFactory--><rect fill="#F8F8F8" filter="url(#fkxrfz7jwt6b5)" height="71.0713" id="SolenoidFactory" style="stroke: #383838; stroke-width: 1.5;" width="242" x="1172" y="445.5"/><ellipse cx="1243.75" cy="461.5" fill="#B1B1B1" rx="11" ry="11" style="stroke: #383838; stroke-width: 1.0;"/><path d="M1244.7344,466.4063 L1245.4688,466.4063 L1245.4688,467.8594 L1241.4688,467.8594 L1241.4688,466.4063 L1242.2031,466.4063 L1242.2031,456.375 L1241.4688,456.375 L1241.4688,454.9219 L1245.4688,454.9219 L1245.4688,456.375 L1244.7344,456.375 L1244.7344,466.4063 Z "/><text fill="#000000" font-family="Ricty Diminished" font-size="12" font-style="italic" lengthAdjust="spacingAndGlyphs" textLength="90" x="1264.25" y="465.218">SolenoidFactory</text><line style="stroke: #383838; stroke-width: 1.5;" x1="1173" x2="1413" y1="477.5" y2="477.5"/><line style="stroke: #383838; stroke-width: 1.5;" x1="1173" x2="1413" y1="485.5" y2="485.5"/><ellipse cx="1183" cy="496.5" fill="#A6A6A6" rx="3" ry="3" style="stroke: #545454; stroke-width: 1.0;"/><text fill="#000000" font-family="Ricty Diminished" font-size="11" lengthAdjust="spacingAndGlyphs" textLength="144" x="1192" y="498.6736">Delete(SolenoidFactory*)</text><ellipse cx="1183" cy="508.0356" fill="#A6A6A6" rx="3" ry="3" style="stroke: #545454; stroke-width: 1.0;"/><text fill="#000000" font-family="Ricty Diminished" font-size="11" lengthAdjust="spacingAndGlyphs" textLength="216" x="1192" y="510.2092">Make(SolenoidFactory, int): Solenoid</text><!--reverse link PulseMotor to PulseMotorFactory--><path d="M483.405,767.5 C493.263,767.5 503.121,767.5 512.979,767.5 " fill="none" id="PulseMotor&lt;-PulseMotorFactory" style="stroke: #383838; stroke-width: 1.0;"/><polygon fill="#383838" points="478.25,767.5,487.25,771.5,483.25,767.5,487.25,763.5,478.25,767.5" style="stroke: #383838; stroke-width: 1.0;"/><!--reverse link Motor to MotorFactory--><path d="M493.309,481 C503.167,481 513.026,481 522.884,481 " fill="none" id="Motor&lt;-MotorFactory" style="stroke: #383838; stroke-width: 1.0;"/><polygon fill="#383838" points="488.153,481,497.153,485,493.153,481,497.153,477,488.153,481" style="stroke: #383838; stroke-width: 1.0;"/><!--reverse link Motor to PulseMotor--><path d="M338.288,593.899 C334.929,606.99 331.478,620.44 328.055,633.778 " fill="none" id="Motor&lt;-PulseMotor" style="stroke: #383838; stroke-width: 1.0; stroke-dasharray: 7.0,7.0;"/><polygon fill="none" points="331.548,592.002,343.299,574.369,345.108,595.481,331.548,592.002" style="stroke: #383838; stroke-width: 1.0;"/><!--reverse link Solenoid to SolenoidFactory--><path d="M1142.3,481 C1152.15,481 1162,481 1171.85,481 " fill="none" id="Solenoid&lt;-SolenoidFactory" style="stroke: #383838; stroke-width: 1.0;"/><polygon fill="#383838" points="1137.15,481,1146.15,485,1142.15,481,1146.15,477,1137.15,481" style="stroke: #383838; stroke-width: 1.0;"/><!--reverse link Actuator to Motor--><path d="M525.41,334.108 C518.749,338.297 512.249,342.6 506,347 C488.796,359.114 471.641,373.321 455.553,387.856 " fill="none" id="Actuator&lt;-Motor" style="stroke: #383838; stroke-width: 1.0; stroke-dasharray: 7.0,7.0;"/><polygon fill="none" points="522.05,327.96,542.791,323.621,529.283,339.947,522.05,327.96" style="stroke: #383838; stroke-width: 1.0;"/><!--reverse link Actuator to Solenoid--><path d="M807.911,339.404 C811.66,341.949 815.363,344.485 819,347 C848.137,367.148 879.313,389.884 907.348,410.784 " fill="none" id="Actuator&lt;-Solenoid" style="stroke: #383838; stroke-width: 1.0; stroke-dasharray: 7.0,7.0;"/><polygon fill="none" points="803.957,345.181,791.251,328.223,811.759,333.556,803.957,345.181" style="stroke: #383838; stroke-width: 1.0;"/><!--reverse link Command to Actuator--><path d="M682,148.283 C682,160.923 682,174.531 682,187.698 " fill="none" id="Command&lt;-Actuator" style="stroke: #383838; stroke-width: 1.0;"/><polygon fill="none" points="675,148.174,682,128.174,689,148.174,675,148.174" style="stroke: #383838; stroke-width: 1.0;"/><!--reverse link Actuator to ActuatorFactory--><path d="M826.297,258 C836.147,258 845.997,258 855.847,258 " fill="none" id="Actuator&lt;-ActuatorFactory" style="stroke: #383838; stroke-width: 1.0;"/><polygon fill="#383838" points="821.146,258,830.146,262,826.146,258,830.146,254,821.146,258" style="stroke: #383838; stroke-width: 1.0;"/><!--
@startuml actuator_class_diagram
skinparam {
    defaultFontName Ricty Diminished
    monochrome true
}

package Golem {
    interface Command {
        + Delete(Command*)
        + Do()
    }

    folder actuators {
        interface Actuator {
            + Delete(Actuator*)
            + ActuatorOnCommand(Actuator): Command
            + ActuatorOffCommand(Actuator): Command
            + ActuatorForceOffCommand(Actuator): Command
            + GetId(Actuator): int
            + GetTag(Actuator): const char*
            + GetState(Actuator): const char*
            + IsOn(Actuator): bool
        }

        interface ActuatorFactory {
            + Delete(ActuatorFactory*)
            + Make(ActuatorFactory, int): Actuator
        }

        folder motors {
            interface Motor {
                + Delete(Motor*)
                + MotorOnCommand(Motor): Command
                + MotorOffCommand(Motor): Command
                + MotorForceOffCommand(Motor): Command
                + GetId(Motor): int
                + GetTag(Motor): const char*
                + GetState(Motor): const char*
                + IsOn(Motor): bool
                + GetDirection(Motor): const char*
                + SetDirection(Motor, const char*)
                + GetSpeed(Motor): int
                + SetSpeed(Motor, int)
            }

            interface MotorFactory {
                + Delete(MotorFactory*)
                + Make(MotorFactory, int): Motor
            }

            folder pulse_motors {
                interface PulseMotor {
                    + Delete(PulseMotor*)
                    + PulseMotorOnCommand(PulseMotor): Command
                    + PulseMotorOffCommand(PulseMotor): Command
                    + PulseMotorForceOffCommand(PulseMotor): Command
                    + GetId(PulseMotor): int
                    + GetTag(PulseMotor): const char*
                    + GetState(PulseMotor): const char*
                    + IsOn(PulseMotor): bool
                    + GetDirection(PulseMotor): const char*
                    + SetDirection(PulseMotor, const char*)
                    + GetSpeed(PulseMotor): int
                    + SetSpeed(PulseMotor, int)
                    + GetMode(PulseMotor): const char*
                    + SelectMode(PulseMotor, const char*)
                    + GetPulseRate(PulseMotor): int
                    + SetPulseRate(PulseMotor, int)
                    + GetPosition(PulseMotor): int
                    + PulseMotorStopCommand(PulseMotor, int): Command
                    + PulseMotorWatchCommand(PulseMotor, int, Command): Command
                }

                interface PulseMotorFactory {
                    + Delete(PulseMotorFactory*)
                    + Make(PulseMotorFactory, int): PulseMotor
                }

                PulseMotor <- PulseMotorFactory
            }

            Motor <- MotorFactory
            Motor <|.. PulseMotor
        }

        folder solenids {
            interface Solenoid {
                + Delete(Solenoid*)
                + SolenoidOnCommand(Solenoid): Command
                + SolenoidOffCommand(Solenoid): Command
                + SolenoidForceOffCommand(Solenoid): Command
                + GetId(Solenoid): int
                + GetTag(Solenoid): const char*
                + GetState(Solenoid): const char*
                + IsOn(Solenoid): bool
            }

            interface SolenoidFactory {
                + Delete(SolenoidFactory*)
                + Make(SolenoidFactory, int): Solenoid
            }

            Solenoid <- SolenoidFactory
        }

        Actuator <|.. Motor
        Actuator <|.. Solenoid
    }

    Command <|- - Actuator
    Actuator <- ActuatorFactory
}
@enduml

PlantUML version 1.2019.09(Tue Aug 27 01:19:51 JST 2019)
(GPL source distribution)
Java Runtime: Java(TM) SE Runtime Environment
JVM: Java HotSpot(TM) 64-Bit Server VM
Java Version: 1.8.0_221-b11
Operating System: Windows 10
OS Version: 10.0
Default Encoding: MS932
Language: en
Country: GB
--></g></svg>