<?xml version="1.0" encoding="UTF-8" standalone="no"?><svg xmlns="http://www.w3.org/2000/svg" xmlns:xlink="http://www.w3.org/1999/xlink" contentScriptType="application/ecmascript" contentStyleType="text/css" height="317px" preserveAspectRatio="none" style="width:1396px;height:317px;" version="1.1" viewBox="0 0 1396 317" width="1396px" zoomAndPan="magnify"><defs><filter height="300%" id="fn9zsgjz7gytd" width="300%" x="-1" y="-1"><feGaussianBlur result="blurOut" stdDeviation="2.0"/><feColorMatrix in="blurOut" result="blurOut2" type="matrix" values="0 0 0 0 0 0 0 0 0 0 0 0 0 0 0 0 0 0 .4 0"/><feOffset dx="4.0" dy="4.0" in="blurOut2" result="blurOut3"/><feBlend in="SourceGraphic" in2="blurOut3" mode="normal"/></filter></defs><g><!--cluster Golem--><polygon fill="#FFFFFF" filter="url(#fn9zsgjz7gytd)" points="22,24,63,24,70,44.6919,1374,44.6919,1374,305,22,305,22,24" style="stroke: #000000; stroke-width: 1.5;"/><line style="stroke: #000000; stroke-width: 1.5;" x1="22" x2="70" y1="44.6919" y2="44.6919"/><text fill="#000000" font-family="Ricty Diminished" font-size="14" font-weight="bold" lengthAdjust="spacingAndGlyphs" textLength="35" x="26" y="37.6836">Golem</text><!--cluster commands--><polygon fill="#FFFFFF" filter="url(#fn9zsgjz7gytd)" points="46,161,108,161,115,181.6919,1079,181.6919,1079,281,46,281,46,161" style="stroke: #000000; stroke-width: 1.5;"/><line style="stroke: #000000; stroke-width: 1.5;" x1="46" x2="115" y1="181.6919" y2="181.6919"/><text fill="#000000" font-family="Ricty Diminished" font-size="14" font-weight="bold" lengthAdjust="spacingAndGlyphs" textLength="56" x="50" y="174.6836">commands</text><!--class Command--><rect fill="#F8F8F8" filter="url(#fn9zsgjz7gytd)" height="71.0713" id="Command" style="stroke: #383838; stroke-width: 1.5;" width="122" x="390" y="57"/><ellipse cx="426.6" cy="73" fill="#B1B1B1" rx="11" ry="11" style="stroke: #383838; stroke-width: 1.0;"/><path d="M427.5844,77.9063 L428.3188,77.9063 L428.3188,79.3594 L424.3188,79.3594 L424.3188,77.9063 L425.0531,77.9063 L425.0531,67.875 L424.3188,67.875 L424.3188,66.4219 L428.3188,66.4219 L428.3188,67.875 L427.5844,67.875 L427.5844,77.9063 Z "/><text fill="#000000" font-family="Ricty Diminished" font-size="12" font-style="italic" lengthAdjust="spacingAndGlyphs" textLength="42" x="445.4" y="76.718">Command</text><line style="stroke: #383838; stroke-width: 1.5;" x1="391" x2="511" y1="89" y2="89"/><line style="stroke: #383838; stroke-width: 1.5;" x1="391" x2="511" y1="97" y2="97"/><ellipse cx="401" cy="108" fill="#A6A6A6" rx="3" ry="3" style="stroke: #545454; stroke-width: 1.0;"/><text fill="#000000" font-family="Ricty Diminished" font-size="11" lengthAdjust="spacingAndGlyphs" textLength="96" x="410" y="110.1736">Delete(Command*)</text><ellipse cx="401" cy="119.5356" fill="#A6A6A6" rx="3" ry="3" style="stroke: #545454; stroke-width: 1.0;"/><text fill="#000000" font-family="Ricty Diminished" font-size="11" lengthAdjust="spacingAndGlyphs" textLength="24" x="410" y="121.7092">Do()</text><!--class ActiveObjectEngine--><rect fill="#F8F8F8" filter="url(#fn9zsgjz7gytd)" height="82.6069" id="ActiveObjectEngine" style="stroke: #383838; stroke-width: 1.5;" width="260" x="1098" y="188"/><ellipse cx="1169.75" cy="204" fill="#B1B1B1" rx="11" ry="11" style="stroke: #383838; stroke-width: 1.0;"/><path d="M1170.7344,208.9063 L1171.4688,208.9063 L1171.4688,210.3594 L1167.4688,210.3594 L1167.4688,208.9063 L1168.2031,208.9063 L1168.2031,198.875 L1167.4688,198.875 L1167.4688,197.4219 L1171.4688,197.4219 L1171.4688,198.875 L1170.7344,198.875 L1170.7344,208.9063 Z "/><text fill="#000000" font-family="Ricty Diminished" font-size="12" font-style="italic" lengthAdjust="spacingAndGlyphs" textLength="108" x="1190.25" y="207.718">ActiveObjectEngine</text><line style="stroke: #383838; stroke-width: 1.5;" x1="1099" x2="1357" y1="220" y2="220"/><line style="stroke: #383838; stroke-width: 1.5;" x1="1099" x2="1357" y1="228" y2="228"/><ellipse cx="1109" cy="239" fill="#A6A6A6" rx="3" ry="3" style="stroke: #545454; stroke-width: 1.0;"/><text fill="#000000" font-family="Ricty Diminished" font-size="11" lengthAdjust="spacingAndGlyphs" textLength="162" x="1118" y="241.1736">Delete(ActiveObjectEngine*)</text><ellipse cx="1109" cy="250.5356" fill="#A6A6A6" rx="3" ry="3" style="stroke: #545454; stroke-width: 1.0;"/><text fill="#000000" font-family="Ricty Diminished" font-size="11" lengthAdjust="spacingAndGlyphs" textLength="138" x="1118" y="252.7092">Run(ActiveObjectEngine)</text><ellipse cx="1109" cy="262.0713" fill="#A6A6A6" rx="3" ry="3" style="stroke: #545454; stroke-width: 1.0;"/><text fill="#000000" font-family="Ricty Diminished" font-size="11" lengthAdjust="spacingAndGlyphs" textLength="234" x="1118" y="264.2449">AddCommand(ActiveObjectEngine, Command)</text><!--class SleepCommand--><rect fill="#F8F8F8" filter="url(#fn9zsgjz7gytd)" height="59.5356" id="SleepCommand" style="stroke: #383838; stroke-width: 1.5;" width="302" x="761" y="199.5"/><ellipse cx="871.75" cy="215.5" fill="#C2C2C2" rx="11" ry="11" style="stroke: #383838; stroke-width: 1.0;"/><path d="M874.4531,220.9375 Q873.5313,221.8594 871.2656,221.8594 Q870,221.8594 869.0781,220.9375 Q867.4219,219.2813 867.4219,215.75 Q867.4219,211.6406 869.2031,209.8438 Q870.1406,208.9219 871.3281,208.9219 Q873.5938,208.9219 874.3281,209.6406 Q875.7188,211.0469 875.6563,213.4375 L873.1875,213.4375 Q873.125,211.3125 872.3906,210.5781 Q872,210.1719 871.3281,210.1719 Q871.3281,210.1719 871.2656,210.6406 Q869.9375,211.9688 869.9375,215.625 Q869.9375,218.8125 871.0781,219.9375 Q871.6094,220.4688 871.6094,220.4688 Q871.8594,220.4688 872.3906,219.9375 Q873.0625,219.2813 873.125,216.8906 L875.7188,216.8906 Q875.5156,219.875 874.4531,220.9375 Z "/><text fill="#000000" font-family="Ricty Diminished" font-size="12" lengthAdjust="spacingAndGlyphs" textLength="72" x="892.25" y="219.218">SleepCommand</text><line style="stroke: #383838; stroke-width: 1.5;" x1="762" x2="1062" y1="231.5" y2="231.5"/><line style="stroke: #383838; stroke-width: 1.5;" x1="762" x2="1062" y1="239.5" y2="239.5"/><ellipse cx="772" cy="250.5" fill="#A6A6A6" rx="3" ry="3" style="stroke: #545454; stroke-width: 1.0;"/><text fill="#000000" font-family="Ricty Diminished" font-size="11" lengthAdjust="spacingAndGlyphs" textLength="276" x="781" y="252.6736">New(int, ActiveObjectEngine, Command): Command</text><!--class ErrorCommand--><rect fill="#F8F8F8" filter="url(#fn9zsgjz7gytd)" height="71.0713" id="ErrorCommand" style="stroke: #383838; stroke-width: 1.5;" width="290" x="436" y="194"/><ellipse cx="540.75" cy="210" fill="#C2C2C2" rx="11" ry="11" style="stroke: #383838; stroke-width: 1.0;"/><path d="M543.4531,215.4375 Q542.5313,216.3594 540.2656,216.3594 Q539,216.3594 538.0781,215.4375 Q536.4219,213.7813 536.4219,210.25 Q536.4219,206.1406 538.2031,204.3438 Q539.1406,203.4219 540.3281,203.4219 Q542.5938,203.4219 543.3281,204.1406 Q544.7188,205.5469 544.6563,207.9375 L542.1875,207.9375 Q542.125,205.8125 541.3906,205.0781 Q541,204.6719 540.3281,204.6719 Q540.3281,204.6719 540.2656,205.1406 Q538.9375,206.4688 538.9375,210.125 Q538.9375,213.3125 540.0781,214.4375 Q540.6094,214.9688 540.6094,214.9688 Q540.8594,214.9688 541.3906,214.4375 Q542.0625,213.7813 542.125,211.3906 L544.7188,211.3906 Q544.5156,214.375 543.4531,215.4375 Z "/><text fill="#000000" font-family="Ricty Diminished" font-size="12" lengthAdjust="spacingAndGlyphs" textLength="72" x="561.25" y="213.718">ErrorCommand</text><line style="stroke: #383838; stroke-width: 1.5;" x1="437" x2="725" y1="226" y2="226"/><line style="stroke: #383838; stroke-width: 1.5;" x1="437" x2="725" y1="234" y2="234"/><ellipse cx="447" cy="245" fill="#A6A6A6" rx="3" ry="3" style="stroke: #545454; stroke-width: 1.0;"/><text fill="#000000" font-family="Ricty Diminished" font-size="11" lengthAdjust="spacingAndGlyphs" textLength="168" x="456" y="247.1736">New(NotifyDelegate): Command</text><ellipse cx="447" cy="256.5356" fill="#A6A6A6" rx="3" ry="3" style="stroke: #545454; stroke-width: 1.0;"/><text fill="#000000" font-family="Ricty Diminished" font-size="11" lengthAdjust="spacingAndGlyphs" textLength="264" x="456" y="258.7092">SetErrorInfo(Command, const char*, int, int)</text><!--class NullCommand--><rect fill="#F8F8F8" filter="url(#fn9zsgjz7gytd)" height="59.5356" id="NullCommand" style="stroke: #383838; stroke-width: 1.5;" width="158" x="243" y="199.5"/><ellipse cx="285" cy="215.5" fill="#C2C2C2" rx="11" ry="11" style="stroke: #383838; stroke-width: 1.0;"/><path d="M287.7031,220.9375 Q286.7813,221.8594 284.5156,221.8594 Q283.25,221.8594 282.3281,220.9375 Q280.6719,219.2813 280.6719,215.75 Q280.6719,211.6406 282.4531,209.8438 Q283.3906,208.9219 284.5781,208.9219 Q286.8438,208.9219 287.5781,209.6406 Q288.9688,211.0469 288.9063,213.4375 L286.4375,213.4375 Q286.375,211.3125 285.6406,210.5781 Q285.25,210.1719 284.5781,210.1719 Q284.5781,210.1719 284.5156,210.6406 Q283.1875,211.9688 283.1875,215.625 Q283.1875,218.8125 284.3281,219.9375 Q284.8594,220.4688 284.8594,220.4688 Q285.1094,220.4688 285.6406,219.9375 Q286.3125,219.2813 286.375,216.8906 L288.9688,216.8906 Q288.7656,219.875 287.7031,220.9375 Z "/><text fill="#000000" font-family="Ricty Diminished" font-size="12" lengthAdjust="spacingAndGlyphs" textLength="66" x="305" y="219.218">NullCommand</text><line style="stroke: #383838; stroke-width: 1.5;" x1="244" x2="400" y1="231.5" y2="231.5"/><line style="stroke: #383838; stroke-width: 1.5;" x1="244" x2="400" y1="239.5" y2="239.5"/><ellipse cx="254" cy="250.5" fill="#A6A6A6" rx="3" ry="3" style="stroke: #545454; stroke-width: 1.0;"/><text fill="#000000" font-family="Ricty Diminished" font-size="11" lengthAdjust="spacingAndGlyphs" textLength="132" x="263" y="252.6736">GetInstance(): Command</text><!--class CountingCommandStub--><rect fill="#F8F8F8" filter="url(#fn9zsgjz7gytd)" height="71.0713" id="CountingCommandStub" style="stroke: #383838; stroke-width: 1.5;" width="146" x="62" y="194"/><ellipse cx="77" cy="210" fill="#C2C2C2" rx="11" ry="11" style="stroke: #383838; stroke-width: 1.0;"/><path d="M79.7031,215.4375 Q78.7813,216.3594 76.5156,216.3594 Q75.25,216.3594 74.3281,215.4375 Q72.6719,213.7813 72.6719,210.25 Q72.6719,206.1406 74.4531,204.3438 Q75.3906,203.4219 76.5781,203.4219 Q78.8438,203.4219 79.5781,204.1406 Q80.9688,205.5469 80.9063,207.9375 L78.4375,207.9375 Q78.375,205.8125 77.6406,205.0781 Q77.25,204.6719 76.5781,204.6719 Q76.5781,204.6719 76.5156,205.1406 Q75.1875,206.4688 75.1875,210.125 Q75.1875,213.3125 76.3281,214.4375 Q76.8594,214.9688 76.8594,214.9688 Q77.1094,214.9688 77.6406,214.4375 Q78.3125,213.7813 78.375,211.3906 L80.9688,211.3906 Q80.7656,214.375 79.7031,215.4375 Z "/><text fill="#000000" font-family="Ricty Diminished" font-size="12" lengthAdjust="spacingAndGlyphs" textLength="114" x="91" y="213.718">CountingCommandStub</text><line style="stroke: #383838; stroke-width: 1.5;" x1="63" x2="207" y1="226" y2="226"/><line style="stroke: #383838; stroke-width: 1.5;" x1="63" x2="207" y1="234" y2="234"/><ellipse cx="73" cy="245" fill="#A6A6A6" rx="3" ry="3" style="stroke: #545454; stroke-width: 1.0;"/><text fill="#000000" font-family="Ricty Diminished" font-size="11" lengthAdjust="spacingAndGlyphs" textLength="84" x="82" y="247.1736">New(): Command</text><ellipse cx="73" cy="256.5356" fill="#A6A6A6" rx="3" ry="3" style="stroke: #545454; stroke-width: 1.0;"/><text fill="#000000" font-family="Ricty Diminished" font-size="11" lengthAdjust="spacingAndGlyphs" textLength="114" x="82" y="258.7092">Count(Command): int</text><!--reverse link Command to SleepCommand--><path d="M532.093,105 C591.613,114.631 673.944,130.455 744,153 C782.353,165.343 823.65,183.826 855.702,199.414 " fill="none" id="Command&lt;-SleepCommand" style="stroke: #383838; stroke-width: 1.0;"/><polygon fill="none" points="530.72,111.87,512.049,101.85,532.893,98.04,530.72,111.87" style="stroke: #383838; stroke-width: 1.0;"/><!--reverse link Command to ErrorCommand--><path d="M498.565,142.895 C514.851,159.807 532.714,178.357 547.635,193.852 " fill="none" id="Command&lt;-ErrorCommand" style="stroke: #383838; stroke-width: 1.0;"/><polygon fill="none" points="493.309,147.528,484.478,128.266,503.393,137.817,493.309,147.528" style="stroke: #383838; stroke-width: 1.0;"/><!--reverse link Command to NullCommand--><path d="M403.795,142.901 C385.682,161.856 365.605,182.867 349.874,199.329 " fill="none" id="Command&lt;-NullCommand" style="stroke: #383838; stroke-width: 1.0;"/><polygon fill="none" points="398.901,137.89,417.779,128.266,409.023,147.562,398.901,137.89" style="stroke: #383838; stroke-width: 1.0;"/><!--reverse link Command to CountingCommandStub--><path d="M369.848,106.125 C325.622,115.143 270.912,129.872 226,153 C205.56,163.526 185.587,179.293 169.584,193.7 " fill="none" id="Command&lt;-CountingCommandStub" style="stroke: #383838; stroke-width: 1.0;"/><polygon fill="none" points="368.712,99.215,389.673,102.317,371.352,112.964,368.712,99.215" style="stroke: #383838; stroke-width: 1.0;"/><!--link SleepCommand to ActiveObjectEngine--><path d="M1063.21,229.5 C1073.08,229.5 1082.94,229.5 1092.81,229.5 " fill="none" id="SleepCommand-&gt;ActiveObjectEngine" style="stroke: #383838; stroke-width: 1.0;"/><polygon fill="#383838" points="1097.97,229.5,1088.97,225.5,1092.97,229.5,1088.97,233.5,1097.97,229.5" style="stroke: #383838; stroke-width: 1.0;"/><!--
@startuml util_class_diagram
skinparam {
    defaultFontName Ricty Diminished
    monochrome true
}

package Golem {
    interface Command {
        + Delete(Command*)
        + Do()
    }

    interface ActiveObjectEngine {
        + Delete(ActiveObjectEngine*)
        + Run(ActiveObjectEngine)
        + AddCommand(ActiveObjectEngine, Command)
    }

    folder commands {
        class SleepCommand {
            + New(int, ActiveObjectEngine, Command): Command
        }

        class ErrorCommand {
            + New(NotifyDelegate): Command
            + SetErrorInfo(Command, const char*, int, int)
        }

        class NullCommand {
            + GetInstance(): Command
        }

        class CountingCommandStub {
            + New(): Command
            + Count(Command): int
        }
    }

    Command <|- - SleepCommand
    Command <|- - ErrorCommand
    Command <|- - NullCommand
    Command <|- - CountingCommandStub
    SleepCommand -> ActiveObjectEngine
}
@enduml

PlantUML version 1.2019.09(Tue Aug 27 01:19:51 JST 2019)
(GPL source distribution)
Java Runtime: Java(TM) SE Runtime Environment
JVM: Java HotSpot(TM) 64-Bit Server VM
Java Version: 1.8.0_221-b11
Operating System: Windows 10
OS Version: 10.0
Default Encoding: MS932
Language: en
Country: GB
--></g></svg>