<?xml version="1.0" encoding="UTF-8" standalone="no"?><svg xmlns="http://www.w3.org/2000/svg" xmlns:xlink="http://www.w3.org/1999/xlink" contentScriptType="application/ecmascript" contentStyleType="text/css" height="214px" preserveAspectRatio="none" style="width:1257px;height:214px;" version="1.1" viewBox="0 0 1257 214" width="1257px" zoomAndPan="magnify"><defs><filter height="300%" id="f1dfmssdfgklou" width="300%" x="-1" y="-1"><feGaussianBlur result="blurOut" stdDeviation="2.0"/><feColorMatrix in="blurOut" result="blurOut2" type="matrix" values="0 0 0 0 0 0 0 0 0 0 0 0 0 0 0 0 0 0 .4 0"/><feOffset dx="4.0" dy="4.0" in="blurOut2" result="blurOut3"/><feBlend in="SourceGraphic" in2="blurOut3" mode="normal"/></filter></defs><g><!--cluster Golem--><polygon fill="#FFFFFF" filter="url(#f1dfmssdfgklou)" points="22,24,63,24,70,44.6919,1235,44.6919,1235,202,22,202,22,24" style="stroke: #000000; stroke-width: 1.5;"/><line style="stroke: #000000; stroke-width: 1.5;" x1="22" x2="70" y1="44.6919" y2="44.6919"/><text fill="#000000" font-family="Ricty Diminished" font-size="14" font-weight="bold" lengthAdjust="spacingAndGlyphs" textLength="35" x="26" y="37.6836">Golem</text><!--class Component--><rect fill="#F8F8F8" filter="url(#f1dfmssdfgklou)" height="82.6069" id="Component" style="stroke: #383838; stroke-width: 1.5;" width="188" x="327" y="80"/><ellipse cx="389.75" cy="96" fill="#B1B1B1" rx="11" ry="11" style="stroke: #383838; stroke-width: 1.0;"/><path d="M390.7344,100.9063 L391.4688,100.9063 L391.4688,102.3594 L387.4688,102.3594 L387.4688,100.9063 L388.2031,100.9063 L388.2031,90.875 L387.4688,90.875 L387.4688,89.4219 L391.4688,89.4219 L391.4688,90.875 L390.7344,90.875 L390.7344,100.9063 Z "/><text fill="#000000" font-family="Ricty Diminished" font-size="12" font-style="italic" lengthAdjust="spacingAndGlyphs" textLength="54" x="410.25" y="99.718">Component</text><line style="stroke: #383838; stroke-width: 1.5;" x1="328" x2="514" y1="112" y2="112"/><line style="stroke: #383838; stroke-width: 1.5;" x1="328" x2="514" y1="120" y2="120"/><ellipse cx="338" cy="131" fill="#A6A6A6" rx="3" ry="3" style="stroke: #545454; stroke-width: 1.0;"/><text fill="#000000" font-family="Ricty Diminished" font-size="11" lengthAdjust="spacingAndGlyphs" textLength="108" x="347" y="133.1736">Delete(Component*)</text><ellipse cx="338" cy="142.5356" fill="#A6A6A6" rx="3" ry="3" style="stroke: #545454; stroke-width: 1.0;"/><text fill="#000000" font-family="Ricty Diminished" font-size="11" lengthAdjust="spacingAndGlyphs" textLength="108" x="347" y="144.7092">Id(Component): int</text><ellipse cx="338" cy="154.0713" fill="#A6A6A6" rx="3" ry="3" style="stroke: #545454; stroke-width: 1.0;"/><text fill="#000000" font-family="Ricty Diminished" font-size="11" lengthAdjust="spacingAndGlyphs" textLength="162" x="347" y="156.2449">Tag(Component): const char*</text><!--class ComponentFactory--><rect fill="#F8F8F8" filter="url(#f1dfmssdfgklou)" height="71.0713" id="ComponentFactory" style="stroke: #383838; stroke-width: 1.5;" width="254" x="38" y="86"/><ellipse cx="112.75" cy="102" fill="#B1B1B1" rx="11" ry="11" style="stroke: #383838; stroke-width: 1.0;"/><path d="M113.7344,106.9063 L114.4688,106.9063 L114.4688,108.3594 L110.4688,108.3594 L110.4688,106.9063 L111.2031,106.9063 L111.2031,96.875 L110.4688,96.875 L110.4688,95.4219 L114.4688,95.4219 L114.4688,96.875 L113.7344,96.875 L113.7344,106.9063 Z "/><text fill="#000000" font-family="Ricty Diminished" font-size="12" font-style="italic" lengthAdjust="spacingAndGlyphs" textLength="96" x="133.25" y="105.718">ComponentFactory</text><line style="stroke: #383838; stroke-width: 1.5;" x1="39" x2="291" y1="118" y2="118"/><line style="stroke: #383838; stroke-width: 1.5;" x1="39" x2="291" y1="126" y2="126"/><ellipse cx="49" cy="137" fill="#A6A6A6" rx="3" ry="3" style="stroke: #545454; stroke-width: 1.0;"/><text fill="#000000" font-family="Ricty Diminished" font-size="11" lengthAdjust="spacingAndGlyphs" textLength="150" x="58" y="139.1736">Delete(ComponentFactory*)</text><ellipse cx="49" cy="148.5356" fill="#A6A6A6" rx="3" ry="3" style="stroke: #545454; stroke-width: 1.0;"/><text fill="#000000" font-family="Ricty Diminished" font-size="11" lengthAdjust="spacingAndGlyphs" textLength="228" x="58" y="150.7092">Make(ComponentFactory, int): Component</text><!--class ComponentCommandFactory--><rect fill="#F8F8F8" filter="url(#f1dfmssdfgklou)" height="128.7495" id="ComponentCommandFactory" style="stroke: #383838; stroke-width: 1.5;" width="560" x="550" y="57"/><ellipse cx="756.75" cy="73" fill="#B1B1B1" rx="11" ry="11" style="stroke: #383838; stroke-width: 1.0;"/><path d="M757.7344,77.9063 L758.4688,77.9063 L758.4688,79.3594 L754.4688,79.3594 L754.4688,77.9063 L755.2031,77.9063 L755.2031,67.875 L754.4688,67.875 L754.4688,66.4219 L758.4688,66.4219 L758.4688,67.875 L757.7344,67.875 L757.7344,77.9063 Z "/><text fill="#000000" font-family="Ricty Diminished" font-size="12" font-style="italic" lengthAdjust="spacingAndGlyphs" textLength="138" x="777.25" y="76.718">ComponentCommandFactory</text><line style="stroke: #383838; stroke-width: 1.5;" x1="551" x2="1109" y1="89" y2="89"/><line style="stroke: #383838; stroke-width: 1.5;" x1="551" x2="1109" y1="97" y2="97"/><ellipse cx="561" cy="108" fill="#A6A6A6" rx="3" ry="3" style="stroke: #545454; stroke-width: 1.0;"/><text fill="#000000" font-family="Ricty Diminished" font-size="11" lengthAdjust="spacingAndGlyphs" textLength="192" x="570" y="110.1736">Delete(ComponentCommandFactory*)</text><ellipse cx="561" cy="119.5356" fill="#A6A6A6" rx="3" ry="3" style="stroke: #545454; stroke-width: 1.0;"/><text fill="#000000" font-family="Ricty Diminished" font-size="11" lengthAdjust="spacingAndGlyphs" textLength="396" x="570" y="121.7092">MakeActuatorOnCommand(ComponentCommandFactory, Component): Command</text><ellipse cx="561" cy="131.0713" fill="#A6A6A6" rx="3" ry="3" style="stroke: #545454; stroke-width: 1.0;"/><text fill="#000000" font-family="Ricty Diminished" font-size="11" lengthAdjust="spacingAndGlyphs" textLength="402" x="570" y="133.2449">MakeActuatorOffCommand(ComponentCommandFactory, Component): Command</text><ellipse cx="561" cy="142.6069" fill="#A6A6A6" rx="3" ry="3" style="stroke: #545454; stroke-width: 1.0;"/><text fill="#000000" font-family="Ricty Diminished" font-size="11" lengthAdjust="spacingAndGlyphs" textLength="432" x="570" y="144.7805">MakeActuatorForceOffCommand(ComponentCommandFactory, Component): Command</text><ellipse cx="561" cy="154.1426" fill="#A6A6A6" rx="3" ry="3" style="stroke: #545454; stroke-width: 1.0;"/><text fill="#000000" font-family="Ricty Diminished" font-size="11" lengthAdjust="spacingAndGlyphs" textLength="474" x="570" y="156.3162">MMakePulseMotorStopCommandake(ComponentCommandFactory, Component, int): Command</text><ellipse cx="561" cy="165.6782" fill="#A6A6A6" rx="3" ry="3" style="stroke: #545454; stroke-width: 1.0;"/><text fill="#000000" font-family="Ricty Diminished" font-size="11" lengthAdjust="spacingAndGlyphs" textLength="510" x="570" y="167.8518">MakePulseMotorWatchCommand(ComponentCommandFactory, Component, int, Command): Command</text><ellipse cx="561" cy="177.2139" fill="#A6A6A6" rx="3" ry="3" style="stroke: #545454; stroke-width: 1.0;"/><text fill="#000000" font-family="Ricty Diminished" font-size="11" lengthAdjust="spacingAndGlyphs" textLength="534" x="570" y="179.3875">MakeSensorWatchCommand(ComponentCommandFactory, Component, const char*, Command): Command</text><!--class Command--><rect fill="#F8F8F8" filter="url(#f1dfmssdfgklou)" height="48" id="Command" style="stroke: #383838; stroke-width: 1.5;" width="74" x="1145" y="97.5"/><ellipse cx="1160" cy="113.5" fill="#B1B1B1" rx="11" ry="11" style="stroke: #383838; stroke-width: 1.0;"/><path d="M1160.9844,118.4063 L1161.7188,118.4063 L1161.7188,119.8594 L1157.7188,119.8594 L1157.7188,118.4063 L1158.4531,118.4063 L1158.4531,108.375 L1157.7188,108.375 L1157.7188,106.9219 L1161.7188,106.9219 L1161.7188,108.375 L1160.9844,108.375 L1160.9844,118.4063 Z "/><text fill="#000000" font-family="Ricty Diminished" font-size="12" font-style="italic" lengthAdjust="spacingAndGlyphs" textLength="42" x="1174" y="117.218">Command</text><line style="stroke: #383838; stroke-width: 1.5;" x1="1146" x2="1218" y1="129.5" y2="129.5"/><line style="stroke: #383838; stroke-width: 1.5;" x1="1146" x2="1218" y1="137.5" y2="137.5"/><!--link ComponentCommandFactory to Command--><path d="M1110.16,121.5 C1120.03,121.5 1129.91,121.5 1139.79,121.5 " fill="none" id="ComponentCommandFactory-&gt;Command" style="stroke: #383838; stroke-width: 1.0;"/><polygon fill="#383838" points="1144.96,121.5,1135.96,117.5,1139.96,121.5,1135.96,125.5,1144.96,121.5" style="stroke: #383838; stroke-width: 1.0;"/><!--reverse link Component to ComponentCommandFactory--><path d="M520.417,121.5 C530.276,121.5 540.135,121.5 549.994,121.5 " fill="none" id="Component&lt;-ComponentCommandFactory" style="stroke: #383838; stroke-width: 1.0;"/><polygon fill="#383838" points="515.262,121.5,524.262,125.5,520.262,121.5,524.262,117.5,515.262,121.5" style="stroke: #383838; stroke-width: 1.0;"/><!--
@startuml component_class_diagram
skinparam {
    defaultFontName Ricty Diminished
    monochrome true
}

package Golem {
        interface Component {
            + Delete(Component*)
            + Id(Component): int
            + Tag(Component): const char*
        }

        interface ComponentFactory {
            + Delete(ComponentFactory*)
            + Make(ComponentFactory, int): Component
        }

        interface ComponentCommandFactory {
            + Delete(ComponentCommandFactory*)
            + MakeActuatorOnCommand(ComponentCommandFactory, Component): Command
            + MakeActuatorOffCommand(ComponentCommandFactory, Component): Command
            + MakeActuatorForceOffCommand(ComponentCommandFactory, Component): Command
            + MMakePulseMotorStopCommandake(ComponentCommandFactory, Component, int): Command
            + MakePulseMotorWatchCommand(ComponentCommandFactory, Component, int, Command): Command
            + MakeSensorWatchCommand(ComponentCommandFactory, Component, const char*, Command): Command
        }

        interface Command

        ComponentCommandFactory -> Command
        ComponentCommandFactory -l-> Component
}
@enduml

PlantUML version 1.2019.09(Tue Aug 27 01:19:51 JST 2019)
(GPL source distribution)
Java Runtime: Java(TM) SE Runtime Environment
JVM: Java HotSpot(TM) 64-Bit Server VM
Java Version: 1.8.0_221-b11
Operating System: Windows 10
OS Version: 10.0
Default Encoding: MS932
Language: en
Country: GB
--></g></svg>