<?xml version="1.0" encoding="UTF-8" standalone="no"?><svg xmlns="http://www.w3.org/2000/svg" xmlns:xlink="http://www.w3.org/1999/xlink" contentScriptType="application/ecmascript" contentStyleType="text/css" height="214px" preserveAspectRatio="none" style="width:1335px;height:214px;" version="1.1" viewBox="0 0 1335 214" width="1335px" zoomAndPan="magnify"><defs><filter height="300%" id="for5c7l9nm14n" width="300%" x="-1" y="-1"><feGaussianBlur result="blurOut" stdDeviation="2.0"/><feColorMatrix in="blurOut" result="blurOut2" type="matrix" values="0 0 0 0 0 0 0 0 0 0 0 0 0 0 0 0 0 0 .4 0"/><feOffset dx="4.0" dy="4.0" in="blurOut2" result="blurOut3"/><feBlend in="SourceGraphic" in2="blurOut3" mode="normal"/></filter></defs><g><!--cluster Golem--><polygon fill="#FFFFFF" filter="url(#for5c7l9nm14n)" points="22,24,63,24,70,44.6919,1313,44.6919,1313,202,22,202,22,24" style="stroke: #000000; stroke-width: 1.5;"/><line style="stroke: #000000; stroke-width: 1.5;" x1="22" x2="70" y1="44.6919" y2="44.6919"/><text fill="#000000" font-family="Ricty Diminished" font-size="14" font-weight="bold" lengthAdjust="spacingAndGlyphs" textLength="35" x="26" y="37.6836">Golem</text><!--class Component--><rect fill="#F8F8F8" filter="url(#for5c7l9nm14n)" height="82.6069" id="Component" style="stroke: #383838; stroke-width: 1.5;" width="188" x="405" y="80"/><ellipse cx="467.75" cy="96" fill="#B1B1B1" rx="11" ry="11" style="stroke: #383838; stroke-width: 1.0;"/><path d="M468.7344,100.9063 L469.4688,100.9063 L469.4688,102.3594 L465.4688,102.3594 L465.4688,100.9063 L466.2031,100.9063 L466.2031,90.875 L465.4688,90.875 L465.4688,89.4219 L469.4688,89.4219 L469.4688,90.875 L468.7344,90.875 L468.7344,100.9063 Z "/><text fill="#000000" font-family="Ricty Diminished" font-size="12" font-style="italic" lengthAdjust="spacingAndGlyphs" textLength="54" x="488.25" y="99.718">Component</text><line style="stroke: #383838; stroke-width: 1.5;" x1="406" x2="592" y1="112" y2="112"/><line style="stroke: #383838; stroke-width: 1.5;" x1="406" x2="592" y1="120" y2="120"/><ellipse cx="416" cy="131" fill="#A6A6A6" rx="3" ry="3" style="stroke: #545454; stroke-width: 1.0;"/><text fill="#000000" font-family="Ricty Diminished" font-size="11" lengthAdjust="spacingAndGlyphs" textLength="108" x="425" y="133.1736">Delete(Component*)</text><ellipse cx="416" cy="142.5356" fill="#A6A6A6" rx="3" ry="3" style="stroke: #545454; stroke-width: 1.0;"/><text fill="#000000" font-family="Ricty Diminished" font-size="11" lengthAdjust="spacingAndGlyphs" textLength="108" x="425" y="144.7092">Id(Component): int</text><ellipse cx="416" cy="154.0713" fill="#A6A6A6" rx="3" ry="3" style="stroke: #545454; stroke-width: 1.0;"/><text fill="#000000" font-family="Ricty Diminished" font-size="11" lengthAdjust="spacingAndGlyphs" textLength="162" x="425" y="156.2449">Tag(Component): const char*</text><!--class ComponentFactory--><rect fill="#F8F8F8" filter="url(#for5c7l9nm14n)" height="71.0713" id="ComponentFactory" style="stroke: #383838; stroke-width: 1.5;" width="332" x="38" y="86"/><ellipse cx="151.75" cy="102" fill="#B1B1B1" rx="11" ry="11" style="stroke: #383838; stroke-width: 1.0;"/><path d="M152.7344,106.9063 L153.4688,106.9063 L153.4688,108.3594 L149.4688,108.3594 L149.4688,106.9063 L150.2031,106.9063 L150.2031,96.875 L149.4688,96.875 L149.4688,95.4219 L153.4688,95.4219 L153.4688,96.875 L152.7344,96.875 L152.7344,106.9063 Z "/><text fill="#000000" font-family="Ricty Diminished" font-size="12" font-style="italic" lengthAdjust="spacingAndGlyphs" textLength="96" x="172.25" y="105.718">ComponentFactory</text><line style="stroke: #383838; stroke-width: 1.5;" x1="39" x2="369" y1="118" y2="118"/><line style="stroke: #383838; stroke-width: 1.5;" x1="39" x2="369" y1="126" y2="126"/><ellipse cx="49" cy="137" fill="#A6A6A6" rx="3" ry="3" style="stroke: #545454; stroke-width: 1.0;"/><text fill="#000000" font-family="Ricty Diminished" font-size="11" lengthAdjust="spacingAndGlyphs" textLength="150" x="58" y="139.1736">Delete(ComponentFactory*)</text><ellipse cx="49" cy="148.5356" fill="#A6A6A6" rx="3" ry="3" style="stroke: #545454; stroke-width: 1.0;"/><text fill="#000000" font-family="Ricty Diminished" font-size="11" lengthAdjust="spacingAndGlyphs" textLength="306" x="58" y="150.7092">Make(ComponentFactory, const char*, int): Component</text><!--class ComponentCommandFactory--><rect fill="#F8F8F8" filter="url(#for5c7l9nm14n)" height="128.7495" id="ComponentCommandFactory" style="stroke: #383838; stroke-width: 1.5;" width="560" x="628" y="57"/><ellipse cx="834.75" cy="73" fill="#B1B1B1" rx="11" ry="11" style="stroke: #383838; stroke-width: 1.0;"/><path d="M835.7344,77.9063 L836.4688,77.9063 L836.4688,79.3594 L832.4688,79.3594 L832.4688,77.9063 L833.2031,77.9063 L833.2031,67.875 L832.4688,67.875 L832.4688,66.4219 L836.4688,66.4219 L836.4688,67.875 L835.7344,67.875 L835.7344,77.9063 Z "/><text fill="#000000" font-family="Ricty Diminished" font-size="12" font-style="italic" lengthAdjust="spacingAndGlyphs" textLength="138" x="855.25" y="76.718">ComponentCommandFactory</text><line style="stroke: #383838; stroke-width: 1.5;" x1="629" x2="1187" y1="89" y2="89"/><line style="stroke: #383838; stroke-width: 1.5;" x1="629" x2="1187" y1="97" y2="97"/><ellipse cx="639" cy="108" fill="#A6A6A6" rx="3" ry="3" style="stroke: #545454; stroke-width: 1.0;"/><text fill="#000000" font-family="Ricty Diminished" font-size="11" lengthAdjust="spacingAndGlyphs" textLength="192" x="648" y="110.1736">Delete(ComponentCommandFactory*)</text><ellipse cx="639" cy="119.5356" fill="#A6A6A6" rx="3" ry="3" style="stroke: #545454; stroke-width: 1.0;"/><text fill="#000000" font-family="Ricty Diminished" font-size="11" lengthAdjust="spacingAndGlyphs" textLength="450" x="648" y="121.7092">MakeActuatorOnCommand(ComponentCommandFactory, Component, Command): Command</text><ellipse cx="639" cy="131.0713" fill="#A6A6A6" rx="3" ry="3" style="stroke: #545454; stroke-width: 1.0;"/><text fill="#000000" font-family="Ricty Diminished" font-size="11" lengthAdjust="spacingAndGlyphs" textLength="456" x="648" y="133.2449">MakeActuatorOffCommand(ComponentCommandFactory, Component, Command): Command</text><ellipse cx="639" cy="142.6069" fill="#A6A6A6" rx="3" ry="3" style="stroke: #545454; stroke-width: 1.0;"/><text fill="#000000" font-family="Ricty Diminished" font-size="11" lengthAdjust="spacingAndGlyphs" textLength="486" x="648" y="144.7805">MakeActuatorForceOffCommand(ComponentCommandFactory, Component, Command): Command</text><ellipse cx="639" cy="154.1426" fill="#A6A6A6" rx="3" ry="3" style="stroke: #545454; stroke-width: 1.0;"/><text fill="#000000" font-family="Ricty Diminished" font-size="11" lengthAdjust="spacingAndGlyphs" textLength="528" x="648" y="156.3162">MMakePulseMotorStopCommandake(ComponentCommandFactory, Component, int, Command): Command</text><ellipse cx="639" cy="165.6782" fill="#A6A6A6" rx="3" ry="3" style="stroke: #545454; stroke-width: 1.0;"/><text fill="#000000" font-family="Ricty Diminished" font-size="11" lengthAdjust="spacingAndGlyphs" textLength="510" x="648" y="167.8518">MakePulseMotorWatchCommand(ComponentCommandFactory, Component, int, Command): Command</text><ellipse cx="639" cy="177.2139" fill="#A6A6A6" rx="3" ry="3" style="stroke: #545454; stroke-width: 1.0;"/><text fill="#000000" font-family="Ricty Diminished" font-size="11" lengthAdjust="spacingAndGlyphs" textLength="534" x="648" y="179.3875">MakeSensorWatchCommand(ComponentCommandFactory, Component, const char*, Command): Command</text><!--class Command--><rect fill="#F8F8F8" filter="url(#for5c7l9nm14n)" height="48" id="Command" style="stroke: #383838; stroke-width: 1.5;" width="74" x="1223" y="97.5"/><ellipse cx="1238" cy="113.5" fill="#B1B1B1" rx="11" ry="11" style="stroke: #383838; stroke-width: 1.0;"/><path d="M1238.9844,118.4063 L1239.7188,118.4063 L1239.7188,119.8594 L1235.7188,119.8594 L1235.7188,118.4063 L1236.4531,118.4063 L1236.4531,108.375 L1235.7188,108.375 L1235.7188,106.9219 L1239.7188,106.9219 L1239.7188,108.375 L1238.9844,108.375 L1238.9844,118.4063 Z "/><text fill="#000000" font-family="Ricty Diminished" font-size="12" font-style="italic" lengthAdjust="spacingAndGlyphs" textLength="42" x="1252" y="117.218">Command</text><line style="stroke: #383838; stroke-width: 1.5;" x1="1224" x2="1296" y1="129.5" y2="129.5"/><line style="stroke: #383838; stroke-width: 1.5;" x1="1224" x2="1296" y1="137.5" y2="137.5"/><!--link ComponentCommandFactory to Command--><path d="M1188.16,121.5 C1198.03,121.5 1207.91,121.5 1217.79,121.5 " fill="none" id="ComponentCommandFactory-&gt;Command" style="stroke: #383838; stroke-width: 1.0;"/><polygon fill="#383838" points="1222.96,121.5,1213.96,117.5,1217.96,121.5,1213.96,125.5,1222.96,121.5" style="stroke: #383838; stroke-width: 1.0;"/><!--reverse link Component to ComponentCommandFactory--><path d="M598.417,121.5 C608.276,121.5 618.135,121.5 627.994,121.5 " fill="none" id="Component&lt;-ComponentCommandFactory" style="stroke: #383838; stroke-width: 1.0;"/><polygon fill="#383838" points="593.262,121.5,602.262,125.5,598.262,121.5,602.262,117.5,593.262,121.5" style="stroke: #383838; stroke-width: 1.0;"/><!--
@startuml component_class_diagram
skinparam {
    defaultFontName Ricty Diminished
    monochrome true
}

package Golem {
        interface Component {
            + Delete(Component*)
            + Id(Component): int
            + Tag(Component): const char*
        }

        interface ComponentFactory {
            + Delete(ComponentFactory*)
            + Make(ComponentFactory, const char*, int): Component
        }

        interface ComponentCommandFactory {
            + Delete(ComponentCommandFactory*)
            + MakeActuatorOnCommand(ComponentCommandFactory, Component, Command): Command
            + MakeActuatorOffCommand(ComponentCommandFactory, Component, Command): Command
            + MakeActuatorForceOffCommand(ComponentCommandFactory, Component, Command): Command
            + MMakePulseMotorStopCommandake(ComponentCommandFactory, Component, int, Command): Command
            + MakePulseMotorWatchCommand(ComponentCommandFactory, Component, int, Command): Command
            + MakeSensorWatchCommand(ComponentCommandFactory, Component, const char*, Command): Command
        }

        interface Command

        ComponentCommandFactory -> Command
        ComponentCommandFactory -l-> Component
}
@enduml

PlantUML version 1.2019.09(Tue Aug 27 01:19:51 JST 2019)
(GPL source distribution)
Java Runtime: Java(TM) SE Runtime Environment
JVM: Java HotSpot(TM) 64-Bit Server VM
Java Version: 1.8.0_221-b11
Operating System: Windows 10
OS Version: 10.0
Default Encoding: MS932
Language: en
Country: GB
--></g></svg>