<?xml version="1.0" encoding="UTF-8" standalone="no"?><svg xmlns="http://www.w3.org/2000/svg" xmlns:xlink="http://www.w3.org/1999/xlink" contentScriptType="application/ecmascript" contentStyleType="text/css" height="168px" preserveAspectRatio="none" style="width:631px;height:168px;" version="1.1" viewBox="0 0 631 168" width="631px" zoomAndPan="magnify"><defs><filter height="300%" id="fmywnb2weymkn" width="300%" x="-1" y="-1"><feGaussianBlur result="blurOut" stdDeviation="2.0"/><feColorMatrix in="blurOut" result="blurOut2" type="matrix" values="0 0 0 0 0 0 0 0 0 0 0 0 0 0 0 0 0 0 .4 0"/><feOffset dx="4.0" dy="4.0" in="blurOut2" result="blurOut3"/><feBlend in="SourceGraphic" in2="blurOut3" mode="normal"/></filter></defs><g><!--cluster Golem--><polygon fill="#FFFFFF" filter="url(#fmywnb2weymkn)" points="22,24,63,24,70,44.6919,609,44.6919,609,156,22,156,22,24" style="stroke: #000000; stroke-width: 1.5;"/><line style="stroke: #000000; stroke-width: 1.5;" x1="22" x2="70" y1="44.6919" y2="44.6919"/><text fill="#000000" font-family="Ricty Diminished" font-size="14" font-weight="bold" lengthAdjust="spacingAndGlyphs" textLength="35" x="26" y="37.6836">Golem</text><!--class Component--><rect fill="#F8F8F8" filter="url(#fmywnb2weymkn)" height="82.6069" id="Component" style="stroke: #383838; stroke-width: 1.5;" width="188" x="405" y="57"/><ellipse cx="467.75" cy="73" fill="#B1B1B1" rx="11" ry="11" style="stroke: #383838; stroke-width: 1.0;"/><path d="M468.7344,77.9063 L469.4688,77.9063 L469.4688,79.3594 L465.4688,79.3594 L465.4688,77.9063 L466.2031,77.9063 L466.2031,67.875 L465.4688,67.875 L465.4688,66.4219 L469.4688,66.4219 L469.4688,67.875 L468.7344,67.875 L468.7344,77.9063 Z "/><text fill="#000000" font-family="Ricty Diminished" font-size="12" font-style="italic" lengthAdjust="spacingAndGlyphs" textLength="54" x="488.25" y="76.718">Component</text><line style="stroke: #383838; stroke-width: 1.5;" x1="406" x2="592" y1="89" y2="89"/><line style="stroke: #383838; stroke-width: 1.5;" x1="406" x2="592" y1="97" y2="97"/><ellipse cx="416" cy="108" fill="#A6A6A6" rx="3" ry="3" style="stroke: #545454; stroke-width: 1.0;"/><text fill="#000000" font-family="Ricty Diminished" font-size="11" lengthAdjust="spacingAndGlyphs" textLength="108" x="425" y="110.1736">Delete(Component*)</text><ellipse cx="416" cy="119.5356" fill="#A6A6A6" rx="3" ry="3" style="stroke: #545454; stroke-width: 1.0;"/><text fill="#000000" font-family="Ricty Diminished" font-size="11" lengthAdjust="spacingAndGlyphs" textLength="108" x="425" y="121.7092">Id(Component): int</text><ellipse cx="416" cy="131.0713" fill="#A6A6A6" rx="3" ry="3" style="stroke: #545454; stroke-width: 1.0;"/><text fill="#000000" font-family="Ricty Diminished" font-size="11" lengthAdjust="spacingAndGlyphs" textLength="162" x="425" y="133.2449">Tag(Component): const char*</text><!--class ComponentFactory--><rect fill="#F8F8F8" filter="url(#fmywnb2weymkn)" height="71.0713" id="ComponentFactory" style="stroke: #383838; stroke-width: 1.5;" width="332" x="38" y="63"/><ellipse cx="151.75" cy="79" fill="#B1B1B1" rx="11" ry="11" style="stroke: #383838; stroke-width: 1.0;"/><path d="M152.7344,83.9063 L153.4688,83.9063 L153.4688,85.3594 L149.4688,85.3594 L149.4688,83.9063 L150.2031,83.9063 L150.2031,73.875 L149.4688,73.875 L149.4688,72.4219 L153.4688,72.4219 L153.4688,73.875 L152.7344,73.875 L152.7344,83.9063 Z "/><text fill="#000000" font-family="Ricty Diminished" font-size="12" font-style="italic" lengthAdjust="spacingAndGlyphs" textLength="96" x="172.25" y="82.718">ComponentFactory</text><line style="stroke: #383838; stroke-width: 1.5;" x1="39" x2="369" y1="95" y2="95"/><line style="stroke: #383838; stroke-width: 1.5;" x1="39" x2="369" y1="103" y2="103"/><ellipse cx="49" cy="114" fill="#A6A6A6" rx="3" ry="3" style="stroke: #545454; stroke-width: 1.0;"/><text fill="#000000" font-family="Ricty Diminished" font-size="11" lengthAdjust="spacingAndGlyphs" textLength="150" x="58" y="116.1736">Delete(ComponentFactory*)</text><ellipse cx="49" cy="125.5356" fill="#A6A6A6" rx="3" ry="3" style="stroke: #545454; stroke-width: 1.0;"/><text fill="#000000" font-family="Ricty Diminished" font-size="11" lengthAdjust="spacingAndGlyphs" textLength="306" x="58" y="127.7092">Make(ComponentFactory, const char*, int): Component</text><!--
@startuml component_class_diagram
skinparam {
    defaultFontName Ricty Diminished
    monochrome true
}

package Golem {
        interface Component {
            + Delete(Component*)
            + Id(Component): int
            + Tag(Component): const char*
        }

        interface ComponentFactory {
            + Delete(ComponentFactory*)
            + Make(ComponentFactory, const char*, int): Component
        }
}
@enduml

PlantUML version 1.2019.09(Tue Aug 27 01:19:51 JST 2019)
(GPL source distribution)
Java Runtime: Java(TM) SE Runtime Environment
JVM: Java HotSpot(TM) 64-Bit Server VM
Java Version: 1.8.0_221-b11
Operating System: Windows 10
OS Version: 10.0
Default Encoding: MS932
Language: en
Country: GB
--></g></svg>