<?xml version="1.0" encoding="UTF-8" standalone="no"?><svg xmlns="http://www.w3.org/2000/svg" xmlns:xlink="http://www.w3.org/1999/xlink" contentScriptType="application/ecmascript" contentStyleType="text/css" height="825px" preserveAspectRatio="none" style="width:1452px;height:825px;" version="1.1" viewBox="0 0 1452 825" width="1452px" zoomAndPan="magnify"><defs><filter height="300%" id="fohddsjyrft0b" width="300%" x="-1" y="-1"><feGaussianBlur result="blurOut" stdDeviation="2.0"/><feColorMatrix in="blurOut" result="blurOut2" type="matrix" values="0 0 0 0 0 0 0 0 0 0 0 0 0 0 0 0 0 0 .4 0"/><feOffset dx="4.0" dy="4.0" in="blurOut2" result="blurOut3"/><feBlend in="SourceGraphic" in2="blurOut3" mode="normal"/></filter></defs><g><!--cluster Golem--><polygon fill="#FFFFFF" filter="url(#fohddsjyrft0b)" points="22,24.5,63,24.5,70,45.1919,1430,45.1919,1430,813,22,813,22,24.5" style="stroke: #000000; stroke-width: 1.5;"/><line style="stroke: #000000; stroke-width: 1.5;" x1="22" x2="70" y1="45.1919" y2="45.1919"/><text fill="#000000" font-family="Ricty Diminished" font-size="14" font-weight="bold" lengthAdjust="spacingAndGlyphs" textLength="35" x="26" y="38.1836">Golem</text><!--cluster displays--><polygon fill="#FFFFFF" filter="url(#fohddsjyrft0b)" points="46,132.5,108,132.5,115,153.1919,1406,153.1919,1406,789,46,789,46,132.5" style="stroke: #000000; stroke-width: 1.5;"/><line style="stroke: #000000; stroke-width: 1.5;" x1="46" x2="115" y1="153.1919" y2="153.1919"/><text fill="#000000" font-family="Ricty Diminished" font-size="14" font-weight="bold" lengthAdjust="spacingAndGlyphs" textLength="56" x="50" y="146.1836">displays</text><!--cluster leds--><polygon fill="#FFFFFF" filter="url(#fohddsjyrft0b)" points="70,298.5,104,298.5,111,319.1919,639,319.1919,639,765,70,765,70,298.5" style="stroke: #000000; stroke-width: 1.5;"/><line style="stroke: #000000; stroke-width: 1.5;" x1="70" x2="111" y1="319.1919" y2="319.1919"/><text fill="#000000" font-family="Ricty Diminished" font-size="14" font-weight="bold" lengthAdjust="spacingAndGlyphs" textLength="28" x="74" y="312.1836">leds</text><!--cluster led_arrays--><polygon fill="#FFFFFF" filter="url(#fohddsjyrft0b)" points="94,506,170,506,177,526.6919,615,526.6919,615,741,94,741,94,506" style="stroke: #000000; stroke-width: 1.5;"/><line style="stroke: #000000; stroke-width: 1.5;" x1="94" x2="177" y1="526.6919" y2="526.6919"/><text fill="#000000" font-family="Ricty Diminished" font-size="14" font-weight="bold" lengthAdjust="spacingAndGlyphs" textLength="70" x="98" y="519.6836">led_arrays</text><!--cluster seven_segment_displays--><polygon fill="#FFFFFF" filter="url(#fohddsjyrft0b)" points="663,304,823,304,830,324.6919,1382,324.6919,1382,482,663,482,663,304" style="stroke: #000000; stroke-width: 1.5;"/><line style="stroke: #000000; stroke-width: 1.5;" x1="663" x2="830" y1="324.6919" y2="324.6919"/><text fill="#000000" font-family="Ricty Diminished" font-size="14" font-weight="bold" lengthAdjust="spacingAndGlyphs" textLength="154" x="667" y="317.6836">seven_segment_displays</text><!--class Command--><rect fill="#F8F8F8" filter="url(#fohddsjyrft0b)" height="48" id="Command" style="stroke: #383838; stroke-width: 1.5;" width="74" x="504" y="57.5"/><ellipse cx="519" cy="73.5" fill="#C2C2C2" rx="11" ry="11" style="stroke: #383838; stroke-width: 1.0;"/><path d="M521.7031,78.9375 Q520.7813,79.8594 518.5156,79.8594 Q517.25,79.8594 516.3281,78.9375 Q514.6719,77.2813 514.6719,73.75 Q514.6719,69.6406 516.4531,67.8438 Q517.3906,66.9219 518.5781,66.9219 Q520.8438,66.9219 521.5781,67.6406 Q522.9688,69.0469 522.9063,71.4375 L520.4375,71.4375 Q520.375,69.3125 519.6406,68.5781 Q519.25,68.1719 518.5781,68.1719 Q518.5781,68.1719 518.5156,68.6406 Q517.1875,69.9688 517.1875,73.625 Q517.1875,76.8125 518.3281,77.9375 Q518.8594,78.4688 518.8594,78.4688 Q519.1094,78.4688 519.6406,77.9375 Q520.3125,77.2813 520.375,74.8906 L522.9688,74.8906 Q522.7656,77.875 521.7031,78.9375 Z "/><text fill="#000000" font-family="Ricty Diminished" font-size="12" lengthAdjust="spacingAndGlyphs" textLength="42" x="533" y="77.218">Command</text><line style="stroke: #383838; stroke-width: 1.5;" x1="505" x2="577" y1="89.5" y2="89.5"/><line style="stroke: #383838; stroke-width: 1.5;" x1="505" x2="577" y1="97.5" y2="97.5"/><!--class Display--><rect fill="#F8F8F8" filter="url(#fohddsjyrft0b)" height="105.6782" id="Display" style="stroke: #383838; stroke-width: 1.5;" width="206" x="438" y="165.5"/><ellipse cx="515.75" cy="181.5" fill="#B1B1B1" rx="11" ry="11" style="stroke: #383838; stroke-width: 1.0;"/><path d="M516.7344,186.4063 L517.4688,186.4063 L517.4688,187.8594 L513.4688,187.8594 L513.4688,186.4063 L514.2031,186.4063 L514.2031,176.375 L513.4688,176.375 L513.4688,174.9219 L517.4688,174.9219 L517.4688,176.375 L516.7344,176.375 L516.7344,186.4063 Z "/><text fill="#000000" font-family="Ricty Diminished" font-size="12" font-style="italic" lengthAdjust="spacingAndGlyphs" textLength="42" x="536.25" y="185.218">Display</text><line style="stroke: #383838; stroke-width: 1.5;" x1="439" x2="643" y1="197.5" y2="197.5"/><line style="stroke: #383838; stroke-width: 1.5;" x1="439" x2="643" y1="205.5" y2="205.5"/><ellipse cx="449" cy="216.5" fill="#A6A6A6" rx="3" ry="3" style="stroke: #545454; stroke-width: 1.0;"/><text fill="#000000" font-family="Ricty Diminished" font-size="11" lengthAdjust="spacingAndGlyphs" textLength="96" x="458" y="218.6736">Delete(Display*)</text><ellipse cx="449" cy="228.0356" fill="#A6A6A6" rx="3" ry="3" style="stroke: #545454; stroke-width: 1.0;"/><text fill="#000000" font-family="Ricty Diminished" font-size="11" lengthAdjust="spacingAndGlyphs" textLength="114" x="458" y="230.2092">GetId(Display): int</text><ellipse cx="449" cy="239.5713" fill="#A6A6A6" rx="3" ry="3" style="stroke: #545454; stroke-width: 1.0;"/><text fill="#000000" font-family="Ricty Diminished" font-size="11" lengthAdjust="spacingAndGlyphs" textLength="168" x="458" y="241.7449">GetTag(Display): const char*</text><ellipse cx="449" cy="251.1069" fill="#A6A6A6" rx="3" ry="3" style="stroke: #545454; stroke-width: 1.0;"/><text fill="#000000" font-family="Ricty Diminished" font-size="11" lengthAdjust="spacingAndGlyphs" textLength="180" x="458" y="253.2805">GetState(Display): const char*</text><ellipse cx="449" cy="262.6426" fill="#A6A6A6" rx="3" ry="3" style="stroke: #545454; stroke-width: 1.0;"/><text fill="#000000" font-family="Ricty Diminished" font-size="11" lengthAdjust="spacingAndGlyphs" textLength="84" x="458" y="264.8162">Reset(Display)</text><!--class DisplayFactory--><rect fill="#F8F8F8" filter="url(#fohddsjyrft0b)" height="71.0713" id="DisplayFactory" style="stroke: #383838; stroke-width: 1.5;" width="230" x="679" y="183"/><ellipse cx="747.75" cy="199" fill="#B1B1B1" rx="11" ry="11" style="stroke: #383838; stroke-width: 1.0;"/><path d="M748.7344,203.9063 L749.4688,203.9063 L749.4688,205.3594 L745.4688,205.3594 L745.4688,203.9063 L746.2031,203.9063 L746.2031,193.875 L745.4688,193.875 L745.4688,192.4219 L749.4688,192.4219 L749.4688,193.875 L748.7344,193.875 L748.7344,203.9063 Z "/><text fill="#000000" font-family="Ricty Diminished" font-size="12" font-style="italic" lengthAdjust="spacingAndGlyphs" textLength="84" x="768.25" y="202.718">DisplayFactory</text><line style="stroke: #383838; stroke-width: 1.5;" x1="680" x2="908" y1="215" y2="215"/><line style="stroke: #383838; stroke-width: 1.5;" x1="680" x2="908" y1="223" y2="223"/><ellipse cx="690" cy="234" fill="#A6A6A6" rx="3" ry="3" style="stroke: #545454; stroke-width: 1.0;"/><text fill="#000000" font-family="Ricty Diminished" font-size="11" lengthAdjust="spacingAndGlyphs" textLength="138" x="699" y="236.1736">Delete(DisplayFactory*)</text><ellipse cx="690" cy="245.5356" fill="#A6A6A6" rx="3" ry="3" style="stroke: #545454; stroke-width: 1.0;"/><text fill="#000000" font-family="Ricty Diminished" font-size="11" lengthAdjust="spacingAndGlyphs" textLength="204" x="699" y="247.7092">Make(DisplayFactory, int): Display</text><!--class Led--><rect fill="#F8F8F8" filter="url(#fohddsjyrft0b)" height="140.2852" id="Led" style="stroke: #383838; stroke-width: 1.5;" width="182" x="174" y="331.5"/><ellipse cx="251.75" cy="347.5" fill="#B1B1B1" rx="11" ry="11" style="stroke: #383838; stroke-width: 1.0;"/><path d="M252.7344,352.4063 L253.4688,352.4063 L253.4688,353.8594 L249.4688,353.8594 L249.4688,352.4063 L250.2031,352.4063 L250.2031,342.375 L249.4688,342.375 L249.4688,340.9219 L253.4688,340.9219 L253.4688,342.375 L252.7344,342.375 L252.7344,352.4063 Z "/><text fill="#000000" font-family="Ricty Diminished" font-size="12" font-style="italic" lengthAdjust="spacingAndGlyphs" textLength="18" x="272.25" y="351.218">Led</text><line style="stroke: #383838; stroke-width: 1.5;" x1="175" x2="355" y1="363.5" y2="363.5"/><line style="stroke: #383838; stroke-width: 1.5;" x1="175" x2="355" y1="371.5" y2="371.5"/><ellipse cx="185" cy="382.5" fill="#A6A6A6" rx="3" ry="3" style="stroke: #545454; stroke-width: 1.0;"/><text fill="#000000" font-family="Ricty Diminished" font-size="11" lengthAdjust="spacingAndGlyphs" textLength="72" x="194" y="384.6736">Delete(Led*)</text><ellipse cx="185" cy="394.0356" fill="#A6A6A6" rx="3" ry="3" style="stroke: #545454; stroke-width: 1.0;"/><text fill="#000000" font-family="Ricty Diminished" font-size="11" lengthAdjust="spacingAndGlyphs" textLength="90" x="194" y="396.2092">GetId(Led): int</text><ellipse cx="185" cy="405.5713" fill="#A6A6A6" rx="3" ry="3" style="stroke: #545454; stroke-width: 1.0;"/><text fill="#000000" font-family="Ricty Diminished" font-size="11" lengthAdjust="spacingAndGlyphs" textLength="144" x="194" y="407.7449">GetTag(Led): const char*</text><ellipse cx="185" cy="417.1069" fill="#A6A6A6" rx="3" ry="3" style="stroke: #545454; stroke-width: 1.0;"/><text fill="#000000" font-family="Ricty Diminished" font-size="11" lengthAdjust="spacingAndGlyphs" textLength="156" x="194" y="419.2805">GetState(Led): const char*</text><ellipse cx="185" cy="428.6426" fill="#A6A6A6" rx="3" ry="3" style="stroke: #545454; stroke-width: 1.0;"/><text fill="#000000" font-family="Ricty Diminished" font-size="11" lengthAdjust="spacingAndGlyphs" textLength="72" x="194" y="430.8162">TurnOff(Led)</text><ellipse cx="185" cy="440.1782" fill="#A6A6A6" rx="3" ry="3" style="stroke: #545454; stroke-width: 1.0;"/><text fill="#000000" font-family="Ricty Diminished" font-size="11" lengthAdjust="spacingAndGlyphs" textLength="66" x="194" y="442.3518">TurnOn(Led)</text><ellipse cx="185" cy="451.7139" fill="#A6A6A6" rx="3" ry="3" style="stroke: #545454; stroke-width: 1.0;"/><text fill="#000000" font-family="Ricty Diminished" font-size="11" lengthAdjust="spacingAndGlyphs" textLength="96" x="194" y="453.8875">IsOff(Led): bool</text><ellipse cx="185" cy="463.2495" fill="#A6A6A6" rx="3" ry="3" style="stroke: #545454; stroke-width: 1.0;"/><text fill="#000000" font-family="Ricty Diminished" font-size="11" lengthAdjust="spacingAndGlyphs" textLength="90" x="194" y="465.4231">IsOn(Led): bool</text><!--class LedFactory--><rect fill="#F8F8F8" filter="url(#fohddsjyrft0b)" height="71.0713" id="LedFactory" style="stroke: #383838; stroke-width: 1.5;" width="182" x="391" y="366"/><ellipse cx="447.75" cy="382" fill="#B1B1B1" rx="11" ry="11" style="stroke: #383838; stroke-width: 1.0;"/><path d="M448.7344,386.9063 L449.4688,386.9063 L449.4688,388.3594 L445.4688,388.3594 L445.4688,386.9063 L446.2031,386.9063 L446.2031,376.875 L445.4688,376.875 L445.4688,375.4219 L449.4688,375.4219 L449.4688,376.875 L448.7344,376.875 L448.7344,386.9063 Z "/><text fill="#000000" font-family="Ricty Diminished" font-size="12" font-style="italic" lengthAdjust="spacingAndGlyphs" textLength="60" x="468.25" y="385.718">LedFactory</text><line style="stroke: #383838; stroke-width: 1.5;" x1="392" x2="572" y1="398" y2="398"/><line style="stroke: #383838; stroke-width: 1.5;" x1="392" x2="572" y1="406" y2="406"/><ellipse cx="402" cy="417" fill="#A6A6A6" rx="3" ry="3" style="stroke: #545454; stroke-width: 1.0;"/><text fill="#000000" font-family="Ricty Diminished" font-size="11" lengthAdjust="spacingAndGlyphs" textLength="114" x="411" y="419.1736">Delete(LedFactory*)</text><ellipse cx="402" cy="428.5356" fill="#A6A6A6" rx="3" ry="3" style="stroke: #545454; stroke-width: 1.0;"/><text fill="#000000" font-family="Ricty Diminished" font-size="11" lengthAdjust="spacingAndGlyphs" textLength="156" x="411" y="430.7092">Make(LedFactory, int): Led</text><!--class LedArray--><rect fill="#F8F8F8" filter="url(#fohddsjyrft0b)" height="186.4277" id="LedArray" style="stroke: #383838; stroke-width: 1.5;" width="212" x="110" y="539"/><ellipse cx="187.75" cy="555" fill="#B1B1B1" rx="11" ry="11" style="stroke: #383838; stroke-width: 1.0;"/><path d="M188.7344,559.9063 L189.4688,559.9063 L189.4688,561.3594 L185.4688,561.3594 L185.4688,559.9063 L186.2031,559.9063 L186.2031,549.875 L185.4688,549.875 L185.4688,548.4219 L189.4688,548.4219 L189.4688,549.875 L188.7344,549.875 L188.7344,559.9063 Z "/><text fill="#000000" font-family="Ricty Diminished" font-size="12" font-style="italic" lengthAdjust="spacingAndGlyphs" textLength="48" x="208.25" y="558.718">LedArray</text><line style="stroke: #383838; stroke-width: 1.5;" x1="111" x2="321" y1="571" y2="571"/><line style="stroke: #383838; stroke-width: 1.5;" x1="111" x2="321" y1="579" y2="579"/><ellipse cx="121" cy="590" fill="#A6A6A6" rx="3" ry="3" style="stroke: #545454; stroke-width: 1.0;"/><text fill="#000000" font-family="Ricty Diminished" font-size="11" lengthAdjust="spacingAndGlyphs" textLength="102" x="130" y="592.1736">Delete(LedArray*)</text><ellipse cx="121" cy="601.5356" fill="#A6A6A6" rx="3" ry="3" style="stroke: #545454; stroke-width: 1.0;"/><text fill="#000000" font-family="Ricty Diminished" font-size="11" lengthAdjust="spacingAndGlyphs" textLength="120" x="130" y="603.7092">GetId(LedArray): int</text><ellipse cx="121" cy="613.0713" fill="#A6A6A6" rx="3" ry="3" style="stroke: #545454; stroke-width: 1.0;"/><text fill="#000000" font-family="Ricty Diminished" font-size="11" lengthAdjust="spacingAndGlyphs" textLength="174" x="130" y="615.2449">GetTag(LedArray): const char*</text><ellipse cx="121" cy="624.6069" fill="#A6A6A6" rx="3" ry="3" style="stroke: #545454; stroke-width: 1.0;"/><text fill="#000000" font-family="Ricty Diminished" font-size="11" lengthAdjust="spacingAndGlyphs" textLength="186" x="130" y="626.7805">GetState(LedArray): const char*</text><ellipse cx="121" cy="636.1426" fill="#A6A6A6" rx="3" ry="3" style="stroke: #545454; stroke-width: 1.0;"/><text fill="#000000" font-family="Ricty Diminished" font-size="11" lengthAdjust="spacingAndGlyphs" textLength="120" x="130" y="638.3162">TurnAllOff(LedArray)</text><ellipse cx="121" cy="647.6782" fill="#A6A6A6" rx="3" ry="3" style="stroke: #545454; stroke-width: 1.0;"/><text fill="#000000" font-family="Ricty Diminished" font-size="11" lengthAdjust="spacingAndGlyphs" textLength="114" x="130" y="649.8518">TurnAllOn(LedArray)</text><ellipse cx="121" cy="659.2139" fill="#A6A6A6" rx="3" ry="3" style="stroke: #545454; stroke-width: 1.0;"/><text fill="#000000" font-family="Ricty Diminished" font-size="11" lengthAdjust="spacingAndGlyphs" textLength="144" x="130" y="661.3875">IsAllOff(LedArray): bool</text><ellipse cx="121" cy="670.7495" fill="#A6A6A6" rx="3" ry="3" style="stroke: #545454; stroke-width: 1.0;"/><text fill="#000000" font-family="Ricty Diminished" font-size="11" lengthAdjust="spacingAndGlyphs" textLength="138" x="130" y="672.9231">IsAllOn(LedArray): bool</text><ellipse cx="121" cy="682.2852" fill="#A6A6A6" rx="3" ry="3" style="stroke: #545454; stroke-width: 1.0;"/><text fill="#000000" font-family="Ricty Diminished" font-size="11" lengthAdjust="spacingAndGlyphs" textLength="132" x="130" y="684.4587">TurnOff(LedArray, int)</text><ellipse cx="121" cy="693.8208" fill="#A6A6A6" rx="3" ry="3" style="stroke: #545454; stroke-width: 1.0;"/><text fill="#000000" font-family="Ricty Diminished" font-size="11" lengthAdjust="spacingAndGlyphs" textLength="126" x="130" y="695.9944">TurnOn(LedArray, int)</text><ellipse cx="121" cy="705.3564" fill="#A6A6A6" rx="3" ry="3" style="stroke: #545454; stroke-width: 1.0;"/><text fill="#000000" font-family="Ricty Diminished" font-size="11" lengthAdjust="spacingAndGlyphs" textLength="156" x="130" y="707.53">IsOff(LedArray, int): bool</text><ellipse cx="121" cy="716.8921" fill="#A6A6A6" rx="3" ry="3" style="stroke: #545454; stroke-width: 1.0;"/><text fill="#000000" font-family="Ricty Diminished" font-size="11" lengthAdjust="spacingAndGlyphs" textLength="150" x="130" y="719.0657">IsOn(LedArray, int): bool</text><!--class LedArrayFactory--><rect fill="#F8F8F8" filter="url(#fohddsjyrft0b)" height="71.0713" id="LedArrayFactory" style="stroke: #383838; stroke-width: 1.5;" width="242" x="357" y="596.5"/><ellipse cx="428.75" cy="612.5" fill="#B1B1B1" rx="11" ry="11" style="stroke: #383838; stroke-width: 1.0;"/><path d="M429.7344,617.4063 L430.4688,617.4063 L430.4688,618.8594 L426.4688,618.8594 L426.4688,617.4063 L427.2031,617.4063 L427.2031,607.375 L426.4688,607.375 L426.4688,605.9219 L430.4688,605.9219 L430.4688,607.375 L429.7344,607.375 L429.7344,617.4063 Z "/><text fill="#000000" font-family="Ricty Diminished" font-size="12" font-style="italic" lengthAdjust="spacingAndGlyphs" textLength="90" x="449.25" y="616.218">LedArrayFactory</text><line style="stroke: #383838; stroke-width: 1.5;" x1="358" x2="598" y1="628.5" y2="628.5"/><line style="stroke: #383838; stroke-width: 1.5;" x1="358" x2="598" y1="636.5" y2="636.5"/><ellipse cx="368" cy="647.5" fill="#A6A6A6" rx="3" ry="3" style="stroke: #545454; stroke-width: 1.0;"/><text fill="#000000" font-family="Ricty Diminished" font-size="11" lengthAdjust="spacingAndGlyphs" textLength="144" x="377" y="649.6736">Delete(LedArrayFactory*)</text><ellipse cx="368" cy="659.0356" fill="#A6A6A6" rx="3" ry="3" style="stroke: #545454; stroke-width: 1.0;"/><text fill="#000000" font-family="Ricty Diminished" font-size="11" lengthAdjust="spacingAndGlyphs" textLength="216" x="377" y="661.2092">Make(LedArrayFactory, int): LedArray</text><!--class SevenSegmentDisplay--><rect fill="#F8F8F8" filter="url(#fohddsjyrft0b)" height="128.7495" id="SevenSegmentDisplay" style="stroke: #383838; stroke-width: 1.5;" width="278" x="679" y="337"/><ellipse cx="756.75" cy="353" fill="#B1B1B1" rx="11" ry="11" style="stroke: #383838; stroke-width: 1.0;"/><path d="M757.7344,357.9063 L758.4688,357.9063 L758.4688,359.3594 L754.4688,359.3594 L754.4688,357.9063 L755.2031,357.9063 L755.2031,347.875 L754.4688,347.875 L754.4688,346.4219 L758.4688,346.4219 L758.4688,347.875 L757.7344,347.875 L757.7344,357.9063 Z "/><text fill="#000000" font-family="Ricty Diminished" font-size="12" font-style="italic" lengthAdjust="spacingAndGlyphs" textLength="114" x="777.25" y="356.718">SevenSegmentDisplay</text><line style="stroke: #383838; stroke-width: 1.5;" x1="680" x2="956" y1="369" y2="369"/><line style="stroke: #383838; stroke-width: 1.5;" x1="680" x2="956" y1="377" y2="377"/><ellipse cx="690" cy="388" fill="#A6A6A6" rx="3" ry="3" style="stroke: #545454; stroke-width: 1.0;"/><text fill="#000000" font-family="Ricty Diminished" font-size="11" lengthAdjust="spacingAndGlyphs" textLength="168" x="699" y="390.1736">Delete(SevenSegmentDisplay*)</text><ellipse cx="690" cy="399.5356" fill="#A6A6A6" rx="3" ry="3" style="stroke: #545454; stroke-width: 1.0;"/><text fill="#000000" font-family="Ricty Diminished" font-size="11" lengthAdjust="spacingAndGlyphs" textLength="186" x="699" y="401.7092">GetId(SevenSegmentDisplay): int</text><ellipse cx="690" cy="411.0713" fill="#A6A6A6" rx="3" ry="3" style="stroke: #545454; stroke-width: 1.0;"/><text fill="#000000" font-family="Ricty Diminished" font-size="11" lengthAdjust="spacingAndGlyphs" textLength="240" x="699" y="413.2449">GetTag(SevenSegmentDisplay): const char*</text><ellipse cx="690" cy="422.6069" fill="#A6A6A6" rx="3" ry="3" style="stroke: #545454; stroke-width: 1.0;"/><text fill="#000000" font-family="Ricty Diminished" font-size="11" lengthAdjust="spacingAndGlyphs" textLength="252" x="699" y="424.7805">GetState(SevenSegmentDisplay): const char*</text><ellipse cx="690" cy="434.1426" fill="#A6A6A6" rx="3" ry="3" style="stroke: #545454; stroke-width: 1.0;"/><text fill="#000000" font-family="Ricty Diminished" font-size="11" lengthAdjust="spacingAndGlyphs" textLength="156" x="699" y="436.3162">Clear(SevenSegmentDisplay)</text><ellipse cx="690" cy="445.6782" fill="#A6A6A6" rx="3" ry="3" style="stroke: #545454; stroke-width: 1.0;"/><text fill="#000000" font-family="Ricty Diminished" font-size="11" lengthAdjust="spacingAndGlyphs" textLength="198" x="699" y="447.8518">Get(SevenSegmentDisplay): uint8_t</text><ellipse cx="690" cy="457.2139" fill="#A6A6A6" rx="3" ry="3" style="stroke: #545454; stroke-width: 1.0;"/><text fill="#000000" font-family="Ricty Diminished" font-size="11" lengthAdjust="spacingAndGlyphs" textLength="198" x="699" y="459.3875">Set(SevenSegmentDisplay, uint8_t)</text><!--class SevenSegmentDisplayFactory--><rect fill="#F8F8F8" filter="url(#fohddsjyrft0b)" height="71.0713" id="SevenSegmentDisplayFactory" style="stroke: #383838; stroke-width: 1.5;" width="374" x="992" y="366"/><ellipse cx="1096.75" cy="382" fill="#B1B1B1" rx="11" ry="11" style="stroke: #383838; stroke-width: 1.0;"/><path d="M1097.7344,386.9063 L1098.4688,386.9063 L1098.4688,388.3594 L1094.4688,388.3594 L1094.4688,386.9063 L1095.2031,386.9063 L1095.2031,376.875 L1094.4688,376.875 L1094.4688,375.4219 L1098.4688,375.4219 L1098.4688,376.875 L1097.7344,376.875 L1097.7344,386.9063 Z "/><text fill="#000000" font-family="Ricty Diminished" font-size="12" font-style="italic" lengthAdjust="spacingAndGlyphs" textLength="156" x="1117.25" y="385.718">SevenSegmentDisplayFactory</text><line style="stroke: #383838; stroke-width: 1.5;" x1="993" x2="1365" y1="398" y2="398"/><line style="stroke: #383838; stroke-width: 1.5;" x1="993" x2="1365" y1="406" y2="406"/><ellipse cx="1003" cy="417" fill="#A6A6A6" rx="3" ry="3" style="stroke: #545454; stroke-width: 1.0;"/><text fill="#000000" font-family="Ricty Diminished" font-size="11" lengthAdjust="spacingAndGlyphs" textLength="210" x="1012" y="419.1736">Delete(SevenSegmentDisplayFactory*)</text><ellipse cx="1003" cy="428.5356" fill="#A6A6A6" rx="3" ry="3" style="stroke: #545454; stroke-width: 1.0;"/><text fill="#000000" font-family="Ricty Diminished" font-size="11" lengthAdjust="spacingAndGlyphs" textLength="348" x="1012" y="430.7092">Make(SevenSegmentDisplayFactory, int): SevenSegmentDisplay</text><!--reverse link LedArray to LedArrayFactory--><path d="M327.332,632 C337.18,632 347.028,632 356.876,632 " fill="none" id="LedArray&lt;-LedArrayFactory" style="stroke: #383838; stroke-width: 1.0;"/><polygon fill="#383838" points="322.182,632,331.182,636,327.182,632,331.182,628,322.182,632" style="stroke: #383838; stroke-width: 1.0;"/><!--reverse link Led to LedFactory--><path d="M361.232,401.5 C371.002,401.5 380.772,401.5 390.543,401.5 " fill="none" id="Led&lt;-LedFactory" style="stroke: #383838; stroke-width: 1.0;"/><polygon fill="#383838" points="356.123,401.5,365.123,405.5,361.123,401.5,365.123,397.5,356.123,401.5" style="stroke: #383838; stroke-width: 1.0;"/><!--reverse link Led to LedArray--><path d="M245.952,491.328 C242.609,506.917 239.123,523.171 235.761,538.849 " fill="none" id="Led&lt;-LedArray" style="stroke: #383838; stroke-width: 1.0; stroke-dasharray: 7.0,7.0;"/><polygon fill="none" points="239.127,489.765,250.165,471.678,252.816,492.701,239.127,489.765" style="stroke: #383838; stroke-width: 1.0;"/><!--reverse link SevenSegmentDisplay to SevenSegmentDisplayFactory--><path d="M962.396,401.5 C972.231,401.5 982.066,401.5 991.901,401.5 " fill="none" id="SevenSegmentDisplay&lt;-SevenSegmentDisplayFactory" style="stroke: #383838; stroke-width: 1.0;"/><polygon fill="#383838" points="957.253,401.5,966.253,405.5,962.253,401.5,966.253,397.5,957.253,401.5" style="stroke: #383838; stroke-width: 1.0;"/><!--reverse link Display to DisplayFactory--><path d="M649.398,218.5 C659.192,218.5 668.987,218.5 678.782,218.5 " fill="none" id="Display&lt;-DisplayFactory" style="stroke: #383838; stroke-width: 1.0;"/><polygon fill="#383838" points="644.275,218.5,653.275,222.5,649.275,218.5,653.275,214.5,644.275,218.5" style="stroke: #383838; stroke-width: 1.0;"/><!--reverse link Display to Led--><path d="M419.63,264.433 C403.765,272.207 388.131,280.915 374,290.5 C356.867,302.12 340.18,316.702 325.22,331.412 " fill="none" id="Display&lt;-Led" style="stroke: #383838; stroke-width: 1.0; stroke-dasharray: 7.0,7.0;"/><polygon fill="none" points="416.844,258.008,437.928,255.898,422.762,270.696,416.844,258.008" style="stroke: #383838; stroke-width: 1.0;"/><!--reverse link Display to SevenSegmentDisplay--><path d="M637.59,282.615 C664.48,300.186 693.697,319.277 720.632,336.877 " fill="none" id="Display&lt;-SevenSegmentDisplay" style="stroke: #383838; stroke-width: 1.0; stroke-dasharray: 7.0,7.0;"/><polygon fill="none" points="633.662,288.41,620.748,271.61,641.32,276.69,633.662,288.41" style="stroke: #383838; stroke-width: 1.0;"/><!--reverse link Command to Display--><path d="M541,125.835 C541,138.375 541,152.197 541,165.222 " fill="none" id="Command&lt;-Display" style="stroke: #383838; stroke-width: 1.0;"/><polygon fill="none" points="534,125.707,541,105.707,548,125.707,534,125.707" style="stroke: #383838; stroke-width: 1.0;"/><!--
@startuml display_class_diagram
skinparam {
    defaultFontName Ricty Diminished
    monochrome true
}

package Golem {
    folder displays {
        interface Display {
            + Delete(Display*)
            + GetId(Display): int
            + GetTag(Display): const char*
            + GetState(Display): const char*
            + Reset(Display)
        }

        interface DisplayFactory {
            + Delete(DisplayFactory*)
            + Make(DisplayFactory, int): Display
        }

        folder leds {
            interface Led {
                + Delete(Led*)
                + GetId(Led): int
                + GetTag(Led): const char*
                + GetState(Led): const char*
                + TurnOff(Led)
                + TurnOn(Led)
                + IsOff(Led): bool
                + IsOn(Led): bool
            }

            interface LedFactory {
                + Delete(LedFactory*)
                + Make(LedFactory, int): Led
            }

            folder led_arrays {
                interface LedArray {
                    + Delete(LedArray*)
                    + GetId(LedArray): int
                    + GetTag(LedArray): const char*
                    + GetState(LedArray): const char*
                    + TurnAllOff(LedArray)
                    + TurnAllOn(LedArray)
                    + IsAllOff(LedArray): bool
                    + IsAllOn(LedArray): bool
                    + TurnOff(LedArray, int)
                    + TurnOn(LedArray, int)
                    + IsOff(LedArray, int): bool
                    + IsOn(LedArray, int): bool
                }

                interface LedArrayFactory {
                    + Delete(LedArrayFactory*)
                    + Make(LedArrayFactory, int): LedArray
                }

                LedArray <- LedArrayFactory
            }

            Led <- LedFactory
            Led <|.. LedArray
        }

        folder seven_segment_displays {
            interface SevenSegmentDisplay {
                + Delete(SevenSegmentDisplay*)
                + GetId(SevenSegmentDisplay): int
                + GetTag(SevenSegmentDisplay): const char*
                + GetState(SevenSegmentDisplay): const char*
                + Clear(SevenSegmentDisplay)
                + Get(SevenSegmentDisplay): uint8_t
                + Set(SevenSegmentDisplay, uint8_t)
            }

            interface SevenSegmentDisplayFactory {
                + Delete(SevenSegmentDisplayFactory*)
                + Make(SevenSegmentDisplayFactory, int): SevenSegmentDisplay
            }

            SevenSegmentDisplay <- SevenSegmentDisplayFactory
        }

        Display <- DisplayFactory
        Display <|.. Led
        Display <|.. SevenSegmentDisplay
    }

    Command <|- - Display
}
@enduml

PlantUML version 1.2019.09(Tue Aug 27 01:19:51 JST 2019)
(GPL source distribution)
Java Runtime: Java(TM) SE Runtime Environment
JVM: Java HotSpot(TM) 64-Bit Server VM
Java Version: 1.8.0_221-b11
Operating System: Windows 10
OS Version: 10.0
Default Encoding: MS932
Language: en
Country: GB
--></g></svg>