<?xml version="1.0" encoding="UTF-8" standalone="no"?><svg xmlns="http://www.w3.org/2000/svg" xmlns:xlink="http://www.w3.org/1999/xlink" contentScriptType="application/ecmascript" contentStyleType="text/css" height="789px" preserveAspectRatio="none" style="width:1138px;height:789px;" version="1.1" viewBox="0 0 1138 789" width="1138px" zoomAndPan="magnify"><defs><filter height="300%" id="f1if53xfdoyh3t" width="300%" x="-1" y="-1"><feGaussianBlur result="blurOut" stdDeviation="2.0"/><feColorMatrix in="blurOut" result="blurOut2" type="matrix" values="0 0 0 0 0 0 0 0 0 0 0 0 0 0 0 0 0 0 .4 0"/><feOffset dx="4.0" dy="4.0" in="blurOut2" result="blurOut3"/><feBlend in="SourceGraphic" in2="blurOut3" mode="normal"/></filter></defs><g><!--cluster Golem--><polygon fill="#FFFFFF" filter="url(#f1if53xfdoyh3t)" points="22,24,63,24,70,44.6919,1116,44.6919,1116,777,22,777,22,24" style="stroke: #000000; stroke-width: 1.5;"/><line style="stroke: #000000; stroke-width: 1.5;" x1="22" x2="70" y1="44.6919" y2="44.6919"/><text fill="#000000" font-family="Ricty Diminished" font-size="14" font-weight="bold" lengthAdjust="spacingAndGlyphs" textLength="35" x="26" y="37.6836">Golem</text><!--cluster displays--><polygon fill="#FFFFFF" filter="url(#f1if53xfdoyh3t)" points="46,65,108,65,115,85.6919,1092,85.6919,1092,753,46,753,46,65" style="stroke: #000000; stroke-width: 1.5;"/><line style="stroke: #000000; stroke-width: 1.5;" x1="46" x2="115" y1="85.6919" y2="85.6919"/><text fill="#000000" font-family="Ricty Diminished" font-size="14" font-weight="bold" lengthAdjust="spacingAndGlyphs" textLength="56" x="50" y="78.6836">displays</text><!--cluster leds--><polygon fill="#FFFFFF" filter="url(#f1if53xfdoyh3t)" points="608,208,642,208,649,228.6919,1068,228.6919,1068,729,608,729,608,208" style="stroke: #000000; stroke-width: 1.5;"/><line style="stroke: #000000; stroke-width: 1.5;" x1="608" x2="649" y1="228.6919" y2="228.6919"/><text fill="#000000" font-family="Ricty Diminished" font-size="14" font-weight="bold" lengthAdjust="spacingAndGlyphs" textLength="28" x="612" y="221.6836">leds</text><!--cluster led_array--><polygon fill="#FFFFFF" filter="url(#f1if53xfdoyh3t)" points="717,385,786,385,793,405.6919,1044,405.6919,1044,705,717,705,717,385" style="stroke: #000000; stroke-width: 1.5;"/><line style="stroke: #000000; stroke-width: 1.5;" x1="717" x2="793" y1="405.6919" y2="405.6919"/><text fill="#000000" font-family="Ricty Diminished" font-size="14" font-weight="bold" lengthAdjust="spacingAndGlyphs" textLength="63" x="721" y="398.6836">led_array</text><!--cluster seven_segment_display--><polygon fill="#FFFFFF" filter="url(#f1if53xfdoyh3t)" points="179,213.5,332,213.5,339,234.1919,584,234.1919,584,539.5,179,539.5,179,213.5" style="stroke: #000000; stroke-width: 1.5;"/><line style="stroke: #000000; stroke-width: 1.5;" x1="179" x2="339" y1="234.1919" y2="234.1919"/><text fill="#000000" font-family="Ricty Diminished" font-size="14" font-weight="bold" lengthAdjust="spacingAndGlyphs" textLength="147" x="183" y="227.1836">seven_segment_display</text><!--class Display--><rect fill="#F8F8F8" filter="url(#f1if53xfdoyh3t)" height="82.6069" id="Display" style="stroke: #383838; stroke-width: 1.5;" width="134" x="222" y="98"/><ellipse cx="264" cy="114" fill="#B1B1B1" rx="11" ry="11" style="stroke: #383838; stroke-width: 1.0;"/><path d="M264.9844,118.9063 L265.7188,118.9063 L265.7188,120.3594 L261.7188,120.3594 L261.7188,118.9063 L262.4531,118.9063 L262.4531,108.875 L261.7188,108.875 L261.7188,107.4219 L265.7188,107.4219 L265.7188,108.875 L264.9844,108.875 L264.9844,118.9063 Z "/><text fill="#000000" font-family="Ricty Diminished" font-size="12" font-style="italic" lengthAdjust="spacingAndGlyphs" textLength="42" x="284" y="117.718">Display</text><line style="stroke: #383838; stroke-width: 1.5;" x1="223" x2="355" y1="130" y2="130"/><line style="stroke: #383838; stroke-width: 1.5;" x1="223" x2="355" y1="138" y2="138"/><ellipse cx="233" cy="149" fill="#A6A6A6" rx="3" ry="3" style="stroke: #545454; stroke-width: 1.0;"/><text fill="#000000" font-family="Ricty Diminished" font-size="11" lengthAdjust="spacingAndGlyphs" textLength="54" x="242" y="151.1736">Id(): int</text><ellipse cx="233" cy="160.5356" fill="#A6A6A6" rx="3" ry="3" style="stroke: #545454; stroke-width: 1.0;"/><text fill="#000000" font-family="Ricty Diminished" font-size="11" lengthAdjust="spacingAndGlyphs" textLength="108" x="242" y="162.7092">Tag(): const char*</text><ellipse cx="233" cy="172.0713" fill="#A6A6A6" rx="3" ry="3" style="stroke: #545454; stroke-width: 1.0;"/><text fill="#000000" font-family="Ricty Diminished" font-size="11" lengthAdjust="spacingAndGlyphs" textLength="42" x="242" y="174.2449">Reset()</text><!--class DisplayFactory--><rect fill="#F8F8F8" filter="url(#f1if53xfdoyh3t)" height="59.5356" id="DisplayFactory" style="stroke: #383838; stroke-width: 1.5;" width="120" x="412" y="109.5"/><ellipse cx="428.8" cy="125.5" fill="#B1B1B1" rx="11" ry="11" style="stroke: #383838; stroke-width: 1.0;"/><path d="M429.7844,130.4063 L430.5188,130.4063 L430.5188,131.8594 L426.5188,131.8594 L426.5188,130.4063 L427.2531,130.4063 L427.2531,120.375 L426.5188,120.375 L426.5188,118.9219 L430.5188,118.9219 L430.5188,120.375 L429.7844,120.375 L429.7844,130.4063 Z "/><text fill="#000000" font-family="Ricty Diminished" font-size="12" font-style="italic" lengthAdjust="spacingAndGlyphs" textLength="84" x="443.2" y="129.218">DisplayFactory</text><line style="stroke: #383838; stroke-width: 1.5;" x1="413" x2="531" y1="141.5" y2="141.5"/><line style="stroke: #383838; stroke-width: 1.5;" x1="413" x2="531" y1="149.5" y2="149.5"/><text fill="#000000" font-family="Ricty Diminished" font-size="11" lengthAdjust="spacingAndGlyphs" textLength="108" x="418" y="162.6736">Make(int): Display</text><!--class NullDisplay--><rect fill="#F8F8F8" filter="url(#f1if53xfdoyh3t)" height="48" id="NullDisplay" style="stroke: #383838; stroke-width: 1.5;" width="98" x="62" y="275.5"/><ellipse cx="77" cy="291.5" fill="#C2C2C2" rx="11" ry="11" style="stroke: #383838; stroke-width: 1.0;"/><path d="M79.7031,296.9375 Q78.7813,297.8594 76.5156,297.8594 Q75.25,297.8594 74.3281,296.9375 Q72.6719,295.2813 72.6719,291.75 Q72.6719,287.6406 74.4531,285.8438 Q75.3906,284.9219 76.5781,284.9219 Q78.8438,284.9219 79.5781,285.6406 Q80.9688,287.0469 80.9063,289.4375 L78.4375,289.4375 Q78.375,287.3125 77.6406,286.5781 Q77.25,286.1719 76.5781,286.1719 Q76.5781,286.1719 76.5156,286.6406 Q75.1875,287.9688 75.1875,291.625 Q75.1875,294.8125 76.3281,295.9375 Q76.8594,296.4688 76.8594,296.4688 Q77.1094,296.4688 77.6406,295.9375 Q78.3125,295.2813 78.375,292.8906 L80.9688,292.8906 Q80.7656,295.875 79.7031,296.9375 Z "/><text fill="#000000" font-family="Ricty Diminished" font-size="12" lengthAdjust="spacingAndGlyphs" textLength="66" x="91" y="295.218">NullDisplay</text><line style="stroke: #383838; stroke-width: 1.5;" x1="63" x2="159" y1="307.5" y2="307.5"/><line style="stroke: #383838; stroke-width: 1.5;" x1="63" x2="159" y1="315.5" y2="315.5"/><!--class Led--><rect fill="#F8F8F8" filter="url(#f1if53xfdoyh3t)" height="117.2139" id="Led" style="stroke: #383838; stroke-width: 1.5;" width="134" x="624" y="241"/><ellipse cx="677.75" cy="257" fill="#B1B1B1" rx="11" ry="11" style="stroke: #383838; stroke-width: 1.0;"/><path d="M678.7344,261.9063 L679.4688,261.9063 L679.4688,263.3594 L675.4688,263.3594 L675.4688,261.9063 L676.2031,261.9063 L676.2031,251.875 L675.4688,251.875 L675.4688,250.4219 L679.4688,250.4219 L679.4688,251.875 L678.7344,251.875 L678.7344,261.9063 Z "/><text fill="#000000" font-family="Ricty Diminished" font-size="12" font-style="italic" lengthAdjust="spacingAndGlyphs" textLength="18" x="698.25" y="260.718">Led</text><line style="stroke: #383838; stroke-width: 1.5;" x1="625" x2="757" y1="273" y2="273"/><line style="stroke: #383838; stroke-width: 1.5;" x1="625" x2="757" y1="281" y2="281"/><ellipse cx="635" cy="292" fill="#A6A6A6" rx="3" ry="3" style="stroke: #545454; stroke-width: 1.0;"/><text fill="#000000" font-family="Ricty Diminished" font-size="11" lengthAdjust="spacingAndGlyphs" textLength="54" x="644" y="294.1736">Id(): int</text><ellipse cx="635" cy="303.5356" fill="#A6A6A6" rx="3" ry="3" style="stroke: #545454; stroke-width: 1.0;"/><text fill="#000000" font-family="Ricty Diminished" font-size="11" lengthAdjust="spacingAndGlyphs" textLength="108" x="644" y="305.7092">Tag(): const char*</text><ellipse cx="635" cy="315.0713" fill="#A6A6A6" rx="3" ry="3" style="stroke: #545454; stroke-width: 1.0;"/><text fill="#000000" font-family="Ricty Diminished" font-size="11" lengthAdjust="spacingAndGlyphs" textLength="54" x="644" y="317.2449">TurnOff()</text><ellipse cx="635" cy="326.6069" fill="#A6A6A6" rx="3" ry="3" style="stroke: #545454; stroke-width: 1.0;"/><text fill="#000000" font-family="Ricty Diminished" font-size="11" lengthAdjust="spacingAndGlyphs" textLength="48" x="644" y="328.7805">TurnOn()</text><ellipse cx="635" cy="338.1426" fill="#A6A6A6" rx="3" ry="3" style="stroke: #545454; stroke-width: 1.0;"/><text fill="#000000" font-family="Ricty Diminished" font-size="11" lengthAdjust="spacingAndGlyphs" textLength="78" x="644" y="340.3162">IsOff(): bool</text><ellipse cx="635" cy="349.6782" fill="#A6A6A6" rx="3" ry="3" style="stroke: #545454; stroke-width: 1.0;"/><text fill="#000000" font-family="Ricty Diminished" font-size="11" lengthAdjust="spacingAndGlyphs" textLength="72" x="644" y="351.8518">IsOn(): bool</text><!--class LedFactory--><rect fill="#F8F8F8" filter="url(#f1if53xfdoyh3t)" height="59.5356" id="LedFactory" style="stroke: #383838; stroke-width: 1.5;" width="96" x="793" y="269.5"/><ellipse cx="809.8" cy="285.5" fill="#B1B1B1" rx="11" ry="11" style="stroke: #383838; stroke-width: 1.0;"/><path d="M810.7844,290.4063 L811.5188,290.4063 L811.5188,291.8594 L807.5188,291.8594 L807.5188,290.4063 L808.2531,290.4063 L808.2531,280.375 L807.5188,280.375 L807.5188,278.9219 L811.5188,278.9219 L811.5188,280.375 L810.7844,280.375 L810.7844,290.4063 Z "/><text fill="#000000" font-family="Ricty Diminished" font-size="12" font-style="italic" lengthAdjust="spacingAndGlyphs" textLength="60" x="824.2" y="289.218">LedFactory</text><line style="stroke: #383838; stroke-width: 1.5;" x1="794" x2="888" y1="301.5" y2="301.5"/><line style="stroke: #383838; stroke-width: 1.5;" x1="794" x2="888" y1="309.5" y2="309.5"/><text fill="#000000" font-family="Ricty Diminished" font-size="11" lengthAdjust="spacingAndGlyphs" textLength="84" x="799" y="322.6736">Make(int): Led</text><!--class NullLed--><rect fill="#F8F8F8" filter="url(#f1if53xfdoyh3t)" height="48" id="NullLed" style="stroke: #383838; stroke-width: 1.5;" width="74" x="624" y="475.5"/><ellipse cx="639" cy="491.5" fill="#C2C2C2" rx="11" ry="11" style="stroke: #383838; stroke-width: 1.0;"/><path d="M641.7031,496.9375 Q640.7813,497.8594 638.5156,497.8594 Q637.25,497.8594 636.3281,496.9375 Q634.6719,495.2813 634.6719,491.75 Q634.6719,487.6406 636.4531,485.8438 Q637.3906,484.9219 638.5781,484.9219 Q640.8438,484.9219 641.5781,485.6406 Q642.9688,487.0469 642.9063,489.4375 L640.4375,489.4375 Q640.375,487.3125 639.6406,486.5781 Q639.25,486.1719 638.5781,486.1719 Q638.5781,486.1719 638.5156,486.6406 Q637.1875,487.9688 637.1875,491.625 Q637.1875,494.8125 638.3281,495.9375 Q638.8594,496.4688 638.8594,496.4688 Q639.1094,496.4688 639.6406,495.9375 Q640.3125,495.2813 640.375,492.8906 L642.9688,492.8906 Q642.7656,495.875 641.7031,496.9375 Z "/><text fill="#000000" font-family="Ricty Diminished" font-size="12" lengthAdjust="spacingAndGlyphs" textLength="42" x="653" y="495.218">NullLed</text><line style="stroke: #383838; stroke-width: 1.5;" x1="625" x2="697" y1="507.5" y2="507.5"/><line style="stroke: #383838; stroke-width: 1.5;" x1="625" x2="697" y1="515.5" y2="515.5"/><!--class LedArray--><rect fill="#F8F8F8" filter="url(#f1if53xfdoyh3t)" height="163.3564" id="LedArray" style="stroke: #383838; stroke-width: 1.5;" width="134" x="733" y="418"/><ellipse cx="772.3" cy="434" fill="#B1B1B1" rx="11" ry="11" style="stroke: #383838; stroke-width: 1.0;"/><path d="M773.2844,438.9063 L774.0188,438.9063 L774.0188,440.3594 L770.0188,440.3594 L770.0188,438.9063 L770.7531,438.9063 L770.7531,428.875 L770.0188,428.875 L770.0188,427.4219 L774.0188,427.4219 L774.0188,428.875 L773.2844,428.875 L773.2844,438.9063 Z "/><text fill="#000000" font-family="Ricty Diminished" font-size="12" font-style="italic" lengthAdjust="spacingAndGlyphs" textLength="48" x="791.7" y="437.718">LedArray</text><line style="stroke: #383838; stroke-width: 1.5;" x1="734" x2="866" y1="450" y2="450"/><line style="stroke: #383838; stroke-width: 1.5;" x1="734" x2="866" y1="458" y2="458"/><ellipse cx="744" cy="469" fill="#A6A6A6" rx="3" ry="3" style="stroke: #545454; stroke-width: 1.0;"/><text fill="#000000" font-family="Ricty Diminished" font-size="11" lengthAdjust="spacingAndGlyphs" textLength="54" x="753" y="471.1736">Id(): int</text><ellipse cx="744" cy="480.5356" fill="#A6A6A6" rx="3" ry="3" style="stroke: #545454; stroke-width: 1.0;"/><text fill="#000000" font-family="Ricty Diminished" font-size="11" lengthAdjust="spacingAndGlyphs" textLength="108" x="753" y="482.7092">Tag(): const char*</text><ellipse cx="744" cy="492.0713" fill="#A6A6A6" rx="3" ry="3" style="stroke: #545454; stroke-width: 1.0;"/><text fill="#000000" font-family="Ricty Diminished" font-size="11" lengthAdjust="spacingAndGlyphs" textLength="72" x="753" y="494.2449">TurnAllOff()</text><ellipse cx="744" cy="503.6069" fill="#A6A6A6" rx="3" ry="3" style="stroke: #545454; stroke-width: 1.0;"/><text fill="#000000" font-family="Ricty Diminished" font-size="11" lengthAdjust="spacingAndGlyphs" textLength="66" x="753" y="505.7805">TurnAllOn()</text><ellipse cx="744" cy="515.1426" fill="#A6A6A6" rx="3" ry="3" style="stroke: #545454; stroke-width: 1.0;"/><text fill="#000000" font-family="Ricty Diminished" font-size="11" lengthAdjust="spacingAndGlyphs" textLength="96" x="753" y="517.3162">IsAllOff(): bool</text><ellipse cx="744" cy="526.6782" fill="#A6A6A6" rx="3" ry="3" style="stroke: #545454; stroke-width: 1.0;"/><text fill="#000000" font-family="Ricty Diminished" font-size="11" lengthAdjust="spacingAndGlyphs" textLength="90" x="753" y="528.8518">IsAllOn(): bool</text><ellipse cx="744" cy="538.2139" fill="#A6A6A6" rx="3" ry="3" style="stroke: #545454; stroke-width: 1.0;"/><text fill="#000000" font-family="Ricty Diminished" font-size="11" lengthAdjust="spacingAndGlyphs" textLength="72" x="753" y="540.3875">TurnOff(int)</text><ellipse cx="744" cy="549.7495" fill="#A6A6A6" rx="3" ry="3" style="stroke: #545454; stroke-width: 1.0;"/><text fill="#000000" font-family="Ricty Diminished" font-size="11" lengthAdjust="spacingAndGlyphs" textLength="66" x="753" y="551.9231">TurnOn(int)</text><ellipse cx="744" cy="561.2852" fill="#A6A6A6" rx="3" ry="3" style="stroke: #545454; stroke-width: 1.0;"/><text fill="#000000" font-family="Ricty Diminished" font-size="11" lengthAdjust="spacingAndGlyphs" textLength="96" x="753" y="563.4587">IsOff(int): bool</text><ellipse cx="744" cy="572.8208" fill="#A6A6A6" rx="3" ry="3" style="stroke: #545454; stroke-width: 1.0;"/><text fill="#000000" font-family="Ricty Diminished" font-size="11" lengthAdjust="spacingAndGlyphs" textLength="90" x="753" y="574.9944">IsOn(int): bool</text><!--class LedArrayFactory--><rect fill="#F8F8F8" filter="url(#f1if53xfdoyh3t)" height="59.5356" id="LedArrayFactory" style="stroke: #383838; stroke-width: 1.5;" width="126" x="902" y="469.5"/><ellipse cx="918.8" cy="485.5" fill="#B1B1B1" rx="11" ry="11" style="stroke: #383838; stroke-width: 1.0;"/><path d="M919.7844,490.4063 L920.5188,490.4063 L920.5188,491.8594 L916.5188,491.8594 L916.5188,490.4063 L917.2531,490.4063 L917.2531,480.375 L916.5188,480.375 L916.5188,478.9219 L920.5188,478.9219 L920.5188,480.375 L919.7844,480.375 L919.7844,490.4063 Z "/><text fill="#000000" font-family="Ricty Diminished" font-size="12" font-style="italic" lengthAdjust="spacingAndGlyphs" textLength="90" x="933.2" y="489.218">LedArrayFactory</text><line style="stroke: #383838; stroke-width: 1.5;" x1="903" x2="1027" y1="501.5" y2="501.5"/><line style="stroke: #383838; stroke-width: 1.5;" x1="903" x2="1027" y1="509.5" y2="509.5"/><text fill="#000000" font-family="Ricty Diminished" font-size="11" lengthAdjust="spacingAndGlyphs" textLength="114" x="908" y="522.6736">Make(int): LedArray</text><!--class NullLedArray--><rect fill="#F8F8F8" filter="url(#f1if53xfdoyh3t)" height="48" id="NullLedArray" style="stroke: #383838; stroke-width: 1.5;" width="104" x="748" y="641"/><ellipse cx="763" cy="657" fill="#C2C2C2" rx="11" ry="11" style="stroke: #383838; stroke-width: 1.0;"/><path d="M765.7031,662.4375 Q764.7813,663.3594 762.5156,663.3594 Q761.25,663.3594 760.3281,662.4375 Q758.6719,660.7813 758.6719,657.25 Q758.6719,653.1406 760.4531,651.3438 Q761.3906,650.4219 762.5781,650.4219 Q764.8438,650.4219 765.5781,651.1406 Q766.9688,652.5469 766.9063,654.9375 L764.4375,654.9375 Q764.375,652.8125 763.6406,652.0781 Q763.25,651.6719 762.5781,651.6719 Q762.5781,651.6719 762.5156,652.1406 Q761.1875,653.4688 761.1875,657.125 Q761.1875,660.3125 762.3281,661.4375 Q762.8594,661.9688 762.8594,661.9688 Q763.1094,661.9688 763.6406,661.4375 Q764.3125,660.7813 764.375,658.3906 L766.9688,658.3906 Q766.7656,661.375 765.7031,662.4375 Z "/><text fill="#000000" font-family="Ricty Diminished" font-size="12" lengthAdjust="spacingAndGlyphs" textLength="72" x="777" y="660.718">NullLedArray</text><line style="stroke: #383838; stroke-width: 1.5;" x1="749" x2="851" y1="673" y2="673"/><line style="stroke: #383838; stroke-width: 1.5;" x1="749" x2="851" y1="681" y2="681"/><!--class SevenSegmentDisplay--><rect fill="#F8F8F8" filter="url(#f1if53xfdoyh3t)" height="105.6782" id="SevenSegmentDisplay" style="stroke: #383838; stroke-width: 1.5;" width="146" x="195" y="246.5"/><ellipse cx="210" cy="262.5" fill="#B1B1B1" rx="11" ry="11" style="stroke: #383838; stroke-width: 1.0;"/><path d="M210.9844,267.4063 L211.7188,267.4063 L211.7188,268.8594 L207.7188,268.8594 L207.7188,267.4063 L208.4531,267.4063 L208.4531,257.375 L207.7188,257.375 L207.7188,255.9219 L211.7188,255.9219 L211.7188,257.375 L210.9844,257.375 L210.9844,267.4063 Z "/><text fill="#000000" font-family="Ricty Diminished" font-size="12" font-style="italic" lengthAdjust="spacingAndGlyphs" textLength="114" x="224" y="266.218">SevenSegmentDisplay</text><line style="stroke: #383838; stroke-width: 1.5;" x1="196" x2="340" y1="278.5" y2="278.5"/><line style="stroke: #383838; stroke-width: 1.5;" x1="196" x2="340" y1="286.5" y2="286.5"/><ellipse cx="206" cy="297.5" fill="#A6A6A6" rx="3" ry="3" style="stroke: #545454; stroke-width: 1.0;"/><text fill="#000000" font-family="Ricty Diminished" font-size="11" lengthAdjust="spacingAndGlyphs" textLength="54" x="215" y="299.6736">Id(): int</text><ellipse cx="206" cy="309.0356" fill="#A6A6A6" rx="3" ry="3" style="stroke: #545454; stroke-width: 1.0;"/><text fill="#000000" font-family="Ricty Diminished" font-size="11" lengthAdjust="spacingAndGlyphs" textLength="108" x="215" y="311.2092">Tag(): const char*</text><ellipse cx="206" cy="320.5713" fill="#A6A6A6" rx="3" ry="3" style="stroke: #545454; stroke-width: 1.0;"/><text fill="#000000" font-family="Ricty Diminished" font-size="11" lengthAdjust="spacingAndGlyphs" textLength="42" x="215" y="322.7449">Clear()</text><ellipse cx="206" cy="332.1069" fill="#A6A6A6" rx="3" ry="3" style="stroke: #545454; stroke-width: 1.0;"/><text fill="#000000" font-family="Ricty Diminished" font-size="11" lengthAdjust="spacingAndGlyphs" textLength="84" x="215" y="334.2805">Get(): uint8_t</text><ellipse cx="206" cy="343.6426" fill="#A6A6A6" rx="3" ry="3" style="stroke: #545454; stroke-width: 1.0;"/><text fill="#000000" font-family="Ricty Diminished" font-size="11" lengthAdjust="spacingAndGlyphs" textLength="72" x="215" y="345.8162">Set(uint8_t)</text><!--class SevenSegmentDisplayFactory--><rect fill="#F8F8F8" filter="url(#f1if53xfdoyh3t)" height="59.5356" id="SevenSegmentDisplayFactory" style="stroke: #383838; stroke-width: 1.5;" width="192" x="376" y="269.5"/><ellipse cx="392.8" cy="285.5" fill="#B1B1B1" rx="11" ry="11" style="stroke: #383838; stroke-width: 1.0;"/><path d="M393.7844,290.4063 L394.5188,290.4063 L394.5188,291.8594 L390.5188,291.8594 L390.5188,290.4063 L391.2531,290.4063 L391.2531,280.375 L390.5188,280.375 L390.5188,278.9219 L394.5188,278.9219 L394.5188,280.375 L393.7844,280.375 L393.7844,290.4063 Z "/><text fill="#000000" font-family="Ricty Diminished" font-size="12" font-style="italic" lengthAdjust="spacingAndGlyphs" textLength="156" x="407.2" y="289.218">SevenSegmentDisplayFactory</text><line style="stroke: #383838; stroke-width: 1.5;" x1="377" x2="567" y1="301.5" y2="301.5"/><line style="stroke: #383838; stroke-width: 1.5;" x1="377" x2="567" y1="309.5" y2="309.5"/><text fill="#000000" font-family="Ricty Diminished" font-size="11" lengthAdjust="spacingAndGlyphs" textLength="180" x="382" y="322.6736">Make(int): SevenSegmentDisplay</text><!--class NullSevenSegmentDisplay--><rect fill="#F8F8F8" filter="url(#f1if53xfdoyh3t)" height="48" id="NullSevenSegmentDisplay" style="stroke: #383838; stroke-width: 1.5;" width="170" x="195" y="475.5"/><ellipse cx="210" cy="491.5" fill="#C2C2C2" rx="11" ry="11" style="stroke: #383838; stroke-width: 1.0;"/><path d="M212.7031,496.9375 Q211.7813,497.8594 209.5156,497.8594 Q208.25,497.8594 207.3281,496.9375 Q205.6719,495.2813 205.6719,491.75 Q205.6719,487.6406 207.4531,485.8438 Q208.3906,484.9219 209.5781,484.9219 Q211.8438,484.9219 212.5781,485.6406 Q213.9688,487.0469 213.9063,489.4375 L211.4375,489.4375 Q211.375,487.3125 210.6406,486.5781 Q210.25,486.1719 209.5781,486.1719 Q209.5781,486.1719 209.5156,486.6406 Q208.1875,487.9688 208.1875,491.625 Q208.1875,494.8125 209.3281,495.9375 Q209.8594,496.4688 209.8594,496.4688 Q210.1094,496.4688 210.6406,495.9375 Q211.3125,495.2813 211.375,492.8906 L213.9688,492.8906 Q213.7656,495.875 212.7031,496.9375 Z "/><text fill="#000000" font-family="Ricty Diminished" font-size="12" lengthAdjust="spacingAndGlyphs" textLength="138" x="224" y="495.218">NullSevenSegmentDisplay</text><line style="stroke: #383838; stroke-width: 1.5;" x1="196" x2="364" y1="507.5" y2="507.5"/><line style="stroke: #383838; stroke-width: 1.5;" x1="196" x2="364" y1="515.5" y2="515.5"/><!--reverse link LedArray to LedArrayFactory--><path d="M872.201,499.5 C882.086,499.5 891.971,499.5 901.856,499.5 " fill="none" id="LedArray&lt;-LedArrayFactory" style="stroke: #383838; stroke-width: 1.0;"/><polygon fill="#383838" points="867.031,499.5,876.031,503.5,872.031,499.5,876.031,495.5,867.031,499.5" style="stroke: #383838; stroke-width: 1.0;"/><!--reverse link LedArray to NullLedArray--><path d="M800,601.393 C800,616.149 800,630.023 800,640.943 " fill="none" id="LedArray&lt;-NullLedArray" style="stroke: #383838; stroke-width: 1.0;"/><polygon fill="none" points="793,601.292,800,581.292,807,601.292,793,601.292" style="stroke: #383838; stroke-width: 1.0;"/><!--reverse link Led to LedArray--><path d="M732.413,375.727 C740.02,389.546 747.99,404.023 755.679,417.99 " fill="none" id="Led&lt;-LedArray" style="stroke: #383838; stroke-width: 1.0; stroke-dasharray: 7.0,7.0;"/><polygon fill="none" points="726.187,378.932,722.674,358.036,738.451,372.181,726.187,378.932" style="stroke: #383838; stroke-width: 1.0;"/><!--reverse link LedFactory to LedArrayFactory--><path d="M869.971,346.76 C893.731,384.7 926.632,437.235 946.83,469.487 " fill="none" id="LedFactory&lt;-LedArrayFactory" style="stroke: #383838; stroke-width: 1.0; stroke-dasharray: 7.0,7.0;"/><polygon fill="none" points="863.979,350.381,859.297,329.716,875.845,342.951,863.979,350.381" style="stroke: #383838; stroke-width: 1.0;"/><!--reverse link Led to LedFactory--><path d="M763.234,299.5 C773.07,299.5 782.907,299.5 792.744,299.5 " fill="none" id="Led&lt;-LedFactory" style="stroke: #383838; stroke-width: 1.0;"/><polygon fill="#383838" points="758.09,299.5,767.09,303.5,763.09,299.5,767.09,295.5,758.09,299.5" style="stroke: #383838; stroke-width: 1.0;"/><!--reverse link Led to NullLed--><path d="M679.254,378.025 C673.963,412.947 668.104,451.616 664.486,475.492 " fill="none" id="Led&lt;-NullLed" style="stroke: #383838; stroke-width: 1.0;"/><polygon fill="none" points="672.365,376.761,682.282,358.036,686.207,378.859,672.365,376.761" style="stroke: #383838; stroke-width: 1.0;"/><!--reverse link SevenSegmentDisplay to SevenSegmentDisplayFactory--><path d="M346.427,299.5 C356.209,299.5 365.99,299.5 375.771,299.5 " fill="none" id="SevenSegmentDisplay&lt;-SevenSegmentDisplayFactory" style="stroke: #383838; stroke-width: 1.0;"/><polygon fill="#383838" points="341.313,299.5,350.313,303.5,346.313,299.5,350.313,295.5,341.313,299.5" style="stroke: #383838; stroke-width: 1.0;"/><!--reverse link SevenSegmentDisplay to NullSevenSegmentDisplay--><path d="M272.367,372.549 C274.564,408.812 277.079,450.298 278.602,475.436 " fill="none" id="SevenSegmentDisplay&lt;-NullSevenSegmentDisplay" style="stroke: #383838; stroke-width: 1.0;"/><polygon fill="none" points="265.376,372.909,271.153,352.522,279.35,372.062,265.376,372.909" style="stroke: #383838; stroke-width: 1.0;"/><!--reverse link Display to DisplayFactory--><path d="M361.412,139.5 C378.22,139.5 395.028,139.5 411.836,139.5 " fill="none" id="Display&lt;-DisplayFactory" style="stroke: #383838; stroke-width: 1.0;"/><polygon fill="#383838" points="356.195,139.5,365.195,143.5,361.195,139.5,365.195,135.5,356.195,139.5" style="stroke: #383838; stroke-width: 1.0;"/><!--reverse link Display to NullDisplay--><path d="M204.769,180.562 C195.637,186.479 186.83,192.976 179,200 C154.715,221.786 134.642,253.897 122.748,275.475 " fill="none" id="Display&lt;-NullDisplay" style="stroke: #383838; stroke-width: 1.0;"/><polygon fill="none" points="201.233,174.52,221.984,170.232,208.436,186.525,201.233,174.52" style="stroke: #383838; stroke-width: 1.0;"/><!--reverse link Display to Led--><path d="M375.38,175.889 C381.624,177.806 387.873,179.54 394,181 C476.555,200.67 506.575,165.251 584,200 C605.308,209.563 625.187,225.075 641.888,240.989 " fill="none" id="Display&lt;-Led" style="stroke: #383838; stroke-width: 1.0; stroke-dasharray: 7.0,7.0;"/><polygon fill="none" points="372.96,182.461,356.215,169.475,377.403,169.184,372.96,182.461" style="stroke: #383838; stroke-width: 1.0;"/><!--reverse link DisplayFactory to LedFactory--><path d="M552.372,149.248 C629.448,158.872 739.229,176.195 775,200 C800.191,216.764 818.214,246.754 828.994,269.253 " fill="none" id="DisplayFactory&lt;-LedFactory" style="stroke: #383838; stroke-width: 1.0; stroke-dasharray: 7.0,7.0;"/><polygon fill="none" points="551.094,156.144,532.078,146.796,552.774,142.246,551.094,156.144" style="stroke: #383838; stroke-width: 1.0;"/><!--reverse link Display to SevenSegmentDisplay--><path d="M280.949,201.073 C278.967,215.986 276.862,231.827 274.937,246.305 " fill="none" id="Display&lt;-SevenSegmentDisplay" style="stroke: #383838; stroke-width: 1.0; stroke-dasharray: 7.0,7.0;"/><polygon fill="none" points="274.018,200.092,283.592,181.189,287.896,201.937,274.018,200.092" style="stroke: #383838; stroke-width: 1.0;"/><!--reverse link DisplayFactory to SevenSegmentDisplayFactory--><path d="M472,190.234 C472,216.243 472,247.179 472,269.309 " fill="none" id="DisplayFactory&lt;-SevenSegmentDisplayFactory" style="stroke: #383838; stroke-width: 1.0; stroke-dasharray: 7.0,7.0;"/><polygon fill="none" points="465,189.848,472,169.848,479,189.848,465,189.848" style="stroke: #383838; stroke-width: 1.0;"/><!--
@startuml display_class_diagram
skinparam {
    defaultFontName Ricty Diminished
    monochrome true
}

package Golem {
    folder displays {
        interface Display {
            + Id(): int
            + Tag(): const char*
            + Reset()
        }
        interface DisplayFactory {
            Make(int): Display
        }
        class NullDisplay
        folder leds {
            interface Led {
                + Id(): int
                + Tag(): const char*
                + TurnOff()
                + TurnOn()
                + IsOff(): bool
                + IsOn(): bool
            }
            interface LedFactory {
                Make(int): Led
            }
            class NullLed
            folder led_array {
                interface LedArray {
                + Id(): int
                + Tag(): const char*
                + TurnAllOff()
                + TurnAllOn()
                + IsAllOff(): bool
                + IsAllOn(): bool
                + TurnOff(int)
                + TurnOn(int)
                + IsOff(int): bool
                + IsOn(int): bool
                }
                interface LedArrayFactory {
                    Make(int): LedArray
                }
                class NullLedArray
                LedArray <- LedArrayFactory
                LedArray <|- - NullLedArray
                Led <|.. LedArray
                LedFactory <|.. LedArrayFactory
            }
            Led <- LedFactory
            Led <|- - NullLed
        }
        folder seven_segment_display {
            interface SevenSegmentDisplay {
                + Id(): int
                + Tag(): const char*
                + Clear()
                + Get(): uint8_t
                + Set(uint8_t)
            }
            interface SevenSegmentDisplayFactory {
                Make(int): SevenSegmentDisplay
            }
            class NullSevenSegmentDisplay
            SevenSegmentDisplay <- SevenSegmentDisplayFactory
            SevenSegmentDisplay <|- - NullSevenSegmentDisplay
        }
        Display <- DisplayFactory
        Display <|- - NullDisplay
        Display <|.. Led
        DisplayFactory <|.. LedFactory
        Display <|.. SevenSegmentDisplay
        DisplayFactory <|.. SevenSegmentDisplayFactory
    }
}
@enduml

PlantUML version 1.2019.09(Tue Aug 27 01:19:51 JST 2019)
(GPL source distribution)
Java Runtime: Java(TM) SE Runtime Environment
JVM: Java HotSpot(TM) 64-Bit Server VM
Java Version: 1.8.0_221-b11
Operating System: Windows 10
OS Version: 10.0
Default Encoding: MS932
Language: en
Country: GB
--></g></svg>