<?xml version="1.0" encoding="UTF-8" standalone="no"?><svg xmlns="http://www.w3.org/2000/svg" xmlns:xlink="http://www.w3.org/1999/xlink" contentScriptType="application/ecmascript" contentStyleType="text/css" height="937px" preserveAspectRatio="none" style="width:1035px;height:937px;" version="1.1" viewBox="0 0 1035 937" width="1035px" zoomAndPan="magnify"><defs><filter height="300%" id="f1il00390awa8y" width="300%" x="-1" y="-1"><feGaussianBlur result="blurOut" stdDeviation="2.0"/><feColorMatrix in="blurOut" result="blurOut2" type="matrix" values="0 0 0 0 0 0 0 0 0 0 0 0 0 0 0 0 0 0 .4 0"/><feOffset dx="4.0" dy="4.0" in="blurOut2" result="blurOut3"/><feBlend in="SourceGraphic" in2="blurOut3" mode="normal"/></filter></defs><g><!--cluster Golem--><polygon fill="#FFFFFF" filter="url(#f1il00390awa8y)" points="22,24,63,24,70,44.6919,1013,44.6919,1013,925,22,925,22,24" style="stroke: #000000; stroke-width: 1.5;"/><line style="stroke: #000000; stroke-width: 1.5;" x1="22" x2="70" y1="44.6919" y2="44.6919"/><text fill="#000000" font-family="Ricty Diminished" font-size="14" font-weight="bold" lengthAdjust="spacingAndGlyphs" textLength="35" x="26" y="37.6836">Golem</text><!--cluster displays--><polygon fill="#FFFFFF" filter="url(#f1il00390awa8y)" points="46,132,108,132,115,152.6919,989,152.6919,989,901,46,901,46,132" style="stroke: #000000; stroke-width: 1.5;"/><line style="stroke: #000000; stroke-width: 1.5;" x1="46" x2="115" y1="152.6919" y2="152.6919"/><text fill="#000000" font-family="Ricty Diminished" font-size="14" font-weight="bold" lengthAdjust="spacingAndGlyphs" textLength="56" x="50" y="145.6836">displays</text><!--cluster leds--><polygon fill="#FFFFFF" filter="url(#f1il00390awa8y)" points="248,298,282,298,289,318.6919,709,318.6919,709,877,248,877,248,298" style="stroke: #000000; stroke-width: 1.5;"/><line style="stroke: #000000; stroke-width: 1.5;" x1="248" x2="289" y1="318.6919" y2="318.6919"/><text fill="#000000" font-family="Ricty Diminished" font-size="14" font-weight="bold" lengthAdjust="spacingAndGlyphs" textLength="28" x="252" y="311.6836">leds</text><!--cluster led_arrays--><polygon fill="#FFFFFF" filter="url(#f1il00390awa8y)" points="453,498,529,498,536,518.6919,685,518.6919,685,853,453,853,453,498" style="stroke: #000000; stroke-width: 1.5;"/><line style="stroke: #000000; stroke-width: 1.5;" x1="453" x2="536" y1="518.6919" y2="518.6919"/><text fill="#000000" font-family="Ricty Diminished" font-size="14" font-weight="bold" lengthAdjust="spacingAndGlyphs" textLength="70" x="457" y="511.6836">led_arrays</text><!--cluster seven_segment_displays--><polygon fill="#FFFFFF" filter="url(#f1il00390awa8y)" points="733,303.5,893,303.5,900,324.1919,965,324.1919,965,670,733,670,733,303.5" style="stroke: #000000; stroke-width: 1.5;"/><line style="stroke: #000000; stroke-width: 1.5;" x1="733" x2="900" y1="324.1919" y2="324.1919"/><text fill="#000000" font-family="Ricty Diminished" font-size="14" font-weight="bold" lengthAdjust="spacingAndGlyphs" textLength="154" x="737" y="317.1836">seven_segment_displays</text><!--class Component--><rect fill="#F8F8F8" filter="url(#f1il00390awa8y)" height="48" id="Component" style="stroke: #383838; stroke-width: 1.5;" width="86" x="425" y="57"/><ellipse cx="440" cy="73" fill="#B1B1B1" rx="11" ry="11" style="stroke: #383838; stroke-width: 1.0;"/><path d="M440.9844,77.9063 L441.7188,77.9063 L441.7188,79.3594 L437.7188,79.3594 L437.7188,77.9063 L438.4531,77.9063 L438.4531,67.875 L437.7188,67.875 L437.7188,66.4219 L441.7188,66.4219 L441.7188,67.875 L440.9844,67.875 L440.9844,77.9063 Z "/><text fill="#000000" font-family="Ricty Diminished" font-size="12" font-style="italic" lengthAdjust="spacingAndGlyphs" textLength="54" x="454" y="76.718">Component</text><line style="stroke: #383838; stroke-width: 1.5;" x1="426" x2="510" y1="89" y2="89"/><line style="stroke: #383838; stroke-width: 1.5;" x1="426" x2="510" y1="97" y2="97"/><!--class Display--><rect fill="#F8F8F8" filter="url(#f1il00390awa8y)" height="105.6782" id="Display" style="stroke: #383838; stroke-width: 1.5;" width="200" x="368" y="165"/><ellipse cx="442.75" cy="181" fill="#B1B1B1" rx="11" ry="11" style="stroke: #383838; stroke-width: 1.0;"/><path d="M443.7344,185.9063 L444.4688,185.9063 L444.4688,187.3594 L440.4688,187.3594 L440.4688,185.9063 L441.2031,185.9063 L441.2031,175.875 L440.4688,175.875 L440.4688,174.4219 L444.4688,174.4219 L444.4688,175.875 L443.7344,175.875 L443.7344,185.9063 Z "/><text fill="#000000" font-family="Ricty Diminished" font-size="12" font-style="italic" lengthAdjust="spacingAndGlyphs" textLength="42" x="463.25" y="184.718">Display</text><line style="stroke: #383838; stroke-width: 1.5;" x1="369" x2="567" y1="197" y2="197"/><line style="stroke: #383838; stroke-width: 1.5;" x1="369" x2="567" y1="205" y2="205"/><ellipse cx="379" cy="216" fill="#A6A6A6" rx="3" ry="3" style="stroke: #545454; stroke-width: 1.0;"/><text fill="#000000" font-family="Ricty Diminished" font-size="11" lengthAdjust="spacingAndGlyphs" textLength="108" x="388" y="218.1736">Delete(Component*)</text><ellipse cx="379" cy="227.5356" fill="#A6A6A6" rx="3" ry="3" style="stroke: #545454; stroke-width: 1.0;"/><text fill="#000000" font-family="Ricty Diminished" font-size="11" lengthAdjust="spacingAndGlyphs" textLength="108" x="388" y="229.7092">Id(Component): int</text><ellipse cx="379" cy="239.0713" fill="#A6A6A6" rx="3" ry="3" style="stroke: #545454; stroke-width: 1.0;"/><text fill="#000000" font-family="Ricty Diminished" font-size="11" lengthAdjust="spacingAndGlyphs" textLength="162" x="388" y="241.2449">Tag(Component): const char*</text><ellipse cx="379" cy="250.6069" fill="#A6A6A6" rx="3" ry="3" style="stroke: #545454; stroke-width: 1.0;"/><text fill="#000000" font-family="Ricty Diminished" font-size="11" lengthAdjust="spacingAndGlyphs" textLength="174" x="388" y="252.7805">State(Component): const char*</text><ellipse cx="379" cy="262.1426" fill="#A6A6A6" rx="3" ry="3" style="stroke: #545454; stroke-width: 1.0;"/><text fill="#000000" font-family="Ricty Diminished" font-size="11" lengthAdjust="spacingAndGlyphs" textLength="96" x="388" y="264.3162">Reset(Component)</text><!--class NullDisplay--><rect fill="#F8F8F8" filter="url(#f1il00390awa8y)" height="59.5356" id="NullDisplay" style="stroke: #383838; stroke-width: 1.5;" width="170" x="62" y="371"/><ellipse cx="109.75" cy="387" fill="#C2C2C2" rx="11" ry="11" style="stroke: #383838; stroke-width: 1.0;"/><path d="M112.4531,392.4375 Q111.5313,393.3594 109.2656,393.3594 Q108,393.3594 107.0781,392.4375 Q105.4219,390.7813 105.4219,387.25 Q105.4219,383.1406 107.2031,381.3438 Q108.1406,380.4219 109.3281,380.4219 Q111.5938,380.4219 112.3281,381.1406 Q113.7188,382.5469 113.6563,384.9375 L111.1875,384.9375 Q111.125,382.8125 110.3906,382.0781 Q110,381.6719 109.3281,381.6719 Q109.3281,381.6719 109.2656,382.1406 Q107.9375,383.4688 107.9375,387.125 Q107.9375,390.3125 109.0781,391.4375 Q109.6094,391.9688 109.6094,391.9688 Q109.8594,391.9688 110.3906,391.4375 Q111.0625,390.7813 111.125,388.3906 L113.7188,388.3906 Q113.5156,391.375 112.4531,392.4375 Z "/><text fill="#000000" font-family="Ricty Diminished" font-size="12" lengthAdjust="spacingAndGlyphs" textLength="66" x="130.25" y="390.718">NullDisplay</text><line style="stroke: #383838; stroke-width: 1.5;" x1="63" x2="231" y1="403" y2="403"/><line style="stroke: #383838; stroke-width: 1.5;" x1="63" x2="231" y1="411" y2="411"/><ellipse cx="73" cy="422" fill="#A6A6A6" rx="3" ry="3" style="stroke: #545454; stroke-width: 1.0;"/><text fill="#000000" font-family="Ricty Diminished" font-size="11" lengthAdjust="spacingAndGlyphs" textLength="144" x="82" y="424.1736">GetInstance(): Component</text><!--class Led--><rect fill="#F8F8F8" filter="url(#f1il00390awa8y)" height="140.2852" id="Led" style="stroke: #383838; stroke-width: 1.5;" width="200" x="368" y="331"/><ellipse cx="454.75" cy="347" fill="#B1B1B1" rx="11" ry="11" style="stroke: #383838; stroke-width: 1.0;"/><path d="M455.7344,351.9063 L456.4688,351.9063 L456.4688,353.3594 L452.4688,353.3594 L452.4688,351.9063 L453.2031,351.9063 L453.2031,341.875 L452.4688,341.875 L452.4688,340.4219 L456.4688,340.4219 L456.4688,341.875 L455.7344,341.875 L455.7344,351.9063 Z "/><text fill="#000000" font-family="Ricty Diminished" font-size="12" font-style="italic" lengthAdjust="spacingAndGlyphs" textLength="18" x="475.25" y="350.718">Led</text><line style="stroke: #383838; stroke-width: 1.5;" x1="369" x2="567" y1="363" y2="363"/><line style="stroke: #383838; stroke-width: 1.5;" x1="369" x2="567" y1="371" y2="371"/><ellipse cx="379" cy="382" fill="#A6A6A6" rx="3" ry="3" style="stroke: #545454; stroke-width: 1.0;"/><text fill="#000000" font-family="Ricty Diminished" font-size="11" lengthAdjust="spacingAndGlyphs" textLength="108" x="388" y="384.1736">Delete(Component*)</text><ellipse cx="379" cy="393.5356" fill="#A6A6A6" rx="3" ry="3" style="stroke: #545454; stroke-width: 1.0;"/><text fill="#000000" font-family="Ricty Diminished" font-size="11" lengthAdjust="spacingAndGlyphs" textLength="108" x="388" y="395.7092">Id(Component): int</text><ellipse cx="379" cy="405.0713" fill="#A6A6A6" rx="3" ry="3" style="stroke: #545454; stroke-width: 1.0;"/><text fill="#000000" font-family="Ricty Diminished" font-size="11" lengthAdjust="spacingAndGlyphs" textLength="162" x="388" y="407.2449">Tag(Component): const char*</text><ellipse cx="379" cy="416.6069" fill="#A6A6A6" rx="3" ry="3" style="stroke: #545454; stroke-width: 1.0;"/><text fill="#000000" font-family="Ricty Diminished" font-size="11" lengthAdjust="spacingAndGlyphs" textLength="174" x="388" y="418.7805">State(Component): const char*</text><ellipse cx="379" cy="428.1426" fill="#A6A6A6" rx="3" ry="3" style="stroke: #545454; stroke-width: 1.0;"/><text fill="#000000" font-family="Ricty Diminished" font-size="11" lengthAdjust="spacingAndGlyphs" textLength="108" x="388" y="430.3162">TurnOff(Component)</text><ellipse cx="379" cy="439.6782" fill="#A6A6A6" rx="3" ry="3" style="stroke: #545454; stroke-width: 1.0;"/><text fill="#000000" font-family="Ricty Diminished" font-size="11" lengthAdjust="spacingAndGlyphs" textLength="102" x="388" y="441.8518">TurnOn(Component)</text><ellipse cx="379" cy="451.2139" fill="#A6A6A6" rx="3" ry="3" style="stroke: #545454; stroke-width: 1.0;"/><text fill="#000000" font-family="Ricty Diminished" font-size="11" lengthAdjust="spacingAndGlyphs" textLength="132" x="388" y="453.3875">IsOff(Component): bool</text><ellipse cx="379" cy="462.7495" fill="#A6A6A6" rx="3" ry="3" style="stroke: #545454; stroke-width: 1.0;"/><text fill="#000000" font-family="Ricty Diminished" font-size="11" lengthAdjust="spacingAndGlyphs" textLength="126" x="388" y="464.9231">IsOn(Component): bool</text><!--class NullLed--><rect fill="#F8F8F8" filter="url(#f1il00390awa8y)" height="59.5356" id="NullLed" style="stroke: #383838; stroke-width: 1.5;" width="170" x="264" y="594"/><ellipse cx="323.75" cy="610" fill="#C2C2C2" rx="11" ry="11" style="stroke: #383838; stroke-width: 1.0;"/><path d="M326.4531,615.4375 Q325.5313,616.3594 323.2656,616.3594 Q322,616.3594 321.0781,615.4375 Q319.4219,613.7813 319.4219,610.25 Q319.4219,606.1406 321.2031,604.3438 Q322.1406,603.4219 323.3281,603.4219 Q325.5938,603.4219 326.3281,604.1406 Q327.7188,605.5469 327.6563,607.9375 L325.1875,607.9375 Q325.125,605.8125 324.3906,605.0781 Q324,604.6719 323.3281,604.6719 Q323.3281,604.6719 323.2656,605.1406 Q321.9375,606.4688 321.9375,610.125 Q321.9375,613.3125 323.0781,614.4375 Q323.6094,614.9688 323.6094,614.9688 Q323.8594,614.9688 324.3906,614.4375 Q325.0625,613.7813 325.125,611.3906 L327.7188,611.3906 Q327.5156,614.375 326.4531,615.4375 Z "/><text fill="#000000" font-family="Ricty Diminished" font-size="12" lengthAdjust="spacingAndGlyphs" textLength="42" x="344.25" y="613.718">NullLed</text><line style="stroke: #383838; stroke-width: 1.5;" x1="265" x2="433" y1="626" y2="626"/><line style="stroke: #383838; stroke-width: 1.5;" x1="265" x2="433" y1="634" y2="634"/><ellipse cx="275" cy="645" fill="#A6A6A6" rx="3" ry="3" style="stroke: #545454; stroke-width: 1.0;"/><text fill="#000000" font-family="Ricty Diminished" font-size="11" lengthAdjust="spacingAndGlyphs" textLength="144" x="284" y="647.1736">GetInstance(): Component</text><!--class LedArray--><rect fill="#F8F8F8" filter="url(#f1il00390awa8y)" height="186.4277" id="LedArray" style="stroke: #383838; stroke-width: 1.5;" width="200" x="469" y="531"/><ellipse cx="540.75" cy="547" fill="#B1B1B1" rx="11" ry="11" style="stroke: #383838; stroke-width: 1.0;"/><path d="M541.7344,551.9063 L542.4688,551.9063 L542.4688,553.3594 L538.4688,553.3594 L538.4688,551.9063 L539.2031,551.9063 L539.2031,541.875 L538.4688,541.875 L538.4688,540.4219 L542.4688,540.4219 L542.4688,541.875 L541.7344,541.875 L541.7344,551.9063 Z "/><text fill="#000000" font-family="Ricty Diminished" font-size="12" font-style="italic" lengthAdjust="spacingAndGlyphs" textLength="48" x="561.25" y="550.718">LedArray</text><line style="stroke: #383838; stroke-width: 1.5;" x1="470" x2="668" y1="563" y2="563"/><line style="stroke: #383838; stroke-width: 1.5;" x1="470" x2="668" y1="571" y2="571"/><ellipse cx="480" cy="582" fill="#A6A6A6" rx="3" ry="3" style="stroke: #545454; stroke-width: 1.0;"/><text fill="#000000" font-family="Ricty Diminished" font-size="11" lengthAdjust="spacingAndGlyphs" textLength="108" x="489" y="584.1736">Delete(Component*)</text><ellipse cx="480" cy="593.5356" fill="#A6A6A6" rx="3" ry="3" style="stroke: #545454; stroke-width: 1.0;"/><text fill="#000000" font-family="Ricty Diminished" font-size="11" lengthAdjust="spacingAndGlyphs" textLength="108" x="489" y="595.7092">Id(Component): int</text><ellipse cx="480" cy="605.0713" fill="#A6A6A6" rx="3" ry="3" style="stroke: #545454; stroke-width: 1.0;"/><text fill="#000000" font-family="Ricty Diminished" font-size="11" lengthAdjust="spacingAndGlyphs" textLength="162" x="489" y="607.2449">Tag(Component): const char*</text><ellipse cx="480" cy="616.6069" fill="#A6A6A6" rx="3" ry="3" style="stroke: #545454; stroke-width: 1.0;"/><text fill="#000000" font-family="Ricty Diminished" font-size="11" lengthAdjust="spacingAndGlyphs" textLength="174" x="489" y="618.7805">State(Component): const char*</text><ellipse cx="480" cy="628.1426" fill="#A6A6A6" rx="3" ry="3" style="stroke: #545454; stroke-width: 1.0;"/><text fill="#000000" font-family="Ricty Diminished" font-size="11" lengthAdjust="spacingAndGlyphs" textLength="126" x="489" y="630.3162">TurnAllOff(Component)</text><ellipse cx="480" cy="639.6782" fill="#A6A6A6" rx="3" ry="3" style="stroke: #545454; stroke-width: 1.0;"/><text fill="#000000" font-family="Ricty Diminished" font-size="11" lengthAdjust="spacingAndGlyphs" textLength="120" x="489" y="641.8518">TurnAllOn(Component)</text><ellipse cx="480" cy="651.2139" fill="#A6A6A6" rx="3" ry="3" style="stroke: #545454; stroke-width: 1.0;"/><text fill="#000000" font-family="Ricty Diminished" font-size="11" lengthAdjust="spacingAndGlyphs" textLength="150" x="489" y="653.3875">IsAllOff(Component): bool</text><ellipse cx="480" cy="662.7495" fill="#A6A6A6" rx="3" ry="3" style="stroke: #545454; stroke-width: 1.0;"/><text fill="#000000" font-family="Ricty Diminished" font-size="11" lengthAdjust="spacingAndGlyphs" textLength="144" x="489" y="664.9231">IsAllOn(Component): bool</text><ellipse cx="480" cy="674.2852" fill="#A6A6A6" rx="3" ry="3" style="stroke: #545454; stroke-width: 1.0;"/><text fill="#000000" font-family="Ricty Diminished" font-size="11" lengthAdjust="spacingAndGlyphs" textLength="138" x="489" y="676.4587">TurnOff(Component, int)</text><ellipse cx="480" cy="685.8208" fill="#A6A6A6" rx="3" ry="3" style="stroke: #545454; stroke-width: 1.0;"/><text fill="#000000" font-family="Ricty Diminished" font-size="11" lengthAdjust="spacingAndGlyphs" textLength="132" x="489" y="687.9944">TurnOn(Component, int)</text><ellipse cx="480" cy="697.3564" fill="#A6A6A6" rx="3" ry="3" style="stroke: #545454; stroke-width: 1.0;"/><text fill="#000000" font-family="Ricty Diminished" font-size="11" lengthAdjust="spacingAndGlyphs" textLength="162" x="489" y="699.53">IsOff(Component, int): bool</text><ellipse cx="480" cy="708.8921" fill="#A6A6A6" rx="3" ry="3" style="stroke: #545454; stroke-width: 1.0;"/><text fill="#000000" font-family="Ricty Diminished" font-size="11" lengthAdjust="spacingAndGlyphs" textLength="156" x="489" y="711.0657">IsOn(Component, int): bool</text><!--class NullLedArray--><rect fill="#F8F8F8" filter="url(#f1il00390awa8y)" height="59.5356" id="NullLedArray" style="stroke: #383838; stroke-width: 1.5;" width="170" x="484" y="777"/><ellipse cx="528.75" cy="793" fill="#C2C2C2" rx="11" ry="11" style="stroke: #383838; stroke-width: 1.0;"/><path d="M531.4531,798.4375 Q530.5313,799.3594 528.2656,799.3594 Q527,799.3594 526.0781,798.4375 Q524.4219,796.7813 524.4219,793.25 Q524.4219,789.1406 526.2031,787.3438 Q527.1406,786.4219 528.3281,786.4219 Q530.5938,786.4219 531.3281,787.1406 Q532.7188,788.5469 532.6563,790.9375 L530.1875,790.9375 Q530.125,788.8125 529.3906,788.0781 Q529,787.6719 528.3281,787.6719 Q528.3281,787.6719 528.2656,788.1406 Q526.9375,789.4688 526.9375,793.125 Q526.9375,796.3125 528.0781,797.4375 Q528.6094,797.9688 528.6094,797.9688 Q528.8594,797.9688 529.3906,797.4375 Q530.0625,796.7813 530.125,794.3906 L532.7188,794.3906 Q532.5156,797.375 531.4531,798.4375 Z "/><text fill="#000000" font-family="Ricty Diminished" font-size="12" lengthAdjust="spacingAndGlyphs" textLength="72" x="549.25" y="796.718">NullLedArray</text><line style="stroke: #383838; stroke-width: 1.5;" x1="485" x2="653" y1="809" y2="809"/><line style="stroke: #383838; stroke-width: 1.5;" x1="485" x2="653" y1="817" y2="817"/><ellipse cx="495" cy="828" fill="#A6A6A6" rx="3" ry="3" style="stroke: #545454; stroke-width: 1.0;"/><text fill="#000000" font-family="Ricty Diminished" font-size="11" lengthAdjust="spacingAndGlyphs" textLength="144" x="504" y="830.1736">GetInstance(): Component</text><!--class SevenSegmentDisplay--><rect fill="#F8F8F8" filter="url(#f1il00390awa8y)" height="128.7495" id="SevenSegmentDisplay" style="stroke: #383838; stroke-width: 1.5;" width="200" x="749" y="336.5"/><ellipse cx="788.3" cy="352.5" fill="#B1B1B1" rx="11" ry="11" style="stroke: #383838; stroke-width: 1.0;"/><path d="M789.2844,357.4063 L790.0188,357.4063 L790.0188,358.8594 L786.0188,358.8594 L786.0188,357.4063 L786.7531,357.4063 L786.7531,347.375 L786.0188,347.375 L786.0188,345.9219 L790.0188,345.9219 L790.0188,347.375 L789.2844,347.375 L789.2844,357.4063 Z "/><text fill="#000000" font-family="Ricty Diminished" font-size="12" font-style="italic" lengthAdjust="spacingAndGlyphs" textLength="114" x="807.7" y="356.218">SevenSegmentDisplay</text><line style="stroke: #383838; stroke-width: 1.5;" x1="750" x2="948" y1="368.5" y2="368.5"/><line style="stroke: #383838; stroke-width: 1.5;" x1="750" x2="948" y1="376.5" y2="376.5"/><ellipse cx="760" cy="387.5" fill="#A6A6A6" rx="3" ry="3" style="stroke: #545454; stroke-width: 1.0;"/><text fill="#000000" font-family="Ricty Diminished" font-size="11" lengthAdjust="spacingAndGlyphs" textLength="108" x="769" y="389.6736">Delete(Component*)</text><ellipse cx="760" cy="399.0356" fill="#A6A6A6" rx="3" ry="3" style="stroke: #545454; stroke-width: 1.0;"/><text fill="#000000" font-family="Ricty Diminished" font-size="11" lengthAdjust="spacingAndGlyphs" textLength="108" x="769" y="401.2092">Id(Component): int</text><ellipse cx="760" cy="410.5713" fill="#A6A6A6" rx="3" ry="3" style="stroke: #545454; stroke-width: 1.0;"/><text fill="#000000" font-family="Ricty Diminished" font-size="11" lengthAdjust="spacingAndGlyphs" textLength="162" x="769" y="412.7449">Tag(Component): const char*</text><ellipse cx="760" cy="422.1069" fill="#A6A6A6" rx="3" ry="3" style="stroke: #545454; stroke-width: 1.0;"/><text fill="#000000" font-family="Ricty Diminished" font-size="11" lengthAdjust="spacingAndGlyphs" textLength="174" x="769" y="424.2805">State(Component): const char*</text><ellipse cx="760" cy="433.6426" fill="#A6A6A6" rx="3" ry="3" style="stroke: #545454; stroke-width: 1.0;"/><text fill="#000000" font-family="Ricty Diminished" font-size="11" lengthAdjust="spacingAndGlyphs" textLength="96" x="769" y="435.8162">Clear(Component)</text><ellipse cx="760" cy="445.1782" fill="#A6A6A6" rx="3" ry="3" style="stroke: #545454; stroke-width: 1.0;"/><text fill="#000000" font-family="Ricty Diminished" font-size="11" lengthAdjust="spacingAndGlyphs" textLength="138" x="769" y="447.3518">Get(Component): uint8_t</text><ellipse cx="760" cy="456.7139" fill="#A6A6A6" rx="3" ry="3" style="stroke: #545454; stroke-width: 1.0;"/><text fill="#000000" font-family="Ricty Diminished" font-size="11" lengthAdjust="spacingAndGlyphs" textLength="138" x="769" y="458.8875">Set(Component, uint8_t)</text><!--class NullSevenSegmentDisplay--><rect fill="#F8F8F8" filter="url(#f1il00390awa8y)" height="59.5356" id="NullSevenSegmentDisplay" style="stroke: #383838; stroke-width: 1.5;" width="170" x="764" y="594"/><ellipse cx="779" cy="610" fill="#C2C2C2" rx="11" ry="11" style="stroke: #383838; stroke-width: 1.0;"/><path d="M781.7031,615.4375 Q780.7813,616.3594 778.5156,616.3594 Q777.25,616.3594 776.3281,615.4375 Q774.6719,613.7813 774.6719,610.25 Q774.6719,606.1406 776.4531,604.3438 Q777.3906,603.4219 778.5781,603.4219 Q780.8438,603.4219 781.5781,604.1406 Q782.9688,605.5469 782.9063,607.9375 L780.4375,607.9375 Q780.375,605.8125 779.6406,605.0781 Q779.25,604.6719 778.5781,604.6719 Q778.5781,604.6719 778.5156,605.1406 Q777.1875,606.4688 777.1875,610.125 Q777.1875,613.3125 778.3281,614.4375 Q778.8594,614.9688 778.8594,614.9688 Q779.1094,614.9688 779.6406,614.4375 Q780.3125,613.7813 780.375,611.3906 L782.9688,611.3906 Q782.7656,614.375 781.7031,615.4375 Z "/><text fill="#000000" font-family="Ricty Diminished" font-size="12" lengthAdjust="spacingAndGlyphs" textLength="138" x="793" y="613.718">NullSevenSegmentDisplay</text><line style="stroke: #383838; stroke-width: 1.5;" x1="765" x2="933" y1="626" y2="626"/><line style="stroke: #383838; stroke-width: 1.5;" x1="765" x2="933" y1="634" y2="634"/><ellipse cx="775" cy="645" fill="#A6A6A6" rx="3" ry="3" style="stroke: #545454; stroke-width: 1.0;"/><text fill="#000000" font-family="Ricty Diminished" font-size="11" lengthAdjust="spacingAndGlyphs" textLength="144" x="784" y="647.1736">GetInstance(): Component</text><!--reverse link LedArray to NullLedArray--><path d="M569,737.208 C569,751.713 569,765.427 569,776.737 " fill="none" id="LedArray&lt;-NullLedArray" style="stroke: #383838; stroke-width: 1.0;"/><polygon fill="none" points="562,737.091,569,717.091,576,737.091,562,737.091" style="stroke: #383838; stroke-width: 1.0;"/><!--reverse link Led to NullLed--><path d="M421.348,488.639 C401.289,525.892 379.183,566.945 364.752,593.746 " fill="none" id="Led&lt;-NullLed" style="stroke: #383838; stroke-width: 1.0;"/><polygon fill="none" points="415.192,485.307,430.837,471.017,427.518,491.945,415.192,485.307" style="stroke: #383838; stroke-width: 1.0;"/><!--reverse link Led to LedArray--><path d="M507.899,489.303 C514.159,503.001 520.647,517.198 526.954,530.998 " fill="none" id="Led&lt;-LedArray" style="stroke: #383838; stroke-width: 1.0; stroke-dasharray: 7.0,7.0;"/><polygon fill="none" points="501.488,492.117,499.542,471.017,514.222,486.297,501.488,492.117" style="stroke: #383838; stroke-width: 1.0;"/><!--reverse link SevenSegmentDisplay to NullSevenSegmentDisplay--><path d="M849,485.845 C849,523.817 849,566.254 849,593.727 " fill="none" id="SevenSegmentDisplay&lt;-NullSevenSegmentDisplay" style="stroke: #383838; stroke-width: 1.0;"/><polygon fill="none" points="842,485.626,849,465.626,856,485.626,842,485.626" style="stroke: #383838; stroke-width: 1.0;"/><!--reverse link Display to NullDisplay--><path d="M348.656,245.302 C314.517,255.986 278.362,270.535 248,290 C214.825,311.269 185.439,346.06 167.038,370.818 " fill="none" id="Display&lt;-NullDisplay" style="stroke: #383838; stroke-width: 1.0;"/><polygon fill="none" points="346.749,238.566,367.913,239.603,350.721,251.991,346.749,238.566" style="stroke: #383838; stroke-width: 1.0;"/><!--reverse link Display to Led--><path d="M468,291.75 C468,304.673 468,318.097 468,330.914 " fill="none" id="Display&lt;-Led" style="stroke: #383838; stroke-width: 1.0; stroke-dasharray: 7.0,7.0;"/><polygon fill="none" points="461,291.353,468,271.353,475,291.353,461,291.353" style="stroke: #383838; stroke-width: 1.0;"/><!--reverse link Display to SevenSegmentDisplay--><path d="M587.777,244.662 C627.598,255.681 671.358,270.583 709,290 C733.312,302.541 757.546,319.557 778.85,336.456 " fill="none" id="Display&lt;-SevenSegmentDisplay" style="stroke: #383838; stroke-width: 1.0; stroke-dasharray: 7.0,7.0;"/><polygon fill="none" points="585.818,251.385,568.285,239.485,589.412,237.854,585.818,251.385" style="stroke: #383838; stroke-width: 1.0;"/><!--reverse link Component to Display--><path d="M468,125.335 C468,137.875 468,151.697 468,164.722 " fill="none" id="Component&lt;-Display" style="stroke: #383838; stroke-width: 1.0; stroke-dasharray: 7.0,7.0;"/><polygon fill="none" points="461,125.207,468,105.207,475,125.207,461,125.207" style="stroke: #383838; stroke-width: 1.0;"/><!--
@startuml display_class_diagram
skinparam {
    defaultFontName Ricty Diminished
    monochrome true
}

package Golem {
    interface Component

    folder displays {
        interface Display {
            + Delete(Component*)
            + Id(Component): int
            + Tag(Component): const char*
            + State(Component): const char*
            + Reset(Component)
        }

        class NullDisplay {
            + GetInstance(): Component
        }

        folder leds {
            interface Led {
                + Delete(Component*)
                + Id(Component): int
                + Tag(Component): const char*
                + State(Component): const char*
                + TurnOff(Component)
                + TurnOn(Component)
                + IsOff(Component): bool
                + IsOn(Component): bool
            }

            class NullLed {
                + GetInstance(): Component
            }

            folder led_arrays {
                interface LedArray {
                    + Delete(Component*)
                    + Id(Component): int
                    + Tag(Component): const char*
                    + State(Component): const char*
                    + TurnAllOff(Component)
                    + TurnAllOn(Component)
                    + IsAllOff(Component): bool
                    + IsAllOn(Component): bool
                    + TurnOff(Component, int)
                    + TurnOn(Component, int)
                    + IsOff(Component, int): bool
                    + IsOn(Component, int): bool
                }

                class NullLedArray {
                    + GetInstance(): Component
                }

                LedArray <|- - NullLedArray
            }

            Led <|- - NullLed
            Led <|.. LedArray
        }

        folder seven_segment_displays {
            interface SevenSegmentDisplay {
                + Delete(Component*)
                + Id(Component): int
                + Tag(Component): const char*
                + State(Component): const char*
                + Clear(Component)
                + Get(Component): uint8_t
                + Set(Component, uint8_t)
            }

                class NullSevenSegmentDisplay {
                    + GetInstance(): Component
                }

            SevenSegmentDisplay <|- - NullSevenSegmentDisplay
        }

        Display <|- - NullDisplay
        Display <|.. Led
        Display <|.. SevenSegmentDisplay
    }

    Component <|.. Display
}
@enduml

PlantUML version 1.2019.09(Tue Aug 27 01:19:51 JST 2019)
(GPL source distribution)
Java Runtime: Java(TM) SE Runtime Environment
JVM: Java HotSpot(TM) 64-Bit Server VM
Java Version: 1.8.0_221-b11
Operating System: Windows 10
OS Version: 10.0
Default Encoding: MS932
Language: en
Country: GB
--></g></svg>