<?xml version="1.0" encoding="UTF-8" standalone="no"?><svg xmlns="http://www.w3.org/2000/svg" xmlns:xlink="http://www.w3.org/1999/xlink" contentScriptType="application/ecmascript" contentStyleType="text/css" height="570px" preserveAspectRatio="none" style="width:2399px;height:570px;" version="1.1" viewBox="0 0 2399 570" width="2399px" zoomAndPan="magnify"><defs><filter height="300%" id="f1wqwwcfktrtnr" width="300%" x="-1" y="-1"><feGaussianBlur result="blurOut" stdDeviation="2.0"/><feColorMatrix in="blurOut" result="blurOut2" type="matrix" values="0 0 0 0 0 0 0 0 0 0 0 0 0 0 0 0 0 0 .4 0"/><feOffset dx="4.0" dy="4.0" in="blurOut2" result="blurOut3"/><feBlend in="SourceGraphic" in2="blurOut3" mode="normal"/></filter></defs><g><!--cluster Golem--><polygon fill="#FFFFFF" filter="url(#f1wqwwcfktrtnr)" points="22,24,63,24,70,44.6919,2377,44.6919,2377,558,22,558,22,24" style="stroke: #000000; stroke-width: 1.5;"/><line style="stroke: #000000; stroke-width: 1.5;" x1="22" x2="70" y1="44.6919" y2="44.6919"/><text fill="#000000" font-family="Ricty Diminished" font-size="14" font-weight="bold" lengthAdjust="spacingAndGlyphs" textLength="35" x="26" y="37.6836">Golem</text><!--cluster sensors--><polygon fill="#FFFFFF" filter="url(#f1wqwwcfktrtnr)" points="46,155,101,155,108,175.6919,2353,175.6919,2353,534,46,534,46,155" style="stroke: #000000; stroke-width: 1.5;"/><line style="stroke: #000000; stroke-width: 1.5;" x1="46" x2="108" y1="175.6919" y2="175.6919"/><text fill="#000000" font-family="Ricty Diminished" font-size="14" font-weight="bold" lengthAdjust="spacingAndGlyphs" textLength="49" x="50" y="168.6836">sensors</text><!--cluster microswitches--><polygon fill="#FFFFFF" filter="url(#f1wqwwcfktrtnr)" points="70,332,167,332,174,352.6919,783,352.6919,783,510,70,510,70,332" style="stroke: #000000; stroke-width: 1.5;"/><line style="stroke: #000000; stroke-width: 1.5;" x1="70" x2="174" y1="352.6919" y2="352.6919"/><text fill="#000000" font-family="Ricty Diminished" font-size="14" font-weight="bold" lengthAdjust="spacingAndGlyphs" textLength="91" x="74" y="345.6836">microswitches</text><!--cluster photosensors--><polygon fill="#FFFFFF" filter="url(#f1wqwwcfktrtnr)" points="807,332,897,332,904,352.6919,1520,352.6919,1520,510,807,510,807,332" style="stroke: #000000; stroke-width: 1.5;"/><line style="stroke: #000000; stroke-width: 1.5;" x1="807" x2="904" y1="352.6919" y2="352.6919"/><text fill="#000000" font-family="Ricty Diminished" font-size="14" font-weight="bold" lengthAdjust="spacingAndGlyphs" textLength="84" x="811" y="345.6836">photosensors</text><!--cluster temperature_sensors--><polygon fill="#FFFFFF" filter="url(#f1wqwwcfktrtnr)" points="1544,338,1683,338,1690,358.6919,2329,358.6919,2329,504,1544,504,1544,338" style="stroke: #000000; stroke-width: 1.5;"/><line style="stroke: #000000; stroke-width: 1.5;" x1="1544" x2="1690" y1="358.6919" y2="358.6919"/><text fill="#000000" font-family="Ricty Diminished" font-size="14" font-weight="bold" lengthAdjust="spacingAndGlyphs" textLength="133" x="1548" y="351.6836">temperature_sensors</text><!--class Command--><rect fill="#F8F8F8" filter="url(#f1wqwwcfktrtnr)" height="71.0713" id="Command" style="stroke: #383838; stroke-width: 1.5;" width="122" x="946" y="57"/><ellipse cx="982.6" cy="73" fill="#B1B1B1" rx="11" ry="11" style="stroke: #383838; stroke-width: 1.0;"/><path d="M983.5844,77.9063 L984.3188,77.9063 L984.3188,79.3594 L980.3188,79.3594 L980.3188,77.9063 L981.0531,77.9063 L981.0531,67.875 L980.3188,67.875 L980.3188,66.4219 L984.3188,66.4219 L984.3188,67.875 L983.5844,67.875 L983.5844,77.9063 Z "/><text fill="#000000" font-family="Ricty Diminished" font-size="12" font-style="italic" lengthAdjust="spacingAndGlyphs" textLength="42" x="1001.4" y="76.718">Command</text><line style="stroke: #383838; stroke-width: 1.5;" x1="947" x2="1067" y1="89" y2="89"/><line style="stroke: #383838; stroke-width: 1.5;" x1="947" x2="1067" y1="97" y2="97"/><ellipse cx="957" cy="108" fill="#A6A6A6" rx="3" ry="3" style="stroke: #545454; stroke-width: 1.0;"/><text fill="#000000" font-family="Ricty Diminished" font-size="11" lengthAdjust="spacingAndGlyphs" textLength="96" x="966" y="110.1736">Delete(Command*)</text><ellipse cx="957" cy="119.5356" fill="#A6A6A6" rx="3" ry="3" style="stroke: #545454; stroke-width: 1.0;"/><text fill="#000000" font-family="Ricty Diminished" font-size="11" lengthAdjust="spacingAndGlyphs" textLength="24" x="966" y="121.7092">Do()</text><!--class Sensor--><rect fill="#F8F8F8" filter="url(#f1wqwwcfktrtnr)" height="117.2139" id="Sensor" style="stroke: #383838; stroke-width: 1.5;" width="368" x="823" y="188"/><ellipse cx="984.75" cy="204" fill="#B1B1B1" rx="11" ry="11" style="stroke: #383838; stroke-width: 1.0;"/><path d="M985.7344,208.9063 L986.4688,208.9063 L986.4688,210.3594 L982.4688,210.3594 L982.4688,208.9063 L983.2031,208.9063 L983.2031,198.875 L982.4688,198.875 L982.4688,197.4219 L986.4688,197.4219 L986.4688,198.875 L985.7344,198.875 L985.7344,208.9063 Z "/><text fill="#000000" font-family="Ricty Diminished" font-size="12" font-style="italic" lengthAdjust="spacingAndGlyphs" textLength="36" x="1005.25" y="207.718">Sensor</text><line style="stroke: #383838; stroke-width: 1.5;" x1="824" x2="1190" y1="220" y2="220"/><line style="stroke: #383838; stroke-width: 1.5;" x1="824" x2="1190" y1="228" y2="228"/><ellipse cx="834" cy="239" fill="#A6A6A6" rx="3" ry="3" style="stroke: #545454; stroke-width: 1.0;"/><text fill="#000000" font-family="Ricty Diminished" font-size="11" lengthAdjust="spacingAndGlyphs" textLength="90" x="843" y="241.1736">Delete(Sensor*)</text><ellipse cx="834" cy="250.5356" fill="#A6A6A6" rx="3" ry="3" style="stroke: #545454; stroke-width: 1.0;"/><text fill="#000000" font-family="Ricty Diminished" font-size="11" lengthAdjust="spacingAndGlyphs" textLength="342" x="843" y="252.7092">SensorWatchCommand(Sensor, const char*, Command): Command</text><ellipse cx="834" cy="262.0713" fill="#A6A6A6" rx="3" ry="3" style="stroke: #545454; stroke-width: 1.0;"/><text fill="#000000" font-family="Ricty Diminished" font-size="11" lengthAdjust="spacingAndGlyphs" textLength="108" x="843" y="264.2449">GetId(Sensor): int</text><ellipse cx="834" cy="273.6069" fill="#A6A6A6" rx="3" ry="3" style="stroke: #545454; stroke-width: 1.0;"/><text fill="#000000" font-family="Ricty Diminished" font-size="11" lengthAdjust="spacingAndGlyphs" textLength="162" x="843" y="275.7805">GetTag(Sensor): const char*</text><ellipse cx="834" cy="285.1426" fill="#A6A6A6" rx="3" ry="3" style="stroke: #545454; stroke-width: 1.0;"/><text fill="#000000" font-family="Ricty Diminished" font-size="11" lengthAdjust="spacingAndGlyphs" textLength="174" x="843" y="287.3162">GetState(Sensor): const char*</text><ellipse cx="834" cy="296.6782" fill="#A6A6A6" rx="3" ry="3" style="stroke: #545454; stroke-width: 1.0;"/><text fill="#000000" font-family="Ricty Diminished" font-size="11" lengthAdjust="spacingAndGlyphs" textLength="168" x="843" y="298.8518">IsDefaultState(Sensor): bool</text><!--class SensorFactory--><rect fill="#F8F8F8" filter="url(#f1wqwwcfktrtnr)" height="71.0713" id="SensorFactory" style="stroke: #383838; stroke-width: 1.5;" width="218" x="1226" y="211"/><ellipse cx="1291.75" cy="227" fill="#B1B1B1" rx="11" ry="11" style="stroke: #383838; stroke-width: 1.0;"/><path d="M1292.7344,231.9063 L1293.4688,231.9063 L1293.4688,233.3594 L1289.4688,233.3594 L1289.4688,231.9063 L1290.2031,231.9063 L1290.2031,221.875 L1289.4688,221.875 L1289.4688,220.4219 L1293.4688,220.4219 L1293.4688,221.875 L1292.7344,221.875 L1292.7344,231.9063 Z "/><text fill="#000000" font-family="Ricty Diminished" font-size="12" font-style="italic" lengthAdjust="spacingAndGlyphs" textLength="78" x="1312.25" y="230.718">SensorFactory</text><line style="stroke: #383838; stroke-width: 1.5;" x1="1227" x2="1443" y1="243" y2="243"/><line style="stroke: #383838; stroke-width: 1.5;" x1="1227" x2="1443" y1="251" y2="251"/><ellipse cx="1237" cy="262" fill="#A6A6A6" rx="3" ry="3" style="stroke: #545454; stroke-width: 1.0;"/><text fill="#000000" font-family="Ricty Diminished" font-size="11" lengthAdjust="spacingAndGlyphs" textLength="132" x="1246" y="264.1736">Delete(SensorFactory*)</text><ellipse cx="1237" cy="273.5356" fill="#A6A6A6" rx="3" ry="3" style="stroke: #545454; stroke-width: 1.0;"/><text fill="#000000" font-family="Ricty Diminished" font-size="11" lengthAdjust="spacingAndGlyphs" textLength="192" x="1246" y="275.7092">Make(SensorFactory, int): Sensor</text><!--class Microswitch--><rect fill="#F8F8F8" filter="url(#f1wqwwcfktrtnr)" height="128.7495" id="Microswitch" style="stroke: #383838; stroke-width: 1.5;" width="368" x="86" y="365"/><ellipse cx="232.75" cy="381" fill="#B1B1B1" rx="11" ry="11" style="stroke: #383838; stroke-width: 1.0;"/><path d="M233.7344,385.9063 L234.4688,385.9063 L234.4688,387.3594 L230.4688,387.3594 L230.4688,385.9063 L231.2031,385.9063 L231.2031,375.875 L230.4688,375.875 L230.4688,374.4219 L234.4688,374.4219 L234.4688,375.875 L233.7344,375.875 L233.7344,385.9063 Z "/><text fill="#000000" font-family="Ricty Diminished" font-size="12" font-style="italic" lengthAdjust="spacingAndGlyphs" textLength="66" x="253.25" y="384.718">Microswitch</text><line style="stroke: #383838; stroke-width: 1.5;" x1="87" x2="453" y1="397" y2="397"/><line style="stroke: #383838; stroke-width: 1.5;" x1="87" x2="453" y1="405" y2="405"/><ellipse cx="97" cy="416" fill="#A6A6A6" rx="3" ry="3" style="stroke: #545454; stroke-width: 1.0;"/><text fill="#000000" font-family="Ricty Diminished" font-size="11" lengthAdjust="spacingAndGlyphs" textLength="120" x="106" y="418.1736">Delete(Microswitch*)</text><ellipse cx="97" cy="427.5356" fill="#A6A6A6" rx="3" ry="3" style="stroke: #545454; stroke-width: 1.0;"/><text fill="#000000" font-family="Ricty Diminished" font-size="11" lengthAdjust="spacingAndGlyphs" textLength="342" x="106" y="429.7092">SensorWatchCommand(Sensor, const char*, Command): Command</text><ellipse cx="97" cy="439.0713" fill="#A6A6A6" rx="3" ry="3" style="stroke: #545454; stroke-width: 1.0;"/><text fill="#000000" font-family="Ricty Diminished" font-size="11" lengthAdjust="spacingAndGlyphs" textLength="108" x="106" y="441.2449">GetId(Sensor): int</text><ellipse cx="97" cy="450.6069" fill="#A6A6A6" rx="3" ry="3" style="stroke: #545454; stroke-width: 1.0;"/><text fill="#000000" font-family="Ricty Diminished" font-size="11" lengthAdjust="spacingAndGlyphs" textLength="162" x="106" y="452.7805">GetTag(Sensor): const char*</text><ellipse cx="97" cy="462.1426" fill="#A6A6A6" rx="3" ry="3" style="stroke: #545454; stroke-width: 1.0;"/><text fill="#000000" font-family="Ricty Diminished" font-size="11" lengthAdjust="spacingAndGlyphs" textLength="174" x="106" y="464.3162">GetState(Sensor): const char*</text><ellipse cx="97" cy="473.6782" fill="#A6A6A6" rx="3" ry="3" style="stroke: #545454; stroke-width: 1.0;"/><text fill="#000000" font-family="Ricty Diminished" font-size="11" lengthAdjust="spacingAndGlyphs" textLength="114" x="106" y="475.8518">IsOff(Sensor): bool</text><ellipse cx="97" cy="485.2139" fill="#A6A6A6" rx="3" ry="3" style="stroke: #545454; stroke-width: 1.0;"/><text fill="#000000" font-family="Ricty Diminished" font-size="11" lengthAdjust="spacingAndGlyphs" textLength="108" x="106" y="487.3875">IsOn(Sensor): bool</text><!--class MicroswitchFactory--><rect fill="#F8F8F8" filter="url(#f1wqwwcfktrtnr)" height="71.0713" id="MicroswitchFactory" style="stroke: #383838; stroke-width: 1.5;" width="278" x="489" y="394"/><ellipse cx="569.75" cy="410" fill="#B1B1B1" rx="11" ry="11" style="stroke: #383838; stroke-width: 1.0;"/><path d="M570.7344,414.9063 L571.4688,414.9063 L571.4688,416.3594 L567.4688,416.3594 L567.4688,414.9063 L568.2031,414.9063 L568.2031,404.875 L567.4688,404.875 L567.4688,403.4219 L571.4688,403.4219 L571.4688,404.875 L570.7344,404.875 L570.7344,414.9063 Z "/><text fill="#000000" font-family="Ricty Diminished" font-size="12" font-style="italic" lengthAdjust="spacingAndGlyphs" textLength="108" x="590.25" y="413.718">MicroswitchFactory</text><line style="stroke: #383838; stroke-width: 1.5;" x1="490" x2="766" y1="426" y2="426"/><line style="stroke: #383838; stroke-width: 1.5;" x1="490" x2="766" y1="434" y2="434"/><ellipse cx="500" cy="445" fill="#A6A6A6" rx="3" ry="3" style="stroke: #545454; stroke-width: 1.0;"/><text fill="#000000" font-family="Ricty Diminished" font-size="11" lengthAdjust="spacingAndGlyphs" textLength="162" x="509" y="447.1736">Delete(MicroswitchFactory*)</text><ellipse cx="500" cy="456.5356" fill="#A6A6A6" rx="3" ry="3" style="stroke: #545454; stroke-width: 1.0;"/><text fill="#000000" font-family="Ricty Diminished" font-size="11" lengthAdjust="spacingAndGlyphs" textLength="252" x="509" y="458.7092">Make(MicroswitchFactory, int): Microswitch</text><!--class Photosensor--><rect fill="#F8F8F8" filter="url(#f1wqwwcfktrtnr)" height="128.7495" id="Photosensor" style="stroke: #383838; stroke-width: 1.5;" width="368" x="823" y="365"/><ellipse cx="969.75" cy="381" fill="#B1B1B1" rx="11" ry="11" style="stroke: #383838; stroke-width: 1.0;"/><path d="M970.7344,385.9063 L971.4688,385.9063 L971.4688,387.3594 L967.4688,387.3594 L967.4688,385.9063 L968.2031,385.9063 L968.2031,375.875 L967.4688,375.875 L967.4688,374.4219 L971.4688,374.4219 L971.4688,375.875 L970.7344,375.875 L970.7344,385.9063 Z "/><text fill="#000000" font-family="Ricty Diminished" font-size="12" font-style="italic" lengthAdjust="spacingAndGlyphs" textLength="66" x="990.25" y="384.718">Photosensor</text><line style="stroke: #383838; stroke-width: 1.5;" x1="824" x2="1190" y1="397" y2="397"/><line style="stroke: #383838; stroke-width: 1.5;" x1="824" x2="1190" y1="405" y2="405"/><ellipse cx="834" cy="416" fill="#A6A6A6" rx="3" ry="3" style="stroke: #545454; stroke-width: 1.0;"/><text fill="#000000" font-family="Ricty Diminished" font-size="11" lengthAdjust="spacingAndGlyphs" textLength="120" x="843" y="418.1736">Delete(Photosensor*)</text><ellipse cx="834" cy="427.5356" fill="#A6A6A6" rx="3" ry="3" style="stroke: #545454; stroke-width: 1.0;"/><text fill="#000000" font-family="Ricty Diminished" font-size="11" lengthAdjust="spacingAndGlyphs" textLength="342" x="843" y="429.7092">SensorWatchCommand(Sensor, const char*, Command): Command</text><ellipse cx="834" cy="439.0713" fill="#A6A6A6" rx="3" ry="3" style="stroke: #545454; stroke-width: 1.0;"/><text fill="#000000" font-family="Ricty Diminished" font-size="11" lengthAdjust="spacingAndGlyphs" textLength="108" x="843" y="441.2449">GetId(Sensor): int</text><ellipse cx="834" cy="450.6069" fill="#A6A6A6" rx="3" ry="3" style="stroke: #545454; stroke-width: 1.0;"/><text fill="#000000" font-family="Ricty Diminished" font-size="11" lengthAdjust="spacingAndGlyphs" textLength="162" x="843" y="452.7805">GetTag(Sensor): const char*</text><ellipse cx="834" cy="462.1426" fill="#A6A6A6" rx="3" ry="3" style="stroke: #545454; stroke-width: 1.0;"/><text fill="#000000" font-family="Ricty Diminished" font-size="11" lengthAdjust="spacingAndGlyphs" textLength="174" x="843" y="464.3162">GetState(Sensor): const char*</text><ellipse cx="834" cy="473.6782" fill="#A6A6A6" rx="3" ry="3" style="stroke: #545454; stroke-width: 1.0;"/><text fill="#000000" font-family="Ricty Diminished" font-size="11" lengthAdjust="spacingAndGlyphs" textLength="126" x="843" y="475.8518">IsLight(Sensor): bool</text><ellipse cx="834" cy="485.2139" fill="#A6A6A6" rx="3" ry="3" style="stroke: #545454; stroke-width: 1.0;"/><text fill="#000000" font-family="Ricty Diminished" font-size="11" lengthAdjust="spacingAndGlyphs" textLength="120" x="843" y="487.3875">IsDark(Sensor): bool</text><!--class PhotosensorFactory--><rect fill="#F8F8F8" filter="url(#f1wqwwcfktrtnr)" height="71.0713" id="PhotosensorFactory" style="stroke: #383838; stroke-width: 1.5;" width="278" x="1226" y="394"/><ellipse cx="1306.75" cy="410" fill="#B1B1B1" rx="11" ry="11" style="stroke: #383838; stroke-width: 1.0;"/><path d="M1307.7344,414.9063 L1308.4688,414.9063 L1308.4688,416.3594 L1304.4688,416.3594 L1304.4688,414.9063 L1305.2031,414.9063 L1305.2031,404.875 L1304.4688,404.875 L1304.4688,403.4219 L1308.4688,403.4219 L1308.4688,404.875 L1307.7344,404.875 L1307.7344,414.9063 Z "/><text fill="#000000" font-family="Ricty Diminished" font-size="12" font-style="italic" lengthAdjust="spacingAndGlyphs" textLength="108" x="1327.25" y="413.718">PhotosensorFactory</text><line style="stroke: #383838; stroke-width: 1.5;" x1="1227" x2="1503" y1="426" y2="426"/><line style="stroke: #383838; stroke-width: 1.5;" x1="1227" x2="1503" y1="434" y2="434"/><ellipse cx="1237" cy="445" fill="#A6A6A6" rx="3" ry="3" style="stroke: #545454; stroke-width: 1.0;"/><text fill="#000000" font-family="Ricty Diminished" font-size="11" lengthAdjust="spacingAndGlyphs" textLength="162" x="1246" y="447.1736">Delete(PhotosensorFactory*)</text><ellipse cx="1237" cy="456.5356" fill="#A6A6A6" rx="3" ry="3" style="stroke: #545454; stroke-width: 1.0;"/><text fill="#000000" font-family="Ricty Diminished" font-size="11" lengthAdjust="spacingAndGlyphs" textLength="252" x="1246" y="458.7092">Make(PhotosensorFactory, int): Photosensor</text><!--class TemperatureSensor--><rect fill="#F8F8F8" filter="url(#f1wqwwcfktrtnr)" height="117.2139" id="TemperatureSensor" style="stroke: #383838; stroke-width: 1.5;" width="368" x="1560" y="371"/><ellipse cx="1688.75" cy="387" fill="#B1B1B1" rx="11" ry="11" style="stroke: #383838; stroke-width: 1.0;"/><path d="M1689.7344,391.9063 L1690.4688,391.9063 L1690.4688,393.3594 L1686.4688,393.3594 L1686.4688,391.9063 L1687.2031,391.9063 L1687.2031,381.875 L1686.4688,381.875 L1686.4688,380.4219 L1690.4688,380.4219 L1690.4688,381.875 L1689.7344,381.875 L1689.7344,391.9063 Z "/><text fill="#000000" font-family="Ricty Diminished" font-size="12" font-style="italic" lengthAdjust="spacingAndGlyphs" textLength="102" x="1709.25" y="390.718">TemperatureSensor</text><line style="stroke: #383838; stroke-width: 1.5;" x1="1561" x2="1927" y1="403" y2="403"/><line style="stroke: #383838; stroke-width: 1.5;" x1="1561" x2="1927" y1="411" y2="411"/><ellipse cx="1571" cy="422" fill="#A6A6A6" rx="3" ry="3" style="stroke: #545454; stroke-width: 1.0;"/><text fill="#000000" font-family="Ricty Diminished" font-size="11" lengthAdjust="spacingAndGlyphs" textLength="156" x="1580" y="424.1736">Delete(TemperatureSensor*)</text><ellipse cx="1571" cy="433.5356" fill="#A6A6A6" rx="3" ry="3" style="stroke: #545454; stroke-width: 1.0;"/><text fill="#000000" font-family="Ricty Diminished" font-size="11" lengthAdjust="spacingAndGlyphs" textLength="342" x="1580" y="435.7092">SensorWatchCommand(Sensor, const char*, Command): Command</text><ellipse cx="1571" cy="445.0713" fill="#A6A6A6" rx="3" ry="3" style="stroke: #545454; stroke-width: 1.0;"/><text fill="#000000" font-family="Ricty Diminished" font-size="11" lengthAdjust="spacingAndGlyphs" textLength="108" x="1580" y="447.2449">GetId(Sensor): int</text><ellipse cx="1571" cy="456.6069" fill="#A6A6A6" rx="3" ry="3" style="stroke: #545454; stroke-width: 1.0;"/><text fill="#000000" font-family="Ricty Diminished" font-size="11" lengthAdjust="spacingAndGlyphs" textLength="162" x="1580" y="458.7805">GetTag(Sensor): const char*</text><ellipse cx="1571" cy="468.1426" fill="#A6A6A6" rx="3" ry="3" style="stroke: #545454; stroke-width: 1.0;"/><text fill="#000000" font-family="Ricty Diminished" font-size="11" lengthAdjust="spacingAndGlyphs" textLength="174" x="1580" y="470.3162">GetState(Sensor): const char*</text><ellipse cx="1571" cy="479.6782" fill="#A6A6A6" rx="3" ry="3" style="stroke: #545454; stroke-width: 1.0;"/><text fill="#000000" font-family="Ricty Diminished" font-size="11" lengthAdjust="spacingAndGlyphs" textLength="132" x="1580" y="481.8518">IsNormal(Sensor): bool</text><!--class TemperatureSensorFactory--><rect fill="#F8F8F8" filter="url(#f1wqwwcfktrtnr)" height="71.0713" id="TemperatureSensorFactory" style="stroke: #383838; stroke-width: 1.5;" width="350" x="1963" y="394"/><ellipse cx="2061.75" cy="410" fill="#B1B1B1" rx="11" ry="11" style="stroke: #383838; stroke-width: 1.0;"/><path d="M2062.7344,414.9063 L2063.4688,414.9063 L2063.4688,416.3594 L2059.4688,416.3594 L2059.4688,414.9063 L2060.2031,414.9063 L2060.2031,404.875 L2059.4688,404.875 L2059.4688,403.4219 L2063.4688,403.4219 L2063.4688,404.875 L2062.7344,404.875 L2062.7344,414.9063 Z "/><text fill="#000000" font-family="Ricty Diminished" font-size="12" font-style="italic" lengthAdjust="spacingAndGlyphs" textLength="144" x="2082.25" y="413.718">TemperatureSensorFactory</text><line style="stroke: #383838; stroke-width: 1.5;" x1="1964" x2="2312" y1="426" y2="426"/><line style="stroke: #383838; stroke-width: 1.5;" x1="1964" x2="2312" y1="434" y2="434"/><ellipse cx="1974" cy="445" fill="#A6A6A6" rx="3" ry="3" style="stroke: #545454; stroke-width: 1.0;"/><text fill="#000000" font-family="Ricty Diminished" font-size="11" lengthAdjust="spacingAndGlyphs" textLength="198" x="1983" y="447.1736">Delete(TemperatureSensorFactory*)</text><ellipse cx="1974" cy="456.5356" fill="#A6A6A6" rx="3" ry="3" style="stroke: #545454; stroke-width: 1.0;"/><text fill="#000000" font-family="Ricty Diminished" font-size="11" lengthAdjust="spacingAndGlyphs" textLength="324" x="1983" y="458.7092">Make(TemperatureSensorFactory, int): TemperatureSensor</text><!--reverse link Microswitch to MicroswitchFactory--><path d="M459.382,429.5 C469.208,429.5 479.034,429.5 488.86,429.5 " fill="none" id="Microswitch&lt;-MicroswitchFactory" style="stroke: #383838; stroke-width: 1.0;"/><polygon fill="#383838" points="454.244,429.5,463.244,433.5,459.244,429.5,463.244,425.5,454.244,429.5" style="stroke: #383838; stroke-width: 1.0;"/><!--reverse link Photosensor to PhotosensorFactory--><path d="M1196.38,429.5 C1206.21,429.5 1216.03,429.5 1225.86,429.5 " fill="none" id="Photosensor&lt;-PhotosensorFactory" style="stroke: #383838; stroke-width: 1.0;"/><polygon fill="#383838" points="1191.24,429.5,1200.24,433.5,1196.24,429.5,1200.24,425.5,1191.24,429.5" style="stroke: #383838; stroke-width: 1.0;"/><!--reverse link TemperatureSensor to TemperatureSensorFactory--><path d="M1933.41,429.5 C1943.18,429.5 1952.94,429.5 1962.71,429.5 " fill="none" id="TemperatureSensor&lt;-TemperatureSensorFactory" style="stroke: #383838; stroke-width: 1.0;"/><polygon fill="#383838" points="1928.3,429.5,1937.3,433.5,1933.3,429.5,1937.3,425.5,1928.3,429.5" style="stroke: #383838; stroke-width: 1.0;"/><!--reverse link Sensor to SensorFactory--><path d="M1196.31,246.5 C1206.12,246.5 1215.92,246.5 1225.73,246.5 " fill="none" id="Sensor&lt;-SensorFactory" style="stroke: #383838; stroke-width: 1.0;"/><polygon fill="#383838" points="1191.18,246.5,1200.18,250.5,1196.18,246.5,1200.18,242.5,1191.18,246.5" style="stroke: #383838; stroke-width: 1.0;"/><!--reverse link Sensor to Microswitch--><path d="M802.859,260.522 C701.55,271.026 578.397,289.951 472,324 C439.847,334.29 406.639,349.362 376.667,364.876 " fill="none" id="Sensor&lt;-Microswitch" style="stroke: #383838; stroke-width: 1.0; stroke-dasharray: 7.0,7.0;"/><polygon fill="none" points="802.222,253.551,822.818,258.532,803.611,267.482,802.222,253.551" style="stroke: #383838; stroke-width: 1.0;"/><!--reverse link Sensor to Photosensor--><path d="M1007,325.412 C1007,338.524 1007,351.995 1007,364.695 " fill="none" id="Sensor&lt;-Photosensor" style="stroke: #383838; stroke-width: 1.0; stroke-dasharray: 7.0,7.0;"/><polygon fill="none" points="1000,325.267,1007,305.267,1014,325.267,1000,325.267" style="stroke: #383838; stroke-width: 1.0;"/><!--reverse link Sensor to TemperatureSensor--><path d="M1211.17,304.866 C1349.31,325.01 1391.81,291.437 1520,324 C1561.38,334.512 1604.44,352.639 1641.61,370.874 " fill="none" id="Sensor&lt;-TemperatureSensor" style="stroke: #383838; stroke-width: 1.0; stroke-dasharray: 7.0,7.0;"/><polygon fill="none" points="1209.67,311.716,1191.02,301.655,1211.87,297.89,1209.67,311.716" style="stroke: #383838; stroke-width: 1.0;"/><!--reverse link Command to Sensor--><path d="M1007,148.72 C1007,161.45 1007,175.023 1007,187.853 " fill="none" id="Command&lt;-Sensor" style="stroke: #383838; stroke-width: 1.0;"/><polygon fill="none" points="1000,148.372,1007,128.372,1014,148.372,1000,148.372" style="stroke: #383838; stroke-width: 1.0;"/><!--
@startuml sensor_class_diagram
skinparam {
    defaultFontName Ricty Diminished
    monochrome true
}

package Golem {
    interface Command {
        + Delete(Command*)
        + Do()
    }

    folder sensors {
        interface Sensor {
            + Delete(Sensor*)
            + SensorWatchCommand(Sensor, const char*, Command): Command
            + GetId(Sensor): int
            + GetTag(Sensor): const char*
            + GetState(Sensor): const char*
            + IsDefaultState(Sensor): bool
        }

        interface SensorFactory {
            + Delete(SensorFactory*)
            + Make(SensorFactory, int): Sensor
        }

        folder microswitches {
            interface Microswitch {
                + Delete(Microswitch*)
                + SensorWatchCommand(Sensor, const char*, Command): Command
                + GetId(Sensor): int
                + GetTag(Sensor): const char*
                + GetState(Sensor): const char*
                + IsOff(Sensor): bool
                + IsOn(Sensor): bool
            }

            interface MicroswitchFactory {
                + Delete(MicroswitchFactory*)
                + Make(MicroswitchFactory, int): Microswitch
            }

            Microswitch <- MicroswitchFactory
        }

        folder photosensors {
            interface Photosensor {
                + Delete(Photosensor*)
                + SensorWatchCommand(Sensor, const char*, Command): Command
                + GetId(Sensor): int
                + GetTag(Sensor): const char*
                + GetState(Sensor): const char*
                + IsLight(Sensor): bool
                + IsDark(Sensor): bool
            }

            interface PhotosensorFactory {
                + Delete(PhotosensorFactory*)
                + Make(PhotosensorFactory, int): Photosensor
            }

            Photosensor <- PhotosensorFactory
        }

        folder temperature_sensors {
            interface TemperatureSensor {
                + Delete(TemperatureSensor*)
                + SensorWatchCommand(Sensor, const char*, Command): Command
                + GetId(Sensor): int
                + GetTag(Sensor): const char*
                + GetState(Sensor): const char*
                + IsNormal(Sensor): bool
            }

            interface TemperatureSensorFactory {
                + Delete(TemperatureSensorFactory*)
                + Make(TemperatureSensorFactory, int): TemperatureSensor
            }

            TemperatureSensor <- TemperatureSensorFactory
        }

        Sensor <- SensorFactory
        Sensor <|.. Microswitch
        Sensor <|.. Photosensor
        Sensor <|.. TemperatureSensor
    }

    Command <|- - Sensor
}
@enduml

PlantUML version 1.2019.09(Tue Aug 27 01:19:51 JST 2019)
(GPL source distribution)
Java Runtime: Java(TM) SE Runtime Environment
JVM: Java HotSpot(TM) 64-Bit Server VM
Java Version: 1.8.0_221-b11
Operating System: Windows 10
OS Version: 10.0
Default Encoding: MS932
Language: en
Country: GB
--></g></svg>