<?xml version="1.0" encoding="UTF-8" standalone="no"?><svg xmlns="http://www.w3.org/2000/svg" xmlns:xlink="http://www.w3.org/1999/xlink" contentScriptType="application/ecmascript" contentStyleType="text/css" height="644px" preserveAspectRatio="none" style="width:1065px;height:644px;" version="1.1" viewBox="0 0 1065 644" width="1065px" zoomAndPan="magnify"><defs><filter height="300%" id="fodnmlwovrjn" width="300%" x="-1" y="-1"><feGaussianBlur result="blurOut" stdDeviation="2.0"/><feColorMatrix in="blurOut" result="blurOut2" type="matrix" values="0 0 0 0 0 0 0 0 0 0 0 0 0 0 0 0 0 0 .4 0"/><feOffset dx="4.0" dy="4.0" in="blurOut2" result="blurOut3"/><feBlend in="SourceGraphic" in2="blurOut3" mode="normal"/></filter></defs><g><!--cluster Golem--><polygon fill="#FFFFFF" filter="url(#fodnmlwovrjn)" points="22,24,63,24,70,44.6919,1043,44.6919,1043,632,22,632,22,24" style="stroke: #000000; stroke-width: 1.5;"/><line style="stroke: #000000; stroke-width: 1.5;" x1="22" x2="70" y1="44.6919" y2="44.6919"/><text fill="#000000" font-family="Ricty Diminished" font-size="14" font-weight="bold" lengthAdjust="spacingAndGlyphs" textLength="35" x="26" y="37.6836">Golem</text><!--cluster sensors--><polygon fill="#FFFFFF" filter="url(#fodnmlwovrjn)" points="46,132,101,132,108,152.6919,1019,152.6919,1019,608,46,608,46,132" style="stroke: #000000; stroke-width: 1.5;"/><line style="stroke: #000000; stroke-width: 1.5;" x1="46" x2="108" y1="152.6919" y2="152.6919"/><text fill="#000000" font-family="Ricty Diminished" font-size="14" font-weight="bold" lengthAdjust="spacingAndGlyphs" textLength="49" x="50" y="145.6836">sensors</text><!--cluster microswitches--><polygon fill="#FFFFFF" filter="url(#fodnmlwovrjn)" points="251,298,348,298,355,318.6919,483,318.6919,483,584,251,584,251,298" style="stroke: #000000; stroke-width: 1.5;"/><line style="stroke: #000000; stroke-width: 1.5;" x1="251" x2="355" y1="318.6919" y2="318.6919"/><text fill="#000000" font-family="Ricty Diminished" font-size="14" font-weight="bold" lengthAdjust="spacingAndGlyphs" textLength="91" x="255" y="311.6836">microswitches</text><!--cluster photosensors--><polygon fill="#FFFFFF" filter="url(#fodnmlwovrjn)" points="507,298,597,298,604,318.6919,739,318.6919,739,584,507,584,507,298" style="stroke: #000000; stroke-width: 1.5;"/><line style="stroke: #000000; stroke-width: 1.5;" x1="507" x2="604" y1="318.6919" y2="318.6919"/><text fill="#000000" font-family="Ricty Diminished" font-size="14" font-weight="bold" lengthAdjust="spacingAndGlyphs" textLength="84" x="511" y="311.6836">photosensors</text><!--cluster temperature_sensors--><polygon fill="#FFFFFF" filter="url(#fodnmlwovrjn)" points="763,303.5,902,303.5,909,324.1919,995,324.1919,995,584,763,584,763,303.5" style="stroke: #000000; stroke-width: 1.5;"/><line style="stroke: #000000; stroke-width: 1.5;" x1="763" x2="909" y1="324.1919" y2="324.1919"/><text fill="#000000" font-family="Ricty Diminished" font-size="14" font-weight="bold" lengthAdjust="spacingAndGlyphs" textLength="133" x="767" y="317.1836">temperature_sensors</text><!--class Component--><rect fill="#F8F8F8" filter="url(#fodnmlwovrjn)" height="48" id="Component" style="stroke: #383838; stroke-width: 1.5;" width="86" x="452" y="57"/><ellipse cx="467" cy="73" fill="#B1B1B1" rx="11" ry="11" style="stroke: #383838; stroke-width: 1.0;"/><path d="M467.9844,77.9063 L468.7188,77.9063 L468.7188,79.3594 L464.7188,79.3594 L464.7188,77.9063 L465.4531,77.9063 L465.4531,67.875 L464.7188,67.875 L464.7188,66.4219 L468.7188,66.4219 L468.7188,67.875 L467.9844,67.875 L467.9844,77.9063 Z "/><text fill="#000000" font-family="Ricty Diminished" font-size="12" font-style="italic" lengthAdjust="spacingAndGlyphs" textLength="54" x="481" y="76.718">Component</text><line style="stroke: #383838; stroke-width: 1.5;" x1="453" x2="537" y1="89" y2="89"/><line style="stroke: #383838; stroke-width: 1.5;" x1="453" x2="537" y1="97" y2="97"/><!--class Sensor--><rect fill="#F8F8F8" filter="url(#fodnmlwovrjn)" height="105.6782" id="Sensor" style="stroke: #383838; stroke-width: 1.5;" width="212" x="389" y="165"/><ellipse cx="472.75" cy="181" fill="#B1B1B1" rx="11" ry="11" style="stroke: #383838; stroke-width: 1.0;"/><path d="M473.7344,185.9063 L474.4688,185.9063 L474.4688,187.3594 L470.4688,187.3594 L470.4688,185.9063 L471.2031,185.9063 L471.2031,175.875 L470.4688,175.875 L470.4688,174.4219 L474.4688,174.4219 L474.4688,175.875 L473.7344,175.875 L473.7344,185.9063 Z "/><text fill="#000000" font-family="Ricty Diminished" font-size="12" font-style="italic" lengthAdjust="spacingAndGlyphs" textLength="36" x="493.25" y="184.718">Sensor</text><line style="stroke: #383838; stroke-width: 1.5;" x1="390" x2="600" y1="197" y2="197"/><line style="stroke: #383838; stroke-width: 1.5;" x1="390" x2="600" y1="205" y2="205"/><ellipse cx="400" cy="216" fill="#A6A6A6" rx="3" ry="3" style="stroke: #545454; stroke-width: 1.0;"/><text fill="#000000" font-family="Ricty Diminished" font-size="11" lengthAdjust="spacingAndGlyphs" textLength="108" x="409" y="218.1736">Delete(Component*)</text><ellipse cx="400" cy="227.5356" fill="#A6A6A6" rx="3" ry="3" style="stroke: #545454; stroke-width: 1.0;"/><text fill="#000000" font-family="Ricty Diminished" font-size="11" lengthAdjust="spacingAndGlyphs" textLength="108" x="409" y="229.7092">Id(Component): int</text><ellipse cx="400" cy="239.0713" fill="#A6A6A6" rx="3" ry="3" style="stroke: #545454; stroke-width: 1.0;"/><text fill="#000000" font-family="Ricty Diminished" font-size="11" lengthAdjust="spacingAndGlyphs" textLength="162" x="409" y="241.2449">Tag(Component): const char*</text><ellipse cx="400" cy="250.6069" fill="#A6A6A6" rx="3" ry="3" style="stroke: #545454; stroke-width: 1.0;"/><text fill="#000000" font-family="Ricty Diminished" font-size="11" lengthAdjust="spacingAndGlyphs" textLength="174" x="409" y="252.7805">State(Component): const char*</text><ellipse cx="400" cy="262.1426" fill="#A6A6A6" rx="3" ry="3" style="stroke: #545454; stroke-width: 1.0;"/><text fill="#000000" font-family="Ricty Diminished" font-size="11" lengthAdjust="spacingAndGlyphs" textLength="186" x="409" y="264.3162">IsDefaultState(Component): bool</text><!--class NullSensor--><rect fill="#F8F8F8" filter="url(#fodnmlwovrjn)" height="59.5356" id="NullSensor" style="stroke: #383838; stroke-width: 1.5;" width="170" x="62" y="359.5"/><ellipse cx="112.75" cy="375.5" fill="#B1B1B1" rx="11" ry="11" style="stroke: #383838; stroke-width: 1.0;"/><path d="M113.7344,380.4063 L114.4688,380.4063 L114.4688,381.8594 L110.4688,381.8594 L110.4688,380.4063 L111.2031,380.4063 L111.2031,370.375 L110.4688,370.375 L110.4688,368.9219 L114.4688,368.9219 L114.4688,370.375 L113.7344,370.375 L113.7344,380.4063 Z "/><text fill="#000000" font-family="Ricty Diminished" font-size="12" font-style="italic" lengthAdjust="spacingAndGlyphs" textLength="60" x="133.25" y="379.218">NullSensor</text><line style="stroke: #383838; stroke-width: 1.5;" x1="63" x2="231" y1="391.5" y2="391.5"/><line style="stroke: #383838; stroke-width: 1.5;" x1="63" x2="231" y1="399.5" y2="399.5"/><ellipse cx="73" cy="410.5" fill="#A6A6A6" rx="3" ry="3" style="stroke: #545454; stroke-width: 1.0;"/><text fill="#000000" font-family="Ricty Diminished" font-size="11" lengthAdjust="spacingAndGlyphs" textLength="144" x="82" y="412.6736">GetInstance(): Component</text><!--class Microswitch--><rect fill="#F8F8F8" filter="url(#fodnmlwovrjn)" height="117.2139" id="Microswitch" style="stroke: #383838; stroke-width: 1.5;" width="200" x="267" y="331"/><ellipse cx="329.75" cy="347" fill="#B1B1B1" rx="11" ry="11" style="stroke: #383838; stroke-width: 1.0;"/><path d="M330.7344,351.9063 L331.4688,351.9063 L331.4688,353.3594 L327.4688,353.3594 L327.4688,351.9063 L328.2031,351.9063 L328.2031,341.875 L327.4688,341.875 L327.4688,340.4219 L331.4688,340.4219 L331.4688,341.875 L330.7344,341.875 L330.7344,351.9063 Z "/><text fill="#000000" font-family="Ricty Diminished" font-size="12" font-style="italic" lengthAdjust="spacingAndGlyphs" textLength="66" x="350.25" y="350.718">Microswitch</text><line style="stroke: #383838; stroke-width: 1.5;" x1="268" x2="466" y1="363" y2="363"/><line style="stroke: #383838; stroke-width: 1.5;" x1="268" x2="466" y1="371" y2="371"/><ellipse cx="278" cy="382" fill="#A6A6A6" rx="3" ry="3" style="stroke: #545454; stroke-width: 1.0;"/><text fill="#000000" font-family="Ricty Diminished" font-size="11" lengthAdjust="spacingAndGlyphs" textLength="108" x="287" y="384.1736">Delete(Component*)</text><ellipse cx="278" cy="393.5356" fill="#A6A6A6" rx="3" ry="3" style="stroke: #545454; stroke-width: 1.0;"/><text fill="#000000" font-family="Ricty Diminished" font-size="11" lengthAdjust="spacingAndGlyphs" textLength="108" x="287" y="395.7092">Id(Component): int</text><ellipse cx="278" cy="405.0713" fill="#A6A6A6" rx="3" ry="3" style="stroke: #545454; stroke-width: 1.0;"/><text fill="#000000" font-family="Ricty Diminished" font-size="11" lengthAdjust="spacingAndGlyphs" textLength="162" x="287" y="407.2449">Tag(Component): const char*</text><ellipse cx="278" cy="416.6069" fill="#A6A6A6" rx="3" ry="3" style="stroke: #545454; stroke-width: 1.0;"/><text fill="#000000" font-family="Ricty Diminished" font-size="11" lengthAdjust="spacingAndGlyphs" textLength="174" x="287" y="418.7805">State(Component): const char*</text><ellipse cx="278" cy="428.1426" fill="#A6A6A6" rx="3" ry="3" style="stroke: #545454; stroke-width: 1.0;"/><text fill="#000000" font-family="Ricty Diminished" font-size="11" lengthAdjust="spacingAndGlyphs" textLength="132" x="287" y="430.3162">IsOff(Component): bool</text><ellipse cx="278" cy="439.6782" fill="#A6A6A6" rx="3" ry="3" style="stroke: #545454; stroke-width: 1.0;"/><text fill="#000000" font-family="Ricty Diminished" font-size="11" lengthAdjust="spacingAndGlyphs" textLength="126" x="287" y="441.8518">IsOn(Component): bool</text><!--class NullMicroswitch--><rect fill="#F8F8F8" filter="url(#fodnmlwovrjn)" height="59.5356" id="NullMicroswitch" style="stroke: #383838; stroke-width: 1.5;" width="170" x="282" y="508"/><ellipse cx="318.6" cy="524" fill="#B1B1B1" rx="11" ry="11" style="stroke: #383838; stroke-width: 1.0;"/><path d="M319.5844,528.9063 L320.3188,528.9063 L320.3188,530.3594 L316.3188,530.3594 L316.3188,528.9063 L317.0531,528.9063 L317.0531,518.875 L316.3188,518.875 L316.3188,517.4219 L320.3188,517.4219 L320.3188,518.875 L319.5844,518.875 L319.5844,528.9063 Z "/><text fill="#000000" font-family="Ricty Diminished" font-size="12" font-style="italic" lengthAdjust="spacingAndGlyphs" textLength="90" x="337.4" y="527.718">NullMicroswitch</text><line style="stroke: #383838; stroke-width: 1.5;" x1="283" x2="451" y1="540" y2="540"/><line style="stroke: #383838; stroke-width: 1.5;" x1="283" x2="451" y1="548" y2="548"/><ellipse cx="293" cy="559" fill="#A6A6A6" rx="3" ry="3" style="stroke: #545454; stroke-width: 1.0;"/><text fill="#000000" font-family="Ricty Diminished" font-size="11" lengthAdjust="spacingAndGlyphs" textLength="144" x="302" y="561.1736">GetInstance(): Component</text><!--class Photosensor--><rect fill="#F8F8F8" filter="url(#fodnmlwovrjn)" height="117.2139" id="Photosensor" style="stroke: #383838; stroke-width: 1.5;" width="200" x="523" y="331"/><ellipse cx="585.75" cy="347" fill="#B1B1B1" rx="11" ry="11" style="stroke: #383838; stroke-width: 1.0;"/><path d="M586.7344,351.9063 L587.4688,351.9063 L587.4688,353.3594 L583.4688,353.3594 L583.4688,351.9063 L584.2031,351.9063 L584.2031,341.875 L583.4688,341.875 L583.4688,340.4219 L587.4688,340.4219 L587.4688,341.875 L586.7344,341.875 L586.7344,351.9063 Z "/><text fill="#000000" font-family="Ricty Diminished" font-size="12" font-style="italic" lengthAdjust="spacingAndGlyphs" textLength="66" x="606.25" y="350.718">Photosensor</text><line style="stroke: #383838; stroke-width: 1.5;" x1="524" x2="722" y1="363" y2="363"/><line style="stroke: #383838; stroke-width: 1.5;" x1="524" x2="722" y1="371" y2="371"/><ellipse cx="534" cy="382" fill="#A6A6A6" rx="3" ry="3" style="stroke: #545454; stroke-width: 1.0;"/><text fill="#000000" font-family="Ricty Diminished" font-size="11" lengthAdjust="spacingAndGlyphs" textLength="108" x="543" y="384.1736">Delete(Component*)</text><ellipse cx="534" cy="393.5356" fill="#A6A6A6" rx="3" ry="3" style="stroke: #545454; stroke-width: 1.0;"/><text fill="#000000" font-family="Ricty Diminished" font-size="11" lengthAdjust="spacingAndGlyphs" textLength="108" x="543" y="395.7092">Id(Component): int</text><ellipse cx="534" cy="405.0713" fill="#A6A6A6" rx="3" ry="3" style="stroke: #545454; stroke-width: 1.0;"/><text fill="#000000" font-family="Ricty Diminished" font-size="11" lengthAdjust="spacingAndGlyphs" textLength="162" x="543" y="407.2449">Tag(Component): const char*</text><ellipse cx="534" cy="416.6069" fill="#A6A6A6" rx="3" ry="3" style="stroke: #545454; stroke-width: 1.0;"/><text fill="#000000" font-family="Ricty Diminished" font-size="11" lengthAdjust="spacingAndGlyphs" textLength="174" x="543" y="418.7805">State(Component): const char*</text><ellipse cx="534" cy="428.1426" fill="#A6A6A6" rx="3" ry="3" style="stroke: #545454; stroke-width: 1.0;"/><text fill="#000000" font-family="Ricty Diminished" font-size="11" lengthAdjust="spacingAndGlyphs" textLength="144" x="543" y="430.3162">IsLight(Component): bool</text><ellipse cx="534" cy="439.6782" fill="#A6A6A6" rx="3" ry="3" style="stroke: #545454; stroke-width: 1.0;"/><text fill="#000000" font-family="Ricty Diminished" font-size="11" lengthAdjust="spacingAndGlyphs" textLength="138" x="543" y="441.8518">IsDark(Component): bool</text><!--class NullPhotosensor--><rect fill="#F8F8F8" filter="url(#fodnmlwovrjn)" height="59.5356" id="NullPhotosensor" style="stroke: #383838; stroke-width: 1.5;" width="170" x="538" y="508"/><ellipse cx="574.6" cy="524" fill="#B1B1B1" rx="11" ry="11" style="stroke: #383838; stroke-width: 1.0;"/><path d="M575.5844,528.9063 L576.3188,528.9063 L576.3188,530.3594 L572.3188,530.3594 L572.3188,528.9063 L573.0531,528.9063 L573.0531,518.875 L572.3188,518.875 L572.3188,517.4219 L576.3188,517.4219 L576.3188,518.875 L575.5844,518.875 L575.5844,528.9063 Z "/><text fill="#000000" font-family="Ricty Diminished" font-size="12" font-style="italic" lengthAdjust="spacingAndGlyphs" textLength="90" x="593.4" y="527.718">NullPhotosensor</text><line style="stroke: #383838; stroke-width: 1.5;" x1="539" x2="707" y1="540" y2="540"/><line style="stroke: #383838; stroke-width: 1.5;" x1="539" x2="707" y1="548" y2="548"/><ellipse cx="549" cy="559" fill="#A6A6A6" rx="3" ry="3" style="stroke: #545454; stroke-width: 1.0;"/><text fill="#000000" font-family="Ricty Diminished" font-size="11" lengthAdjust="spacingAndGlyphs" textLength="144" x="558" y="561.1736">GetInstance(): Component</text><!--class TemperatureSensor--><rect fill="#F8F8F8" filter="url(#fodnmlwovrjn)" height="105.6782" id="TemperatureSensor" style="stroke: #383838; stroke-width: 1.5;" width="200" x="779" y="336.5"/><ellipse cx="823.75" cy="352.5" fill="#B1B1B1" rx="11" ry="11" style="stroke: #383838; stroke-width: 1.0;"/><path d="M824.7344,357.4063 L825.4688,357.4063 L825.4688,358.8594 L821.4688,358.8594 L821.4688,357.4063 L822.2031,357.4063 L822.2031,347.375 L821.4688,347.375 L821.4688,345.9219 L825.4688,345.9219 L825.4688,347.375 L824.7344,347.375 L824.7344,357.4063 Z "/><text fill="#000000" font-family="Ricty Diminished" font-size="12" font-style="italic" lengthAdjust="spacingAndGlyphs" textLength="102" x="844.25" y="356.218">TemperatureSensor</text><line style="stroke: #383838; stroke-width: 1.5;" x1="780" x2="978" y1="368.5" y2="368.5"/><line style="stroke: #383838; stroke-width: 1.5;" x1="780" x2="978" y1="376.5" y2="376.5"/><ellipse cx="790" cy="387.5" fill="#A6A6A6" rx="3" ry="3" style="stroke: #545454; stroke-width: 1.0;"/><text fill="#000000" font-family="Ricty Diminished" font-size="11" lengthAdjust="spacingAndGlyphs" textLength="108" x="799" y="389.6736">Delete(Component*)</text><ellipse cx="790" cy="399.0356" fill="#A6A6A6" rx="3" ry="3" style="stroke: #545454; stroke-width: 1.0;"/><text fill="#000000" font-family="Ricty Diminished" font-size="11" lengthAdjust="spacingAndGlyphs" textLength="108" x="799" y="401.2092">Id(Component): int</text><ellipse cx="790" cy="410.5713" fill="#A6A6A6" rx="3" ry="3" style="stroke: #545454; stroke-width: 1.0;"/><text fill="#000000" font-family="Ricty Diminished" font-size="11" lengthAdjust="spacingAndGlyphs" textLength="162" x="799" y="412.7449">Tag(Component): const char*</text><ellipse cx="790" cy="422.1069" fill="#A6A6A6" rx="3" ry="3" style="stroke: #545454; stroke-width: 1.0;"/><text fill="#000000" font-family="Ricty Diminished" font-size="11" lengthAdjust="spacingAndGlyphs" textLength="174" x="799" y="424.2805">State(Component): const char*</text><ellipse cx="790" cy="433.6426" fill="#A6A6A6" rx="3" ry="3" style="stroke: #545454; stroke-width: 1.0;"/><text fill="#000000" font-family="Ricty Diminished" font-size="11" lengthAdjust="spacingAndGlyphs" textLength="150" x="799" y="435.8162">IsNormal(Component): bool</text><!--class NullTemperatureSensor--><rect fill="#F8F8F8" filter="url(#fodnmlwovrjn)" height="59.5356" id="NullTemperatureSensor" style="stroke: #383838; stroke-width: 1.5;" width="170" x="794" y="508"/><ellipse cx="814.4" cy="524" fill="#B1B1B1" rx="11" ry="11" style="stroke: #383838; stroke-width: 1.0;"/><path d="M815.3844,528.9063 L816.1188,528.9063 L816.1188,530.3594 L812.1188,530.3594 L812.1188,528.9063 L812.8531,528.9063 L812.8531,518.875 L812.1188,518.875 L812.1188,517.4219 L816.1188,517.4219 L816.1188,518.875 L815.3844,518.875 L815.3844,528.9063 Z "/><text fill="#000000" font-family="Ricty Diminished" font-size="12" font-style="italic" lengthAdjust="spacingAndGlyphs" textLength="126" x="829.6" y="527.718">NullTemperatureSensor</text><line style="stroke: #383838; stroke-width: 1.5;" x1="795" x2="963" y1="540" y2="540"/><line style="stroke: #383838; stroke-width: 1.5;" x1="795" x2="963" y1="548" y2="548"/><ellipse cx="805" cy="559" fill="#A6A6A6" rx="3" ry="3" style="stroke: #545454; stroke-width: 1.0;"/><text fill="#000000" font-family="Ricty Diminished" font-size="11" lengthAdjust="spacingAndGlyphs" textLength="144" x="814" y="561.1736">GetInstance(): Component</text><!--reverse link Microswitch to NullMicroswitch--><path d="M367,468.696 C367,482.592 367,496.25 367,507.656 " fill="none" id="Microswitch&lt;-NullMicroswitch" style="stroke: #383838; stroke-width: 1.0;"/><polygon fill="none" points="360,468.401,367,448.401,374,468.401,360,468.401" style="stroke: #383838; stroke-width: 1.0;"/><!--reverse link Photosensor to NullPhotosensor--><path d="M623,468.696 C623,482.592 623,496.25 623,507.656 " fill="none" id="Photosensor&lt;-NullPhotosensor" style="stroke: #383838; stroke-width: 1.0;"/><polygon fill="none" points="616,468.401,623,448.401,630,468.401,616,468.401" style="stroke: #383838; stroke-width: 1.0;"/><!--reverse link TemperatureSensor to NullTemperatureSensor--><path d="M879,462.813 C879,478.715 879,494.676 879,507.697 " fill="none" id="TemperatureSensor&lt;-NullTemperatureSensor" style="stroke: #383838; stroke-width: 1.0;"/><polygon fill="none" points="872,462.563,879,442.563,886,462.563,872,462.563" style="stroke: #383838; stroke-width: 1.0;"/><!--reverse link Sensor to NullSensor--><path d="M369.418,243.344 C329.908,254.146 287.178,269.252 251,290 C219.72,307.939 190.509,337.157 171.059,359.122 " fill="none" id="Sensor&lt;-NullSensor" style="stroke: #383838; stroke-width: 1.0;"/><polygon fill="none" points="367.699,236.558,388.816,238.306,371.218,250.109,367.699,236.558" style="stroke: #383838; stroke-width: 1.0;"/><!--reverse link Sensor to Microswitch--><path d="M443.151,287.659 C432.333,301.984 421.035,316.946 410.554,330.825 " fill="none" id="Sensor&lt;-Microswitch" style="stroke: #383838; stroke-width: 1.0; stroke-dasharray: 7.0,7.0;"/><polygon fill="none" points="437.913,282.981,455.551,271.239,449.085,291.417,437.913,282.981" style="stroke: #383838; stroke-width: 1.0;"/><!--reverse link Sensor to Photosensor--><path d="M546.849,287.659 C557.667,301.984 568.965,316.946 579.446,330.825 " fill="none" id="Sensor&lt;-Photosensor" style="stroke: #383838; stroke-width: 1.0; stroke-dasharray: 7.0,7.0;"/><polygon fill="none" points="540.915,291.417,534.449,271.239,552.087,282.981,540.915,291.417" style="stroke: #383838; stroke-width: 1.0;"/><!--reverse link Sensor to TemperatureSensor--><path d="M620.509,246.989 C659.485,257.916 701.924,272.175 739,290 C765.114,302.555 791.644,319.834 814.486,336.418 " fill="none" id="Sensor&lt;-TemperatureSensor" style="stroke: #383838; stroke-width: 1.0; stroke-dasharray: 7.0,7.0;"/><polygon fill="none" points="618.571,253.716,601.093,241.735,622.227,240.202,618.571,253.716" style="stroke: #383838; stroke-width: 1.0;"/><!--reverse link Component to Sensor--><path d="M495,125.335 C495,137.875 495,151.697 495,164.722 " fill="none" id="Component&lt;-Sensor" style="stroke: #383838; stroke-width: 1.0; stroke-dasharray: 7.0,7.0;"/><polygon fill="none" points="488,125.207,495,105.207,502,125.207,488,125.207" style="stroke: #383838; stroke-width: 1.0;"/><!--
@startuml sensor_class_diagram
skinparam {
    defaultFontName Ricty Diminished
    monochrome true
}

package Golem {
    interface Component

    folder sensors {
        interface Sensor {
            + Delete(Component*)
            + Id(Component): int
            + Tag(Component): const char*
            + State(Component): const char*
            + IsDefaultState(Component): bool
        }

        interface NullSensor {
            + GetInstance(): Component
        }

        folder microswitches {
            interface Microswitch {
                + Delete(Component*)
                + Id(Component): int
                + Tag(Component): const char*
                + State(Component): const char*
                + IsOff(Component): bool
                + IsOn(Component): bool
            }

            interface NullMicroswitch {
                + GetInstance(): Component
            }

            Microswitch <|- - NullMicroswitch
        }

        folder photosensors {
            interface Photosensor {
                + Delete(Component*)
                + Id(Component): int
                + Tag(Component): const char*
                + State(Component): const char*
                + IsLight(Component): bool
                + IsDark(Component): bool
            }

            interface NullPhotosensor {
                + GetInstance(): Component
            }

            Photosensor <|- - NullPhotosensor
        }

        folder temperature_sensors {
            interface TemperatureSensor {
                + Delete(Component*)
                + Id(Component): int
                + Tag(Component): const char*
                + State(Component): const char*
                + IsNormal(Component): bool
            }

            interface NullTemperatureSensor {
                + GetInstance(): Component
            }

            TemperatureSensor <|- - NullTemperatureSensor
        }

        Sensor <|- - NullSensor
        Sensor <|.. Microswitch
        Sensor <|.. Photosensor
        Sensor <|.. TemperatureSensor
    }

    Component <|.. Sensor
}
@enduml

PlantUML version 1.2019.09(Tue Aug 27 01:19:51 JST 2019)
(GPL source distribution)
Java Runtime: Java(TM) SE Runtime Environment
JVM: Java HotSpot(TM) 64-Bit Server VM
Java Version: 1.8.0_221-b11
Operating System: Windows 10
OS Version: 10.0
Default Encoding: MS932
Language: en
Country: GB
--></g></svg>