<?xml version="1.0" encoding="UTF-8" standalone="no"?><svg xmlns="http://www.w3.org/2000/svg" xmlns:xlink="http://www.w3.org/1999/xlink" contentScriptType="application/ecmascript" contentStyleType="text/css" height="542px" preserveAspectRatio="none" style="width:1398px;height:542px;" version="1.1" viewBox="0 0 1398 542" width="1398px" zoomAndPan="magnify"><defs><filter height="300%" id="fa213oyi1zlv4" width="300%" x="-1" y="-1"><feGaussianBlur result="blurOut" stdDeviation="2.0"/><feColorMatrix in="blurOut" result="blurOut2" type="matrix" values="0 0 0 0 0 0 0 0 0 0 0 0 0 0 0 0 0 0 .4 0"/><feOffset dx="4.0" dy="4.0" in="blurOut2" result="blurOut3"/><feBlend in="SourceGraphic" in2="blurOut3" mode="normal"/></filter></defs><g><!--cluster Golem--><polygon fill="#FFFFFF" filter="url(#fa213oyi1zlv4)" points="22,24,63,24,70,44.6919,1376,44.6919,1376,530,22,530,22,24" style="stroke: #000000; stroke-width: 1.5;"/><line style="stroke: #000000; stroke-width: 1.5;" x1="22" x2="70" y1="44.6919" y2="44.6919"/><text fill="#000000" font-family="Ricty Diminished" font-size="14" font-weight="bold" lengthAdjust="spacingAndGlyphs" textLength="35" x="26" y="37.6836">Golem</text><!--cluster sensors--><polygon fill="#FFFFFF" filter="url(#fa213oyi1zlv4)" points="46,65,101,65,108,85.6919,1352,85.6919,1352,506,46,506,46,65" style="stroke: #000000; stroke-width: 1.5;"/><line style="stroke: #000000; stroke-width: 1.5;" x1="46" x2="108" y1="85.6919" y2="85.6919"/><text fill="#000000" font-family="Ricty Diminished" font-size="14" font-weight="bold" lengthAdjust="spacingAndGlyphs" textLength="49" x="50" y="78.6836">sensors</text><!--cluster microswitches--><polygon fill="#FFFFFF" filter="url(#fa213oyi1zlv4)" points="173,219,270,219,277,239.6919,530,239.6919,530,482,173,482,173,219" style="stroke: #000000; stroke-width: 1.5;"/><line style="stroke: #000000; stroke-width: 1.5;" x1="173" x2="277" y1="239.6919" y2="239.6919"/><text fill="#000000" font-family="Ricty Diminished" font-size="14" font-weight="bold" lengthAdjust="spacingAndGlyphs" textLength="91" x="177" y="232.6836">microswitches</text><!--cluster photosensors--><polygon fill="#FFFFFF" filter="url(#fa213oyi1zlv4)" points="554,219,644,219,651,239.6919,911,239.6919,911,482,554,482,554,219" style="stroke: #000000; stroke-width: 1.5;"/><line style="stroke: #000000; stroke-width: 1.5;" x1="554" x2="651" y1="239.6919" y2="239.6919"/><text fill="#000000" font-family="Ricty Diminished" font-size="14" font-weight="bold" lengthAdjust="spacingAndGlyphs" textLength="84" x="558" y="232.6836">photosensors</text><!--cluster temperature_sensors--><polygon fill="#FFFFFF" filter="url(#fa213oyi1zlv4)" points="935,225,1074,225,1081,245.6919,1328,245.6919,1328,482,935,482,935,225" style="stroke: #000000; stroke-width: 1.5;"/><line style="stroke: #000000; stroke-width: 1.5;" x1="935" x2="1081" y1="245.6919" y2="245.6919"/><text fill="#000000" font-family="Ricty Diminished" font-size="14" font-weight="bold" lengthAdjust="spacingAndGlyphs" textLength="133" x="939" y="238.6836">temperature_sensors</text><!--class Sensor--><rect fill="#F8F8F8" filter="url(#fa213oyi1zlv4)" height="94.1426" id="Sensor" style="stroke: #383838; stroke-width: 1.5;" width="158" x="564" y="98"/><ellipse cx="620.75" cy="114" fill="#B1B1B1" rx="11" ry="11" style="stroke: #383838; stroke-width: 1.0;"/><path d="M621.7344,118.9063 L622.4688,118.9063 L622.4688,120.3594 L618.4688,120.3594 L618.4688,118.9063 L619.2031,118.9063 L619.2031,108.875 L618.4688,108.875 L618.4688,107.4219 L622.4688,107.4219 L622.4688,108.875 L621.7344,108.875 L621.7344,118.9063 Z "/><text fill="#000000" font-family="Ricty Diminished" font-size="12" font-style="italic" lengthAdjust="spacingAndGlyphs" textLength="36" x="641.25" y="117.718">Sensor</text><line style="stroke: #383838; stroke-width: 1.5;" x1="565" x2="721" y1="130" y2="130"/><line style="stroke: #383838; stroke-width: 1.5;" x1="565" x2="721" y1="138" y2="138"/><ellipse cx="575" cy="149" fill="#A6A6A6" rx="3" ry="3" style="stroke: #545454; stroke-width: 1.0;"/><text fill="#000000" font-family="Ricty Diminished" font-size="11" lengthAdjust="spacingAndGlyphs" textLength="54" x="584" y="151.1736">Id(): int</text><ellipse cx="575" cy="160.5356" fill="#A6A6A6" rx="3" ry="3" style="stroke: #545454; stroke-width: 1.0;"/><text fill="#000000" font-family="Ricty Diminished" font-size="11" lengthAdjust="spacingAndGlyphs" textLength="108" x="584" y="162.7092">Tag(): const char*</text><ellipse cx="575" cy="172.0713" fill="#A6A6A6" rx="3" ry="3" style="stroke: #545454; stroke-width: 1.0;"/><text fill="#000000" font-family="Ricty Diminished" font-size="11" lengthAdjust="spacingAndGlyphs" textLength="120" x="584" y="174.2449">State(): const char*</text><ellipse cx="575" cy="183.6069" fill="#A6A6A6" rx="3" ry="3" style="stroke: #545454; stroke-width: 1.0;"/><text fill="#000000" font-family="Ricty Diminished" font-size="11" lengthAdjust="spacingAndGlyphs" textLength="132" x="584" y="185.7805">IsDefaultState(): bool</text><!--class SensorFactory--><rect fill="#F8F8F8" filter="url(#fa213oyi1zlv4)" height="59.5356" id="SensorFactory" style="stroke: #383838; stroke-width: 1.5;" width="114" x="761" y="115"/><ellipse cx="777.8" cy="131" fill="#B1B1B1" rx="11" ry="11" style="stroke: #383838; stroke-width: 1.0;"/><path d="M778.7844,135.9063 L779.5188,135.9063 L779.5188,137.3594 L775.5188,137.3594 L775.5188,135.9063 L776.2531,135.9063 L776.2531,125.875 L775.5188,125.875 L775.5188,124.4219 L779.5188,124.4219 L779.5188,125.875 L778.7844,125.875 L778.7844,135.9063 Z "/><text fill="#000000" font-family="Ricty Diminished" font-size="12" font-style="italic" lengthAdjust="spacingAndGlyphs" textLength="78" x="792.2" y="134.718">SensorFactory</text><line style="stroke: #383838; stroke-width: 1.5;" x1="762" x2="874" y1="147" y2="147"/><line style="stroke: #383838; stroke-width: 1.5;" x1="762" x2="874" y1="155" y2="155"/><text fill="#000000" font-family="Ricty Diminished" font-size="11" lengthAdjust="spacingAndGlyphs" textLength="102" x="767" y="168.1736">Make(int): Sensor</text><!--class NullSensor--><rect fill="#F8F8F8" filter="url(#fa213oyi1zlv4)" height="48" id="NullSensor" style="stroke: #383838; stroke-width: 1.5;" width="92" x="62" y="281"/><ellipse cx="77" cy="297" fill="#C2C2C2" rx="11" ry="11" style="stroke: #383838; stroke-width: 1.0;"/><path d="M79.7031,302.4375 Q78.7813,303.3594 76.5156,303.3594 Q75.25,303.3594 74.3281,302.4375 Q72.6719,300.7813 72.6719,297.25 Q72.6719,293.1406 74.4531,291.3438 Q75.3906,290.4219 76.5781,290.4219 Q78.8438,290.4219 79.5781,291.1406 Q80.9688,292.5469 80.9063,294.9375 L78.4375,294.9375 Q78.375,292.8125 77.6406,292.0781 Q77.25,291.6719 76.5781,291.6719 Q76.5781,291.6719 76.5156,292.1406 Q75.1875,293.4688 75.1875,297.125 Q75.1875,300.3125 76.3281,301.4375 Q76.8594,301.9688 76.8594,301.9688 Q77.1094,301.9688 77.6406,301.4375 Q78.3125,300.7813 78.375,298.3906 L80.9688,298.3906 Q80.7656,301.375 79.7031,302.4375 Z "/><text fill="#000000" font-family="Ricty Diminished" font-size="12" lengthAdjust="spacingAndGlyphs" textLength="60" x="91" y="300.718">NullSensor</text><line style="stroke: #383838; stroke-width: 1.5;" x1="63" x2="153" y1="313" y2="313"/><line style="stroke: #383838; stroke-width: 1.5;" x1="63" x2="153" y1="321" y2="321"/><!--class Microswitch--><rect fill="#F8F8F8" filter="url(#fa213oyi1zlv4)" height="105.6782" id="Microswitch" style="stroke: #383838; stroke-width: 1.5;" width="146" x="189" y="252"/><ellipse cx="225.6" cy="268" fill="#B1B1B1" rx="11" ry="11" style="stroke: #383838; stroke-width: 1.0;"/><path d="M226.5844,272.9063 L227.3188,272.9063 L227.3188,274.3594 L223.3188,274.3594 L223.3188,272.9063 L224.0531,272.9063 L224.0531,262.875 L223.3188,262.875 L223.3188,261.4219 L227.3188,261.4219 L227.3188,262.875 L226.5844,262.875 L226.5844,272.9063 Z "/><text fill="#000000" font-family="Ricty Diminished" font-size="12" font-style="italic" lengthAdjust="spacingAndGlyphs" textLength="66" x="244.4" y="271.718">Microswitch</text><line style="stroke: #383838; stroke-width: 1.5;" x1="190" x2="334" y1="284" y2="284"/><line style="stroke: #383838; stroke-width: 1.5;" x1="190" x2="334" y1="292" y2="292"/><ellipse cx="200" cy="303" fill="#A6A6A6" rx="3" ry="3" style="stroke: #545454; stroke-width: 1.0;"/><text fill="#000000" font-family="Ricty Diminished" font-size="11" lengthAdjust="spacingAndGlyphs" textLength="54" x="209" y="305.1736">Id(): int</text><ellipse cx="200" cy="314.5356" fill="#A6A6A6" rx="3" ry="3" style="stroke: #545454; stroke-width: 1.0;"/><text fill="#000000" font-family="Ricty Diminished" font-size="11" lengthAdjust="spacingAndGlyphs" textLength="108" x="209" y="316.7092">Tag(): const char*</text><ellipse cx="200" cy="326.0713" fill="#A6A6A6" rx="3" ry="3" style="stroke: #545454; stroke-width: 1.0;"/><text fill="#000000" font-family="Ricty Diminished" font-size="11" lengthAdjust="spacingAndGlyphs" textLength="120" x="209" y="328.2449">State(): const char*</text><ellipse cx="200" cy="337.6069" fill="#A6A6A6" rx="3" ry="3" style="stroke: #545454; stroke-width: 1.0;"/><text fill="#000000" font-family="Ricty Diminished" font-size="11" lengthAdjust="spacingAndGlyphs" textLength="78" x="209" y="339.7805">IsOff(): bool</text><ellipse cx="200" cy="349.1426" fill="#A6A6A6" rx="3" ry="3" style="stroke: #545454; stroke-width: 1.0;"/><text fill="#000000" font-family="Ricty Diminished" font-size="11" lengthAdjust="spacingAndGlyphs" textLength="72" x="209" y="351.3162">IsOn(): bool</text><!--class MicroswitchFactory--><rect fill="#F8F8F8" filter="url(#fa213oyi1zlv4)" height="59.5356" id="MicroswitchFactory" style="stroke: #383838; stroke-width: 1.5;" width="144" x="370" y="275"/><ellipse cx="386.8" cy="291" fill="#B1B1B1" rx="11" ry="11" style="stroke: #383838; stroke-width: 1.0;"/><path d="M387.7844,295.9063 L388.5188,295.9063 L388.5188,297.3594 L384.5188,297.3594 L384.5188,295.9063 L385.2531,295.9063 L385.2531,285.875 L384.5188,285.875 L384.5188,284.4219 L388.5188,284.4219 L388.5188,285.875 L387.7844,285.875 L387.7844,295.9063 Z "/><text fill="#000000" font-family="Ricty Diminished" font-size="12" font-style="italic" lengthAdjust="spacingAndGlyphs" textLength="108" x="401.2" y="294.718">MicroswitchFactory</text><line style="stroke: #383838; stroke-width: 1.5;" x1="371" x2="513" y1="307" y2="307"/><line style="stroke: #383838; stroke-width: 1.5;" x1="371" x2="513" y1="315" y2="315"/><text fill="#000000" font-family="Ricty Diminished" font-size="11" lengthAdjust="spacingAndGlyphs" textLength="132" x="376" y="328.1736">Make(int): Microswitch</text><!--class NullMicroswitch--><rect fill="#F8F8F8" filter="url(#fa213oyi1zlv4)" height="48" id="NullMicroswitch" style="stroke: #383838; stroke-width: 1.5;" width="122" x="201" y="418"/><ellipse cx="216" cy="434" fill="#C2C2C2" rx="11" ry="11" style="stroke: #383838; stroke-width: 1.0;"/><path d="M218.7031,439.4375 Q217.7813,440.3594 215.5156,440.3594 Q214.25,440.3594 213.3281,439.4375 Q211.6719,437.7813 211.6719,434.25 Q211.6719,430.1406 213.4531,428.3438 Q214.3906,427.4219 215.5781,427.4219 Q217.8438,427.4219 218.5781,428.1406 Q219.9688,429.5469 219.9063,431.9375 L217.4375,431.9375 Q217.375,429.8125 216.6406,429.0781 Q216.25,428.6719 215.5781,428.6719 Q215.5781,428.6719 215.5156,429.1406 Q214.1875,430.4688 214.1875,434.125 Q214.1875,437.3125 215.3281,438.4375 Q215.8594,438.9688 215.8594,438.9688 Q216.1094,438.9688 216.6406,438.4375 Q217.3125,437.7813 217.375,435.3906 L219.9688,435.3906 Q219.7656,438.375 218.7031,439.4375 Z "/><text fill="#000000" font-family="Ricty Diminished" font-size="12" lengthAdjust="spacingAndGlyphs" textLength="90" x="230" y="437.718">NullMicroswitch</text><line style="stroke: #383838; stroke-width: 1.5;" x1="202" x2="322" y1="450" y2="450"/><line style="stroke: #383838; stroke-width: 1.5;" x1="202" x2="322" y1="458" y2="458"/><!--class Photosensor--><rect fill="#F8F8F8" filter="url(#fa213oyi1zlv4)" height="105.6782" id="Photosensor" style="stroke: #383838; stroke-width: 1.5;" width="146" x="570" y="252"/><ellipse cx="606.6" cy="268" fill="#B1B1B1" rx="11" ry="11" style="stroke: #383838; stroke-width: 1.0;"/><path d="M607.5844,272.9063 L608.3188,272.9063 L608.3188,274.3594 L604.3188,274.3594 L604.3188,272.9063 L605.0531,272.9063 L605.0531,262.875 L604.3188,262.875 L604.3188,261.4219 L608.3188,261.4219 L608.3188,262.875 L607.5844,262.875 L607.5844,272.9063 Z "/><text fill="#000000" font-family="Ricty Diminished" font-size="12" font-style="italic" lengthAdjust="spacingAndGlyphs" textLength="66" x="625.4" y="271.718">Photosensor</text><line style="stroke: #383838; stroke-width: 1.5;" x1="571" x2="715" y1="284" y2="284"/><line style="stroke: #383838; stroke-width: 1.5;" x1="571" x2="715" y1="292" y2="292"/><ellipse cx="581" cy="303" fill="#A6A6A6" rx="3" ry="3" style="stroke: #545454; stroke-width: 1.0;"/><text fill="#000000" font-family="Ricty Diminished" font-size="11" lengthAdjust="spacingAndGlyphs" textLength="54" x="590" y="305.1736">Id(): int</text><ellipse cx="581" cy="314.5356" fill="#A6A6A6" rx="3" ry="3" style="stroke: #545454; stroke-width: 1.0;"/><text fill="#000000" font-family="Ricty Diminished" font-size="11" lengthAdjust="spacingAndGlyphs" textLength="108" x="590" y="316.7092">Tag(): const char*</text><ellipse cx="581" cy="326.0713" fill="#A6A6A6" rx="3" ry="3" style="stroke: #545454; stroke-width: 1.0;"/><text fill="#000000" font-family="Ricty Diminished" font-size="11" lengthAdjust="spacingAndGlyphs" textLength="120" x="590" y="328.2449">State(): const char*</text><ellipse cx="581" cy="337.6069" fill="#A6A6A6" rx="3" ry="3" style="stroke: #545454; stroke-width: 1.0;"/><text fill="#000000" font-family="Ricty Diminished" font-size="11" lengthAdjust="spacingAndGlyphs" textLength="90" x="590" y="339.7805">IsLight(): bool</text><ellipse cx="581" cy="349.1426" fill="#A6A6A6" rx="3" ry="3" style="stroke: #545454; stroke-width: 1.0;"/><text fill="#000000" font-family="Ricty Diminished" font-size="11" lengthAdjust="spacingAndGlyphs" textLength="84" x="590" y="351.3162">IsDark(): bool</text><!--class PhotosensorFactory--><rect fill="#F8F8F8" filter="url(#fa213oyi1zlv4)" height="59.5356" id="PhotosensorFactory" style="stroke: #383838; stroke-width: 1.5;" width="144" x="751" y="275"/><ellipse cx="767.8" cy="291" fill="#B1B1B1" rx="11" ry="11" style="stroke: #383838; stroke-width: 1.0;"/><path d="M768.7844,295.9063 L769.5188,295.9063 L769.5188,297.3594 L765.5188,297.3594 L765.5188,295.9063 L766.2531,295.9063 L766.2531,285.875 L765.5188,285.875 L765.5188,284.4219 L769.5188,284.4219 L769.5188,285.875 L768.7844,285.875 L768.7844,295.9063 Z "/><text fill="#000000" font-family="Ricty Diminished" font-size="12" font-style="italic" lengthAdjust="spacingAndGlyphs" textLength="108" x="782.2" y="294.718">PhotosensorFactory</text><line style="stroke: #383838; stroke-width: 1.5;" x1="752" x2="894" y1="307" y2="307"/><line style="stroke: #383838; stroke-width: 1.5;" x1="752" x2="894" y1="315" y2="315"/><text fill="#000000" font-family="Ricty Diminished" font-size="11" lengthAdjust="spacingAndGlyphs" textLength="132" x="757" y="328.1736">Make(int): Photosensor</text><!--class NullPhotosensor--><rect fill="#F8F8F8" filter="url(#fa213oyi1zlv4)" height="48" id="NullPhotosensor" style="stroke: #383838; stroke-width: 1.5;" width="122" x="582" y="418"/><ellipse cx="597" cy="434" fill="#C2C2C2" rx="11" ry="11" style="stroke: #383838; stroke-width: 1.0;"/><path d="M599.7031,439.4375 Q598.7813,440.3594 596.5156,440.3594 Q595.25,440.3594 594.3281,439.4375 Q592.6719,437.7813 592.6719,434.25 Q592.6719,430.1406 594.4531,428.3438 Q595.3906,427.4219 596.5781,427.4219 Q598.8438,427.4219 599.5781,428.1406 Q600.9688,429.5469 600.9063,431.9375 L598.4375,431.9375 Q598.375,429.8125 597.6406,429.0781 Q597.25,428.6719 596.5781,428.6719 Q596.5781,428.6719 596.5156,429.1406 Q595.1875,430.4688 595.1875,434.125 Q595.1875,437.3125 596.3281,438.4375 Q596.8594,438.9688 596.8594,438.9688 Q597.1094,438.9688 597.6406,438.4375 Q598.3125,437.7813 598.375,435.3906 L600.9688,435.3906 Q600.7656,438.375 599.7031,439.4375 Z "/><text fill="#000000" font-family="Ricty Diminished" font-size="12" lengthAdjust="spacingAndGlyphs" textLength="90" x="611" y="437.718">NullPhotosensor</text><line style="stroke: #383838; stroke-width: 1.5;" x1="583" x2="703" y1="450" y2="450"/><line style="stroke: #383838; stroke-width: 1.5;" x1="583" x2="703" y1="458" y2="458"/><!--class TemperatureSensor--><rect fill="#F8F8F8" filter="url(#fa213oyi1zlv4)" height="94.1426" id="TemperatureSensor" style="stroke: #383838; stroke-width: 1.5;" width="146" x="951" y="258"/><ellipse cx="971.4" cy="274" fill="#B1B1B1" rx="11" ry="11" style="stroke: #383838; stroke-width: 1.0;"/><path d="M972.3844,278.9063 L973.1188,278.9063 L973.1188,280.3594 L969.1188,280.3594 L969.1188,278.9063 L969.8531,278.9063 L969.8531,268.875 L969.1188,268.875 L969.1188,267.4219 L973.1188,267.4219 L973.1188,268.875 L972.3844,268.875 L972.3844,278.9063 Z "/><text fill="#000000" font-family="Ricty Diminished" font-size="12" font-style="italic" lengthAdjust="spacingAndGlyphs" textLength="102" x="986.6" y="277.718">TemperatureSensor</text><line style="stroke: #383838; stroke-width: 1.5;" x1="952" x2="1096" y1="290" y2="290"/><line style="stroke: #383838; stroke-width: 1.5;" x1="952" x2="1096" y1="298" y2="298"/><ellipse cx="962" cy="309" fill="#A6A6A6" rx="3" ry="3" style="stroke: #545454; stroke-width: 1.0;"/><text fill="#000000" font-family="Ricty Diminished" font-size="11" lengthAdjust="spacingAndGlyphs" textLength="54" x="971" y="311.1736">Id(): int</text><ellipse cx="962" cy="320.5356" fill="#A6A6A6" rx="3" ry="3" style="stroke: #545454; stroke-width: 1.0;"/><text fill="#000000" font-family="Ricty Diminished" font-size="11" lengthAdjust="spacingAndGlyphs" textLength="108" x="971" y="322.7092">Tag(): const char*</text><ellipse cx="962" cy="332.0713" fill="#A6A6A6" rx="3" ry="3" style="stroke: #545454; stroke-width: 1.0;"/><text fill="#000000" font-family="Ricty Diminished" font-size="11" lengthAdjust="spacingAndGlyphs" textLength="120" x="971" y="334.2449">State(): const char*</text><ellipse cx="962" cy="343.6069" fill="#A6A6A6" rx="3" ry="3" style="stroke: #545454; stroke-width: 1.0;"/><text fill="#000000" font-family="Ricty Diminished" font-size="11" lengthAdjust="spacingAndGlyphs" textLength="96" x="971" y="345.7805">IsNormal(): bool</text><!--class TemperatureSensorFactory--><rect fill="#F8F8F8" filter="url(#fa213oyi1zlv4)" height="59.5356" id="TemperatureSensorFactory" style="stroke: #383838; stroke-width: 1.5;" width="180" x="1132" y="275"/><ellipse cx="1148.8" cy="291" fill="#B1B1B1" rx="11" ry="11" style="stroke: #383838; stroke-width: 1.0;"/><path d="M1149.7844,295.9063 L1150.5188,295.9063 L1150.5188,297.3594 L1146.5188,297.3594 L1146.5188,295.9063 L1147.2531,295.9063 L1147.2531,285.875 L1146.5188,285.875 L1146.5188,284.4219 L1150.5188,284.4219 L1150.5188,285.875 L1149.7844,285.875 L1149.7844,295.9063 Z "/><text fill="#000000" font-family="Ricty Diminished" font-size="12" font-style="italic" lengthAdjust="spacingAndGlyphs" textLength="144" x="1163.2" y="294.718">TemperatureSensorFactory</text><line style="stroke: #383838; stroke-width: 1.5;" x1="1133" x2="1311" y1="307" y2="307"/><line style="stroke: #383838; stroke-width: 1.5;" x1="1133" x2="1311" y1="315" y2="315"/><text fill="#000000" font-family="Ricty Diminished" font-size="11" lengthAdjust="spacingAndGlyphs" textLength="168" x="1138" y="328.1736">Make(int): TemperatureSensor</text><!--class NullTemperatureSensor--><rect fill="#F8F8F8" filter="url(#fa213oyi1zlv4)" height="48" id="NullTemperatureSensor" style="stroke: #383838; stroke-width: 1.5;" width="158" x="951" y="418"/><ellipse cx="966" cy="434" fill="#C2C2C2" rx="11" ry="11" style="stroke: #383838; stroke-width: 1.0;"/><path d="M968.7031,439.4375 Q967.7813,440.3594 965.5156,440.3594 Q964.25,440.3594 963.3281,439.4375 Q961.6719,437.7813 961.6719,434.25 Q961.6719,430.1406 963.4531,428.3438 Q964.3906,427.4219 965.5781,427.4219 Q967.8438,427.4219 968.5781,428.1406 Q969.9688,429.5469 969.9063,431.9375 L967.4375,431.9375 Q967.375,429.8125 966.6406,429.0781 Q966.25,428.6719 965.5781,428.6719 Q965.5781,428.6719 965.5156,429.1406 Q964.1875,430.4688 964.1875,434.125 Q964.1875,437.3125 965.3281,438.4375 Q965.8594,438.9688 965.8594,438.9688 Q966.1094,438.9688 966.6406,438.4375 Q967.3125,437.7813 967.375,435.3906 L969.9688,435.3906 Q969.7656,438.375 968.7031,439.4375 Z "/><text fill="#000000" font-family="Ricty Diminished" font-size="12" lengthAdjust="spacingAndGlyphs" textLength="126" x="980" y="437.718">NullTemperatureSensor</text><line style="stroke: #383838; stroke-width: 1.5;" x1="952" x2="1108" y1="450" y2="450"/><line style="stroke: #383838; stroke-width: 1.5;" x1="952" x2="1108" y1="458" y2="458"/><!--reverse link Microswitch to NullMicroswitch--><path d="M262,378.363 C262,392.683 262,406.71 262,417.847 " fill="none" id="Microswitch&lt;-NullMicroswitch" style="stroke: #383838; stroke-width: 1.0;"/><polygon fill="none" points="255,378.195,262,358.195,269,378.194,255,378.195" style="stroke: #383838; stroke-width: 1.0;"/><!--reverse link Microswitch to MicroswitchFactory--><path d="M340.268,305 C350.104,305 359.94,305 369.776,305 " fill="none" id="Microswitch&lt;-MicroswitchFactory" style="stroke: #383838; stroke-width: 1.0;"/><polygon fill="#383838" points="335.125,305,344.125,309,340.125,305,344.125,301,335.125,305" style="stroke: #383838; stroke-width: 1.0;"/><!--reverse link Photosensor to NullPhotosensor--><path d="M643,378.363 C643,392.683 643,406.71 643,417.847 " fill="none" id="Photosensor&lt;-NullPhotosensor" style="stroke: #383838; stroke-width: 1.0;"/><polygon fill="none" points="636,378.195,643,358.195,650,378.194,636,378.195" style="stroke: #383838; stroke-width: 1.0;"/><!--reverse link Photosensor to PhotosensorFactory--><path d="M721.268,305 C731.104,305 740.94,305 750.776,305 " fill="none" id="Photosensor&lt;-PhotosensorFactory" style="stroke: #383838; stroke-width: 1.0;"/><polygon fill="#383838" points="716.125,305,725.125,309,721.125,305,725.125,301,716.125,305" style="stroke: #383838; stroke-width: 1.0;"/><!--reverse link TemperatureSensor to NullTemperatureSensor--><path d="M1026.94,372.158 C1027.67,388.575 1028.4,405.097 1028.97,417.839 " fill="none" id="TemperatureSensor&lt;-NullTemperatureSensor" style="stroke: #383838; stroke-width: 1.0;"/><polygon fill="none" points="1019.94,372.373,1026.05,352.082,1033.93,371.751,1019.94,372.373" style="stroke: #383838; stroke-width: 1.0;"/><!--reverse link TemperatureSensor to TemperatureSensorFactory--><path d="M1102.23,305 C1112.07,305 1121.9,305 1131.73,305 " fill="none" id="TemperatureSensor&lt;-TemperatureSensorFactory" style="stroke: #383838; stroke-width: 1.0;"/><polygon fill="#383838" points="1097.09,305,1106.09,309,1102.09,305,1106.09,301,1097.09,305" style="stroke: #383838; stroke-width: 1.0;"/><!--reverse link Sensor to NullSensor--><path d="M543.645,150.476 C424.53,157.419 233.381,174.054 173,211 C146.452,227.244 127.914,258.863 117.612,280.69 " fill="none" id="Sensor&lt;-NullSensor" style="stroke: #383838; stroke-width: 1.0;"/><polygon fill="none" points="543.558,143.47,563.916,149.347,544.337,157.448,543.558,143.47" style="stroke: #383838; stroke-width: 1.0;"/><!--reverse link Sensor to SensorFactory--><path d="M727.411,145 C738.541,145 749.672,145 760.802,145 " fill="none" id="Sensor&lt;-SensorFactory" style="stroke: #383838; stroke-width: 1.0;"/><polygon fill="#383838" points="722.297,145,731.297,149,727.297,145,731.297,141,722.297,145" style="stroke: #383838; stroke-width: 1.0;"/><!--reverse link Sensor to Microswitch--><path d="M543.784,153.802 C485.006,161.816 410.776,178.063 352,211 C333.575,221.325 316.547,236.606 302.373,251.812 " fill="none" id="Sensor&lt;-Microswitch" style="stroke: #383838; stroke-width: 1.0; stroke-dasharray: 7.0,7.0;"/><polygon fill="none" points="543.166,146.824,563.879,151.296,544.898,160.717,543.166,146.824" style="stroke: #383838; stroke-width: 1.0;"/><!--reverse link SensorFactory to MicroswitchFactory--><path d="M757.746,184.47 C751.571,187.374 745.263,189.961 739,192 C660.407,217.593 630.205,178.991 554,211 C520.212,225.192 488.768,253.143 467.853,274.714 " fill="none" id="SensorFactory&lt;-MicroswitchFactory" style="stroke: #383838; stroke-width: 1.0; stroke-dasharray: 7.0,7.0;"/><polygon fill="none" points="754.728,178.148,775.689,175.041,761.24,190.541,754.728,178.148" style="stroke: #383838; stroke-width: 1.0;"/><!--reverse link Sensor to Photosensor--><path d="M643,212.321 C643,225.57 643,239.307 643,251.99 " fill="none" id="Sensor&lt;-Photosensor" style="stroke: #383838; stroke-width: 1.0; stroke-dasharray: 7.0,7.0;"/><polygon fill="none" points="636,212.125,643,192.125,650,212.125,636,212.125" style="stroke: #383838; stroke-width: 1.0;"/><!--reverse link SensorFactory to PhotosensorFactory--><path d="M819.562,195.345 C820.387,221.433 821.372,252.568 822.076,274.809 " fill="none" id="SensorFactory&lt;-PhotosensorFactory" style="stroke: #383838; stroke-width: 1.0; stroke-dasharray: 7.0,7.0;"/><polygon fill="none" points="812.565,195.56,818.929,175.348,826.558,195.117,812.565,195.56" style="stroke: #383838; stroke-width: 1.0;"/><!--reverse link Sensor to TemperatureSensor--><path d="M741.38,191.541 C741.921,191.697 742.461,191.85 743,192 C815.383,212.179 841.807,181.695 911,211 C936.502,221.8 960.773,240.264 980.238,257.906 " fill="none" id="Sensor&lt;-TemperatureSensor" style="stroke: #383838; stroke-width: 1.0; stroke-dasharray: 7.0,7.0;"/><polygon fill="none" points="738.869,198.083,722.105,185.122,743.292,184.8,738.869,198.083" style="stroke: #383838; stroke-width: 1.0;"/><!--reverse link SensorFactory to TemperatureSensorFactory--><path d="M895.25,152.288 C957.35,159.785 1045.4,176.038 1115,211 C1146.45,226.798 1176.15,253.965 1196.24,274.871 " fill="none" id="SensorFactory&lt;-TemperatureSensorFactory" style="stroke: #383838; stroke-width: 1.0; stroke-dasharray: 7.0,7.0;"/><polygon fill="none" points="894.355,159.232,875.249,150.067,895.9,145.318,894.355,159.232" style="stroke: #383838; stroke-width: 1.0;"/><!--
@startuml sensor_class_diagram
skinparam {
    defaultFontName Ricty Diminished
    monochrome true
}

package Golem {
    folder sensors {
        interface Sensor {
            + Id(): int
            + Tag(): const char*
            + State(): const char*
            + IsDefaultState(): bool
        }
        interface SensorFactory {
            Make(int): Sensor
        }
        class NullSensor
        folder microswitches {
            interface Microswitch {
                + Id(): int
                + Tag(): const char*
                + State(): const char*
                + IsOff(): bool
                + IsOn(): bool
            }
            interface MicroswitchFactory {
                Make(int): Microswitch
            }
            class NullMicroswitch
            Microswitch <|- - NullMicroswitch
            Microswitch <- MicroswitchFactory
        }
        folder photosensors {
            interface Photosensor {
                + Id(): int
                + Tag(): const char*
                + State(): const char*
                + IsLight(): bool
                + IsDark(): bool
            }
            interface PhotosensorFactory {
                Make(int): Photosensor
            }
            class NullPhotosensor
            Photosensor <|- - NullPhotosensor
            Photosensor <- PhotosensorFactory
        }
        folder temperature_sensors {
            interface TemperatureSensor {
                + Id(): int
                + Tag(): const char*
                + State(): const char*
                + IsNormal(): bool
            }
            interface TemperatureSensorFactory {
                Make(int): TemperatureSensor
            }
            class NullTemperatureSensor
            TemperatureSensor <|- - NullTemperatureSensor
            TemperatureSensor <- TemperatureSensorFactory
        }
        Sensor <|- - NullSensor
        Sensor <- SensorFactory
        Sensor <|.. Microswitch
        SensorFactory <|.. MicroswitchFactory
        Sensor <|.. Photosensor
        SensorFactory <|.. PhotosensorFactory
        Sensor <|.. TemperatureSensor
        SensorFactory <|.. TemperatureSensorFactory
    }
}
@enduml

PlantUML version 1.2019.09(Tue Aug 27 01:19:51 JST 2019)
(GPL source distribution)
Java Runtime: Java(TM) SE Runtime Environment
JVM: Java HotSpot(TM) 64-Bit Server VM
Java Version: 1.8.0_221-b11
Operating System: Windows 10
OS Version: 10.0
Default Encoding: MS932
Language: en
Country: GB
--></g></svg>