<?xml version="1.0" encoding="UTF-8" standalone="no"?><svg xmlns="http://www.w3.org/2000/svg" xmlns:xlink="http://www.w3.org/1999/xlink" contentScriptType="application/ecmascript" contentStyleType="text/css" height="323px" preserveAspectRatio="none" style="width:1209px;height:323px;" version="1.1" viewBox="0 0 1209 323" width="1209px" zoomAndPan="magnify"><defs><filter height="300%" id="f1pualjc20df1t" width="300%" x="-1" y="-1"><feGaussianBlur result="blurOut" stdDeviation="2.0"/><feColorMatrix in="blurOut" result="blurOut2" type="matrix" values="0 0 0 0 0 0 0 0 0 0 0 0 0 0 0 0 0 0 .4 0"/><feOffset dx="4.0" dy="4.0" in="blurOut2" result="blurOut3"/><feBlend in="SourceGraphic" in2="blurOut3" mode="normal"/></filter></defs><g><!--cluster Golem--><polygon fill="#FFFFFF" filter="url(#f1pualjc20df1t)" points="22,24,63,24,70,44.6919,1187,44.6919,1187,311,22,311,22,24" style="stroke: #000000; stroke-width: 1.5;"/><line style="stroke: #000000; stroke-width: 1.5;" x1="22" x2="70" y1="44.6919" y2="44.6919"/><text fill="#000000" font-family="Ricty Diminished" font-size="14" font-weight="bold" lengthAdjust="spacingAndGlyphs" textLength="35" x="26" y="37.6836">Golem</text><!--cluster util--><polygon fill="#FFFFFF" filter="url(#f1pualjc20df1t)" points="46,167,80,167,87,187.6919,1163,187.6919,1163,287,46,287,46,167" style="stroke: #000000; stroke-width: 1.5;"/><line style="stroke: #000000; stroke-width: 1.5;" x1="46" x2="87" y1="187.6919" y2="187.6919"/><text fill="#000000" font-family="Ricty Diminished" font-size="14" font-weight="bold" lengthAdjust="spacingAndGlyphs" textLength="28" x="50" y="180.6836">util</text><!--class Command--><rect fill="#F8F8F8" filter="url(#f1pualjc20df1t)" height="71.0713" id="Command" style="stroke: #383838; stroke-width: 1.5;" width="122" x="311" y="63"/><ellipse cx="347.6" cy="79" fill="#B1B1B1" rx="11" ry="11" style="stroke: #383838; stroke-width: 1.0;"/><path d="M348.5844,83.9063 L349.3188,83.9063 L349.3188,85.3594 L345.3188,85.3594 L345.3188,83.9063 L346.0531,83.9063 L346.0531,73.875 L345.3188,73.875 L345.3188,72.4219 L349.3188,72.4219 L349.3188,73.875 L348.5844,73.875 L348.5844,83.9063 Z "/><text fill="#000000" font-family="Ricty Diminished" font-size="12" font-style="italic" lengthAdjust="spacingAndGlyphs" textLength="42" x="366.4" y="82.718">Command</text><line style="stroke: #383838; stroke-width: 1.5;" x1="312" x2="432" y1="95" y2="95"/><line style="stroke: #383838; stroke-width: 1.5;" x1="312" x2="432" y1="103" y2="103"/><ellipse cx="322" cy="114" fill="#A6A6A6" rx="3" ry="3" style="stroke: #545454; stroke-width: 1.0;"/><text fill="#000000" font-family="Ricty Diminished" font-size="11" lengthAdjust="spacingAndGlyphs" textLength="96" x="331" y="116.1736">Delete(Command*)</text><ellipse cx="322" cy="125.5356" fill="#A6A6A6" rx="3" ry="3" style="stroke: #545454; stroke-width: 1.0;"/><text fill="#000000" font-family="Ricty Diminished" font-size="11" lengthAdjust="spacingAndGlyphs" textLength="24" x="331" y="127.7092">Do()</text><!--class ActiveObjectEngine--><rect fill="#F8F8F8" filter="url(#f1pualjc20df1t)" height="82.6069" id="ActiveObjectEngine" style="stroke: #383838; stroke-width: 1.5;" width="260" x="700" y="57"/><ellipse cx="771.75" cy="73" fill="#B1B1B1" rx="11" ry="11" style="stroke: #383838; stroke-width: 1.0;"/><path d="M772.7344,77.9063 L773.4688,77.9063 L773.4688,79.3594 L769.4688,79.3594 L769.4688,77.9063 L770.2031,77.9063 L770.2031,67.875 L769.4688,67.875 L769.4688,66.4219 L773.4688,66.4219 L773.4688,67.875 L772.7344,67.875 L772.7344,77.9063 Z "/><text fill="#000000" font-family="Ricty Diminished" font-size="12" font-style="italic" lengthAdjust="spacingAndGlyphs" textLength="108" x="792.25" y="76.718">ActiveObjectEngine</text><line style="stroke: #383838; stroke-width: 1.5;" x1="701" x2="959" y1="89" y2="89"/><line style="stroke: #383838; stroke-width: 1.5;" x1="701" x2="959" y1="97" y2="97"/><ellipse cx="711" cy="108" fill="#A6A6A6" rx="3" ry="3" style="stroke: #545454; stroke-width: 1.0;"/><text fill="#000000" font-family="Ricty Diminished" font-size="11" lengthAdjust="spacingAndGlyphs" textLength="162" x="720" y="110.1736">Delete(ActiveObjectEngine*)</text><ellipse cx="711" cy="119.5356" fill="#A6A6A6" rx="3" ry="3" style="stroke: #545454; stroke-width: 1.0;"/><text fill="#000000" font-family="Ricty Diminished" font-size="11" lengthAdjust="spacingAndGlyphs" textLength="138" x="720" y="121.7092">Run(ActiveObjectEngine)</text><ellipse cx="711" cy="131.0713" fill="#A6A6A6" rx="3" ry="3" style="stroke: #545454; stroke-width: 1.0;"/><text fill="#000000" font-family="Ricty Diminished" font-size="11" lengthAdjust="spacingAndGlyphs" textLength="234" x="720" y="133.2449">AddCommand(ActiveObjectEngine, Command)</text><!--class ActiveObjectEngineTask--><rect fill="#F8F8F8" filter="url(#f1pualjc20df1t)" height="59.5356" id="ActiveObjectEngineTask" style="stroke: #383838; stroke-width: 1.5;" width="176" x="971" y="205.5"/><ellipse cx="991.4" cy="221.5" fill="#C2C2C2" rx="11" ry="11" style="stroke: #383838; stroke-width: 1.0;"/><path d="M994.1031,226.9375 Q993.1813,227.8594 990.9156,227.8594 Q989.65,227.8594 988.7281,226.9375 Q987.0719,225.2813 987.0719,221.75 Q987.0719,217.6406 988.8531,215.8438 Q989.7906,214.9219 990.9781,214.9219 Q993.2438,214.9219 993.9781,215.6406 Q995.3688,217.0469 995.3063,219.4375 L992.8375,219.4375 Q992.775,217.3125 992.0406,216.5781 Q991.65,216.1719 990.9781,216.1719 Q990.9781,216.1719 990.9156,216.6406 Q989.5875,217.9688 989.5875,221.625 Q989.5875,224.8125 990.7281,225.9375 Q991.2594,226.4688 991.2594,226.4688 Q991.5094,226.4688 992.0406,225.9375 Q992.7125,225.2813 992.775,222.8906 L995.3688,222.8906 Q995.1656,225.875 994.1031,226.9375 Z "/><text fill="#000000" font-family="Ricty Diminished" font-size="12" lengthAdjust="spacingAndGlyphs" textLength="132" x="1006.6" y="225.218">ActiveObjectEngineTask</text><line style="stroke: #383838; stroke-width: 1.5;" x1="972" x2="1146" y1="237.5" y2="237.5"/><line style="stroke: #383838; stroke-width: 1.5;" x1="972" x2="1146" y1="245.5" y2="245.5"/><ellipse cx="982" cy="256.5" fill="#A6A6A6" rx="3" ry="3" style="stroke: #545454; stroke-width: 1.0;"/><text fill="#000000" font-family="Ricty Diminished" font-size="11" lengthAdjust="spacingAndGlyphs" textLength="150" x="991" y="258.6736">New(): ActiveObjectEngine</text><!--class CountingActiveObjectEngineStub--><rect fill="#F8F8F8" filter="url(#f1pualjc20df1t)" height="59.5356" id="CountingActiveObjectEngineStub" style="stroke: #383838; stroke-width: 1.5;" width="212" x="724" y="205.5"/><ellipse cx="739" cy="221.5" fill="#C2C2C2" rx="11" ry="11" style="stroke: #383838; stroke-width: 1.0;"/><path d="M741.7031,226.9375 Q740.7813,227.8594 738.5156,227.8594 Q737.25,227.8594 736.3281,226.9375 Q734.6719,225.2813 734.6719,221.75 Q734.6719,217.6406 736.4531,215.8438 Q737.3906,214.9219 738.5781,214.9219 Q740.8438,214.9219 741.5781,215.6406 Q742.9688,217.0469 742.9063,219.4375 L740.4375,219.4375 Q740.375,217.3125 739.6406,216.5781 Q739.25,216.1719 738.5781,216.1719 Q738.5781,216.1719 738.5156,216.6406 Q737.1875,217.9688 737.1875,221.625 Q737.1875,224.8125 738.3281,225.9375 Q738.8594,226.4688 738.8594,226.4688 Q739.1094,226.4688 739.6406,225.9375 Q740.3125,225.2813 740.375,222.8906 L742.9688,222.8906 Q742.7656,225.875 741.7031,226.9375 Z "/><text fill="#000000" font-family="Ricty Diminished" font-size="12" lengthAdjust="spacingAndGlyphs" textLength="180" x="753" y="225.218">CountingActiveObjectEngineStub</text><line style="stroke: #383838; stroke-width: 1.5;" x1="725" x2="935" y1="237.5" y2="237.5"/><line style="stroke: #383838; stroke-width: 1.5;" x1="725" x2="935" y1="245.5" y2="245.5"/><ellipse cx="735" cy="256.5" fill="#A6A6A6" rx="3" ry="3" style="stroke: #545454; stroke-width: 1.0;"/><text fill="#000000" font-family="Ricty Diminished" font-size="11" lengthAdjust="spacingAndGlyphs" textLength="150" x="744" y="258.6736">New(): ActiveObjectEngine</text><!--class SleepCommand--><rect fill="#F8F8F8" filter="url(#f1pualjc20df1t)" height="71.0713" id="SleepCommand" style="stroke: #383838; stroke-width: 1.5;" width="302" x="387" y="200"/><ellipse cx="497.75" cy="216" fill="#C2C2C2" rx="11" ry="11" style="stroke: #383838; stroke-width: 1.0;"/><path d="M500.4531,221.4375 Q499.5313,222.3594 497.2656,222.3594 Q496,222.3594 495.0781,221.4375 Q493.4219,219.7813 493.4219,216.25 Q493.4219,212.1406 495.2031,210.3438 Q496.1406,209.4219 497.3281,209.4219 Q499.5938,209.4219 500.3281,210.1406 Q501.7188,211.5469 501.6563,213.9375 L499.1875,213.9375 Q499.125,211.8125 498.3906,211.0781 Q498,210.6719 497.3281,210.6719 Q497.3281,210.6719 497.2656,211.1406 Q495.9375,212.4688 495.9375,216.125 Q495.9375,219.3125 497.0781,220.4375 Q497.6094,220.9688 497.6094,220.9688 Q497.8594,220.9688 498.3906,220.4375 Q499.0625,219.7813 499.125,217.3906 L501.7188,217.3906 Q501.5156,220.375 500.4531,221.4375 Z "/><text fill="#000000" font-family="Ricty Diminished" font-size="12" lengthAdjust="spacingAndGlyphs" textLength="72" x="518.25" y="219.718">SleepCommand</text><line style="stroke: #383838; stroke-width: 1.5;" x1="388" x2="688" y1="232" y2="232"/><line style="stroke: #383838; stroke-width: 1.5;" x1="388" x2="688" y1="240" y2="240"/><ellipse cx="398" cy="251" fill="#A6A6A6" rx="3" ry="3" style="stroke: #545454; stroke-width: 1.0;"/><text fill="#000000" font-family="Ricty Diminished" font-size="11" lengthAdjust="spacingAndGlyphs" textLength="276" x="407" y="253.1736">New(int, ActiveObjectEngine, Command): Command</text><ellipse cx="398" cy="262.5356" fill="#A6A6A6" rx="3" ry="3" style="stroke: #545454; stroke-width: 1.0;"/><text fill="#000000" font-family="Ricty Diminished" font-size="11" lengthAdjust="spacingAndGlyphs" textLength="156" x="407" y="264.7092">SetSleepTime(Command, int)</text><!--class ErrorCommand--><rect fill="#F8F8F8" filter="url(#f1pualjc20df1t)" height="71.0713" id="ErrorCommand" style="stroke: #383838; stroke-width: 1.5;" width="290" x="62" y="200"/><ellipse cx="166.75" cy="216" fill="#C2C2C2" rx="11" ry="11" style="stroke: #383838; stroke-width: 1.0;"/><path d="M169.4531,221.4375 Q168.5313,222.3594 166.2656,222.3594 Q165,222.3594 164.0781,221.4375 Q162.4219,219.7813 162.4219,216.25 Q162.4219,212.1406 164.2031,210.3438 Q165.1406,209.4219 166.3281,209.4219 Q168.5938,209.4219 169.3281,210.1406 Q170.7188,211.5469 170.6563,213.9375 L168.1875,213.9375 Q168.125,211.8125 167.3906,211.0781 Q167,210.6719 166.3281,210.6719 Q166.3281,210.6719 166.2656,211.1406 Q164.9375,212.4688 164.9375,216.125 Q164.9375,219.3125 166.0781,220.4375 Q166.6094,220.9688 166.6094,220.9688 Q166.8594,220.9688 167.3906,220.4375 Q168.0625,219.7813 168.125,217.3906 L170.7188,217.3906 Q170.5156,220.375 169.4531,221.4375 Z "/><text fill="#000000" font-family="Ricty Diminished" font-size="12" lengthAdjust="spacingAndGlyphs" textLength="72" x="187.25" y="219.718">ErrorCommand</text><line style="stroke: #383838; stroke-width: 1.5;" x1="63" x2="351" y1="232" y2="232"/><line style="stroke: #383838; stroke-width: 1.5;" x1="63" x2="351" y1="240" y2="240"/><ellipse cx="73" cy="251" fill="#A6A6A6" rx="3" ry="3" style="stroke: #545454; stroke-width: 1.0;"/><text fill="#000000" font-family="Ricty Diminished" font-size="11" lengthAdjust="spacingAndGlyphs" textLength="168" x="82" y="253.1736">New(NotifyDelegate): Command</text><ellipse cx="73" cy="262.5356" fill="#A6A6A6" rx="3" ry="3" style="stroke: #545454; stroke-width: 1.0;"/><text fill="#000000" font-family="Ricty Diminished" font-size="11" lengthAdjust="spacingAndGlyphs" textLength="264" x="82" y="264.7092">SetErrorInfo(Command, const char*, int, int)</text><!--reverse link Command to SleepCommand--><path d="M430.528,147.098 C451.907,164.485 475.665,183.806 495.396,199.852 " fill="none" id="Command&lt;-SleepCommand" style="stroke: #383838; stroke-width: 1.0;"/><polygon fill="none" points="425.849,152.316,414.749,134.266,434.682,141.454,425.849,152.316" style="stroke: #383838; stroke-width: 1.0;"/><!--reverse link Command to ErrorCommand--><path d="M313.825,147.098 C292.574,164.485 268.959,183.806 249.348,199.852 " fill="none" id="Command&lt;-ErrorCommand" style="stroke: #383838; stroke-width: 1.0;"/><polygon fill="none" points="309.597,141.513,329.508,134.266,318.462,152.348,309.597,141.513" style="stroke: #383838; stroke-width: 1.0;"/><!--reverse link ActiveObjectEngine to ActiveObjectEngineTask--><path d="M937.277,149.496 C942.985,152.615 948.592,155.792 954,159 C977.366,172.86 1002.101,190.485 1021.69,205.22 " fill="none" id="ActiveObjectEngine&lt;-ActiveObjectEngineTask" style="stroke: #383838; stroke-width: 1.0;"/><polygon fill="none" points="933.813,155.583,919.393,140.056,940.348,143.201,933.813,155.583" style="stroke: #383838; stroke-width: 1.0;"/><!--reverse link ActiveObjectEngine to CountingActiveObjectEngineStub--><path d="M830,160.042 C830,175.726 830,191.917 830,205.178 " fill="none" id="ActiveObjectEngine&lt;-CountingActiveObjectEngineStub" style="stroke: #383838; stroke-width: 1.0;"/><polygon fill="none" points="823,160.004,830,140.004,837,160.004,823,160.004" style="stroke: #383838; stroke-width: 1.0;"/><!--link SleepCommand to ActiveObjectEngine--><path d="M612.717,199.956 C650.722,182.385 697.267,160.866 737.514,142.259 " fill="none" id="SleepCommand-&gt;ActiveObjectEngine" style="stroke: #383838; stroke-width: 1.0;"/><polygon fill="#383838" points="742.39,140.004,732.5422,140.148,737.8511,142.1013,735.8978,147.4102,742.39,140.004" style="stroke: #383838; stroke-width: 1.0;"/><!--
@startuml util_class_diagram
skinparam {
    defaultFontName Ricty Diminished
    monochrome true
}

package Golem {
    interface Command {
        + Delete(Command*)
        + Do()
    }

    interface ActiveObjectEngine {
        + Delete(ActiveObjectEngine*)
        + Run(ActiveObjectEngine)
        + AddCommand(ActiveObjectEngine, Command)
    }

    folder util {
        class ActiveObjectEngineTask {
            + New(): ActiveObjectEngine
        }

        class CountingActiveObjectEngineStub {
            + New(): ActiveObjectEngine
        }

        class SleepCommand {
            + New(int, ActiveObjectEngine, Command): Command
            + SetSleepTime(Command, int)
        }

        class ErrorCommand {
            + New(NotifyDelegate): Command
            + SetErrorInfo(Command, const char*, int, int)
        }
    }

    Command <|- - SleepCommand
    Command <|- - ErrorCommand
    ActiveObjectEngine <|- - ActiveObjectEngineTask
    ActiveObjectEngine <|- - CountingActiveObjectEngineStub
    SleepCommand -> ActiveObjectEngine
}
@enduml

PlantUML version 1.2019.09(Tue Aug 27 01:19:51 JST 2019)
(GPL source distribution)
Java Runtime: Java(TM) SE Runtime Environment
JVM: Java HotSpot(TM) 64-Bit Server VM
Java Version: 1.8.0_221-b11
Operating System: Windows 10
OS Version: 10.0
Default Encoding: MS932
Language: en
Country: GB
--></g></svg>